<!-- Generated by IcoMoon.io -->
<svg version="1.1" xmlns="http://www.w3.org/2000/svg" width="32" height="32" viewBox="0 0 32 32">
<title>adjust-circle</title>
<path d="M24.028 7.973c-0.742-1.933-1.956-3.651-3.531-4.996s-3.461-2.275-5.487-2.705c-2.026-0.43-4.127-0.348-6.113 0.24s-3.793 1.663-5.257 3.128c-1.464 1.464-2.54 3.272-3.128 5.257s-0.671 4.087-0.24 6.113c0.43 2.026 1.361 3.912 2.705 5.487s3.062 2.789 4.996 3.531c0.742 1.933 1.956 3.651 3.531 4.996s3.461 2.275 5.487 2.705c2.026 0.431 4.127 0.348 6.113-0.24s3.793-1.663 5.257-3.128c1.465-1.464 2.54-3.272 3.128-5.257s0.671-4.087 0.24-6.113c-0.43-2.026-1.361-3.912-2.705-5.487s-3.062-2.789-4.996-3.531zM21.459 10.541c0.116 0.603 0.175 1.216 0.177 1.83-0.003 0.725-0.090 1.446-0.257 2.151l-3.917-3.885c0.705-0.167 1.427-0.254 2.151-0.257 0.614 0.002 1.227 0.061 1.83 0.177l0.016-0.016zM19.95 17.606c-0.64 0.911-1.433 1.704-2.344 2.344l-5.555-5.555c0.64-0.911 1.433-1.704 2.344-2.344l5.555 5.555zM7.106 19.95c-1.112-0.769-2.042-1.774-2.723-2.942s-1.097-2.472-1.219-3.819c-0.122-1.347 0.054-2.704 0.515-3.976s1.195-2.426 2.152-3.383c0.956-0.956 2.111-1.691 3.383-2.152s2.629-0.636 3.976-0.515c1.347 0.122 2.651 0.538 3.819 1.219s2.173 1.611 2.942 2.723h-0.401c-3.299 0.021-6.454 1.35-8.775 3.694s-3.616 5.514-3.604 8.812c0 0.128 0.016 0.273 0.016 0.401l-0.080-0.064zM10.477 21.378c-0.116-0.603-0.175-1.216-0.177-1.83 0.003-0.725 0.090-1.446 0.257-2.151l3.901 3.901c-0.705 0.167-1.427 0.253-2.151 0.257-0.585 0.015-1.171-0.023-1.75-0.112l-0.080-0.064zM19.612 28.844c-1.503-0.003-2.982-0.371-4.311-1.073s-2.467-1.717-3.316-2.957h0.401c3.296-0.004 6.456-1.314 8.788-3.643s3.646-5.487 3.655-8.783c0-0.128 0-0.273 0-0.401 1.631 1.113 2.862 2.719 3.513 4.583s0.687 3.887 0.103 5.773-1.757 3.535-3.347 4.705c-1.59 1.17-3.513 1.8-5.488 1.797z"></path>
</svg>
