<!-- Generated by IcoMoon.io -->
<svg version="1.1" xmlns="http://www.w3.org/2000/svg" width="19" height="32" viewBox="0 0 19 32">
<title>arrow-right</title>
<path d="M2.421 0.047c-0.835 0.227-1.881 1.28-2.098 2.111-0.030 0.144-0.048 0.309-0.048 0.478s0.017 0.334 0.050 0.493l-0.003-0.016c0.098 0.322 0.244 0.602 0.432 0.848l-0.005-0.006c0.104 0.147 2.395 2.466 6.067 6.137l5.9 5.907-5.9 5.907c-3.672 3.672-5.964 5.99-6.067 6.137-0.295 0.356-0.475 0.816-0.478 1.319v0.001c0 0.618 0.247 1.123 0.845 1.734 0.434 0.444 0.902 0.748 1.313 0.852 0.264 0.067 0.698 0.067 0.962 0 0.344-0.113 0.642-0.272 0.906-0.473l-0.008 0.006c0.271-0.204 13.898-13.832 14.102-14.102 0.314-0.371 0.509-0.852 0.521-1.377l0-0.003c-0.012-0.528-0.207-1.009-0.524-1.383l0.003 0.003c-0.241-0.317-13.848-13.912-14.146-14.132-0.243-0.191-0.53-0.341-0.841-0.433l-0.018-0.005c-0.148-0.032-0.318-0.051-0.493-0.051-0.169 0-0.333 0.017-0.492 0.050l0.016-0.003z"></path>
</svg>
