<!-- Generated by IcoMoon.io -->
<svg version="1.1" xmlns="http://www.w3.org/2000/svg" width="19" height="32" viewBox="0 0 19 32">
<title>arrow-left</title>
<path d="M15.785 0.047c-0.323 0.104-0.604 0.254-0.852 0.446l0.006-0.005c-0.344 0.254-13.922 13.832-14.176 14.176-0.354 0.484-0.491 0.852-0.491 1.336s0.137 0.852 0.491 1.336c0.221 0.297 13.815 13.905 14.132 14.146 0.257 0.196 0.555 0.355 0.877 0.462l0.022 0.006c0.264 0.067 0.698 0.067 0.962 0 0.832-0.214 1.891-1.273 2.105-2.105 0.033-0.144 0.053-0.31 0.053-0.48v-0.001c-0.012-0.529-0.208-1.010-0.527-1.383l0.003 0.003c-0.084-0.114-2.8-2.857-6.037-6.094l-5.883-5.89 5.883-5.887c3.237-3.241 5.954-5.984 6.037-6.097 0.316-0.37 0.513-0.851 0.524-1.377l0-0.002c0-0.625-0.281-1.183-0.905-1.794-0.335-0.361-0.758-0.634-1.236-0.786l-0.020-0.006c-0.148-0.032-0.318-0.051-0.493-0.051-0.169 0-0.333 0.017-0.492 0.050l0.016-0.003z"></path>
</svg>
