<!-- Generated by IcoMoon.io -->
<svg version="1.1" xmlns="http://www.w3.org/2000/svg" width="38" height="32" viewBox="0 0 38 32">
<title>bike</title>
<path d="M23.448 0.062c-0.285 0.076-0.533 0.171-0.767 0.29l0.022-0.010c-1.618 0.796-2.248 2.754-1.418 4.395 0.248 0.489 0.937 1.15 1.455 1.395 0.407 0.198 0.885 0.314 1.39 0.314 0.897 0 1.709-0.366 2.295-0.956v0c1.5-1.498 1.144-4.039-0.714-5.094-0.624-0.356-1.491-0.483-2.263-0.334zM24.28 3.19c0.025 0.137-0.096 0.239-0.227 0.19-0.092-0.037-0.119-0.227-0.041-0.303 0.080-0.082 0.243-0.012 0.268 0.113zM20.26 6.881c-0.299 0.11-0.534 0.282-4.325 3.136-1.69 1.275-3.157 2.418-3.255 2.545-0.181 0.24-0.289 0.544-0.289 0.872 0 0.162 0.026 0.318 0.075 0.464l-0.003-0.010c0.11 0.383 0.143 0.419 2.566 2.85l2.453 2.463 0.018 2.887 0.020 2.889 0.194 0.317c0.271 0.445 0.754 0.738 1.305 0.738 0.39 0 0.745-0.147 1.015-0.388l-0.001 0.001c0.52-0.458 0.507-0.346 0.485-4.211-0.016-3.222-0.025-3.411-0.141-3.595-0.070-0.108-1.027-1.103-2.132-2.214l-2.007-2.017 2.060-1.545c1.948-1.461 2.062-1.537 2.144-1.416l1.369 2.040c1.234 1.841 1.293 1.917 1.629 2.089l0.348 0.178h4.116l0.348-0.18c0.489-0.248 0.818-0.746 0.818-1.322 0-0.402-0.161-0.767-0.421-1.033v0c-0.438-0.469-0.624-0.509-2.287-0.509h-1.404l-1.451-2.183c-0.691-1.061-1.232-1.844-1.787-2.615l0.146 0.213c-0.376-0.434-1.099-0.634-1.606-0.446zM7.154 17.074c-2.641 0.331-4.81 1.854-5.933 4.168-1.635 3.364-0.546 7.435 2.535 9.471 0.708 0.469 1.197 0.71 1.864 0.921 0.692 0.233 1.49 0.367 2.318 0.367 3.481 0 6.407-2.372 7.251-5.588l0.012-0.052c0.132-0.566 0.207-1.217 0.207-1.885 0-0.431-0.031-0.854-0.092-1.268l0.006 0.047c-0.568-3.183-3.081-5.643-6.246-6.124l-0.042-0.005c-0.351-0.052-0.757-0.081-1.169-0.081-0.25 0-0.498 0.011-0.743 0.032l0.032-0.002zM28.956 17.129c-1.132 0.193-2.141 0.599-3.028 1.177l0.031-0.019c-2.023 1.374-3.334 3.663-3.334 6.259 0 0.639 0.079 1.26 0.229 1.852l-0.011-0.052c0.366 1.477 1.328 3.003 2.478 3.932 1.203 1.011 2.753 1.643 4.448 1.698h0.012c0.13 0.008 0.282 0.013 0.435 0.013 1.514 0 2.919-0.47 4.075-1.273l-0.024 0.015c1.559-1.037 2.598-2.517 3.122-4.448 0.127-0.469 0.147-0.7 0.147-1.739 0.002-1.037-0.016-1.277-0.145-1.778-0.242-0.897-0.596-1.684-1.054-2.397l0.020 0.034c-0.415-0.634-1.426-1.678-1.97-2.034-1.721-1.121-3.546-1.539-5.432-1.242zM9.226 20.271c0.728 0.223 1.24 0.542 1.854 1.16 0.44 0.444 0.614 0.675 0.827 1.109 0.293 0.576 0.465 1.256 0.465 1.976 0 2.449-1.985 4.434-4.434 4.434-0.723 0-1.405-0.173-2.008-0.48l0.025 0.012c-0.685-0.338-1.539-1.148-1.897-1.798-0.716-1.307-0.739-2.772-0.068-4.145 0.245-0.503 0.395-0.71 0.827-1.14 0.43-0.43 0.636-0.581 1.14-0.827 0.338-0.166 0.818-0.344 1.068-0.397 0.265-0.048 0.569-0.076 0.881-0.076 0.47 0 0.925 0.063 1.357 0.18l-0.036-0.008zM31.384 20.271c0.724 0.221 1.24 0.544 1.85 1.158 0.634 0.638 0.964 1.197 1.166 1.989 0.223 0.874 0.149 1.96-0.188 2.795-0.387 0.964-1.281 1.886-2.255 2.334-2.535 1.166-5.506-0.288-6.183-3.030-0.113-0.45-0.11-1.543 0.002-2.009 0.389-1.616 1.776-2.975 3.407-3.333 0.265-0.049 0.57-0.076 0.882-0.076 0.469 0 0.924 0.063 1.356 0.181l-0.036-0.008z"></path>
</svg>
