<!-- Generated by IcoMoon.io -->
<svg version="1.1" xmlns="http://www.w3.org/2000/svg" width="30" height="32" viewBox="0 0 30 32">
<title>book-alt</title>
<path d="M24.834-0h-16c-1.697 0-3.325 0.674-4.525 1.875s-1.875 2.828-1.875 4.525v19.2c0 1.697 0.674 3.325 1.875 4.526s2.828 1.874 4.525 1.874h16c0.849 0 1.663-0.337 2.263-0.937s0.937-1.414 0.937-2.263v-25.6c0-0.849-0.337-1.663-0.937-2.263s-1.414-0.937-2.263-0.937zM5.634 6.4c0-0.849 0.337-1.663 0.937-2.263s1.414-0.937 2.263-0.937h16v16h-16c-1.128 0.005-2.234 0.314-3.2 0.896v-13.696zM8.834 28.8c-0.849 0-1.663-0.337-2.263-0.937s-0.937-1.414-0.937-2.263c0-0.849 0.337-1.663 0.937-2.263s1.414-0.937 2.263-0.937h16v6.4h-16zM12.034 9.6h6.4c0.424 0 0.831-0.169 1.131-0.469s0.469-0.707 0.469-1.131-0.169-0.831-0.469-1.131c-0.3-0.3-0.707-0.469-1.131-0.469h-6.4c-0.424 0-0.831 0.169-1.131 0.469s-0.469 0.707-0.469 1.131c0 0.424 0.169 0.831 0.469 1.131s0.707 0.469 1.131 0.469z"></path>
</svg>
