<!-- Generated by IcoMoon.io -->
<svg version="1.1" xmlns="http://www.w3.org/2000/svg" width="32" height="32" viewBox="0 0 32 32">
<title>car</title>
<path d="M6.014 1.893c-0.925 0.251-1.689 0.822-2.184 1.583l-0.009 0.015c-0.101 0.173-0.998 2.604-1.987 5.402l-1.806 5.087-0.019 6.965c-0.021 7.731-0.040 7.398 0.448 8.115 1.024 1.515 3.169 1.561 4.343 0.093 0.347-0.435 0.528-1.067 0.528-1.843v-0.632h21.342v0.627c0 1.080 0.333 1.83 1.064 2.385 1.465 1.118 3.689 0.376 4.159-1.39 0.109-0.408 0.117-1.070 0.099-7.384l-0.021-6.936-1.806-5.087c-0.99-2.798-1.886-5.229-1.987-5.402-0.508-0.786-1.286-1.361-2.199-1.598l-0.026-0.006c-0.662-0.155-19.293-0.152-19.939 0.005zM25.638 6.705l1.385 3.967h-22.046l1.385-3.967 0.48-1.369h18.317l0.48 1.369zM28.449 18.676v4.444h-24.901v-8.892h24.901v4.447zM7.497 16.051c-1.027 0.251-1.79 0.947-2.057 1.873-0.065 0.221-0.103 0.474-0.103 0.736 0 1.473 1.187 2.669 2.657 2.684h0.001c1.443 0 2.668-1.227 2.668-2.668 0-1.064-0.712-2.102-1.707-2.486-0.317-0.123-1.187-0.205-1.459-0.139zM23.503 16.051c-1.027 0.251-1.79 0.947-2.057 1.873-0.065 0.221-0.103 0.474-0.103 0.736 0 1.473 1.187 2.669 2.657 2.684h0.001c1.443 0 2.668-1.227 2.668-2.668 0-1.064-0.712-2.102-1.707-2.486-0.317-0.123-1.187-0.205-1.459-0.139z"></path>
</svg>
