<!-- Generated by IcoMoon.io -->
<svg version="1.1" xmlns="http://www.w3.org/2000/svg" width="30" height="32" viewBox="0 0 30 32">
<title>chart-pie-alt</title>
<path d="M25.898 16h-10.664v-10.664c0-0.914-0.609-1.523-1.523-1.523-7.617 0-13.711 6.094-13.711 13.711s6.094 13.711 13.711 13.711 13.711-6.094 13.711-13.711c0-0.914-0.61-1.524-1.524-1.524zM15.234 28.035c-5.789 0.914-11.274-3.199-12.035-8.988-0.914-5.789 3.199-11.274 8.988-12.035v10.512c0 0.914 0.609 1.523 1.523 1.523h10.512c-0.61 4.723-4.266 8.379-8.988 8.988zM19.805 0.765c-0.914 0-1.523 0.609-1.523 1.523v9.141c0 0.914 0.609 1.523 1.523 1.523h9.141c0.914 0 1.523-0.609 1.523-1.523 0-5.941-4.723-10.664-10.664-10.664zM21.328 9.906v-5.941c3.047 0.609 5.332 2.895 5.941 5.941h-5.941z"></path>
</svg>
