<!-- Generated by IcoMoon.io -->
<svg version="1.1" xmlns="http://www.w3.org/2000/svg" width="32" height="32" viewBox="0 0 32 32">
<title>check</title>
<path d="M31.267 5.036c-0.212-0.213-0.463-0.383-0.741-0.498s-0.575-0.175-0.876-0.175c-0.301 0-0.598 0.059-0.875 0.175s-0.529 0.285-0.741 0.498l-16.963 16.986-7.127-7.15c-0.22-0.212-0.479-0.379-0.764-0.491s-0.588-0.167-0.893-0.162c-0.306 0.005-0.607 0.071-0.887 0.193s-0.534 0.298-0.746 0.517c-0.212 0.22-0.379 0.479-0.491 0.763s-0.167 0.588-0.162 0.893 0.071 0.607 0.193 0.887c0.122 0.28 0.298 0.534 0.517 0.746l8.743 8.744c0.212 0.213 0.463 0.383 0.741 0.498s0.575 0.175 0.876 0.175c0.301 0 0.598-0.059 0.876-0.175s0.529-0.285 0.741-0.498l18.58-18.58c0.231-0.213 0.416-0.472 0.542-0.76s0.191-0.599 0.191-0.914c0-0.314-0.065-0.625-0.191-0.914s-0.311-0.547-0.542-0.76z"></path>
</svg>
