<!-- Generated by IcoMoon.io -->
<svg version="1.1" xmlns="http://www.w3.org/2000/svg" width="31" height="32" viewBox="0 0 31 32">
<title>clock-five</title>
<path d="M14.278 3.112c-2.567 0-5.077 0.761-7.211 2.188s-3.798 3.453-4.781 5.825-1.239 4.982-0.739 7.5c0.501 2.518 1.737 4.831 3.552 6.646s4.128 3.051 6.646 3.552c2.518 0.501 5.128 0.244 7.5-0.739s4.399-2.646 5.825-4.781c1.426-2.135 2.188-4.644 2.188-7.211 0-1.705-0.336-3.392-0.988-4.967s-1.608-3.006-2.814-4.211c-1.205-1.205-2.636-2.161-4.211-2.814s-3.263-0.988-4.967-0.988zM14.278 26.476c-2.054 0-4.061-0.609-5.769-1.75s-3.039-2.763-3.825-4.66c-0.786-1.897-0.992-3.985-0.591-6s1.39-3.865 2.842-5.317c1.452-1.452 3.302-2.441 5.317-2.842s4.102-0.195 6 0.591 3.519 2.117 4.66 3.825c1.141 1.708 1.75 3.715 1.75 5.769 0 2.754-1.094 5.395-3.041 7.343s-4.589 3.041-7.343 3.041zM15.576 16.001v-6.399c0-0.344-0.137-0.674-0.38-0.918s-0.574-0.38-0.918-0.38-0.674 0.137-0.918 0.38c-0.243 0.243-0.38 0.574-0.38 0.918v6.49c0 0 0 0.091 0 0.143-0.032 0.264 0.018 0.531 0.143 0.766l1.947 3.375c0.172 0.3 0.456 0.518 0.79 0.608s0.689 0.044 0.989-0.128c0.3-0.172 0.518-0.456 0.608-0.79s0.044-0.689-0.128-0.989l-1.752-3.076z"></path>
</svg>
