<!-- Generated by IcoMoon.io -->
<svg version="1.1" xmlns="http://www.w3.org/2000/svg" width="32" height="32" viewBox="0 0 32 32">
<title>cog</title>
<path d="M30.912 12.080l-3.024-1.008 1.424-2.848c0.144-0.298 0.193-0.634 0.138-0.96s-0.209-0.628-0.442-0.864l-3.408-3.408c-0.237-0.237-0.541-0.393-0.871-0.448s-0.669-0.004-0.969 0.144l-2.848 1.424-1.008-3.024c-0.107-0.315-0.309-0.589-0.578-0.784s-0.593-0.301-0.926-0.304h-4.8c-0.335-0.001-0.663 0.104-0.935 0.299s-0.477 0.471-0.585 0.789l-1.008 3.024-2.848-1.424c-0.298-0.144-0.634-0.193-0.96-0.138s-0.628 0.209-0.864 0.442l-3.408 3.408c-0.237 0.236-0.393 0.541-0.448 0.871s-0.004 0.669 0.144 0.969l1.424 2.848-3.024 1.008c-0.315 0.106-0.589 0.309-0.784 0.578s-0.301 0.593-0.304 0.926v4.8c-0.001 0.335 0.104 0.663 0.299 0.935s0.471 0.477 0.789 0.585l3.024 1.008-1.424 2.848c-0.144 0.298-0.193 0.634-0.138 0.96s0.209 0.628 0.442 0.864l3.408 3.408c0.236 0.237 0.541 0.393 0.871 0.448s0.669 0.004 0.969-0.144l2.848-1.424 1.008 3.024c0.107 0.318 0.312 0.594 0.585 0.789s0.6 0.3 0.935 0.299h4.8c0.335 0.001 0.663-0.104 0.935-0.299s0.477-0.471 0.585-0.789l1.008-3.024 2.848 1.424c0.296 0.141 0.628 0.187 0.952 0.133s0.622-0.207 0.856-0.437l3.408-3.408c0.237-0.236 0.393-0.541 0.448-0.871s0.004-0.669-0.144-0.969l-1.424-2.848 3.024-1.008c0.315-0.106 0.589-0.309 0.785-0.578s0.301-0.593 0.304-0.926v-4.8c0.001-0.335-0.104-0.663-0.299-0.935s-0.471-0.477-0.789-0.585zM28.8 17.248l-1.92 0.64c-0.441 0.143-0.847 0.381-1.187 0.696s-0.608 0.701-0.785 1.13c-0.177 0.429-0.258 0.892-0.238 1.355s0.141 0.918 0.354 1.33l0.912 1.824-1.76 1.76-1.776-0.96c-0.41-0.204-0.86-0.318-1.318-0.334s-0.914 0.067-1.338 0.243c-0.423 0.176-0.804 0.441-1.116 0.777s-0.548 0.735-0.693 1.17l-0.64 1.92h-2.544l-0.64-1.92c-0.143-0.442-0.381-0.847-0.696-1.187s-0.701-0.608-1.13-0.785c-0.429-0.176-0.892-0.257-1.355-0.238s-0.918 0.141-1.33 0.354l-1.824 0.912-1.76-1.76 0.96-1.776c0.213-0.412 0.334-0.866 0.354-1.33s-0.061-0.926-0.238-1.355c-0.177-0.429-0.444-0.815-0.785-1.13s-0.746-0.553-1.187-0.696l-1.92-0.64v-2.496l1.92-0.64c0.442-0.143 0.847-0.381 1.187-0.696s0.608-0.701 0.785-1.13c0.177-0.429 0.258-0.892 0.238-1.355s-0.141-0.918-0.354-1.33l-0.912-1.776 1.76-1.76 1.776 0.912c0.412 0.213 0.866 0.334 1.33 0.354s0.926-0.061 1.355-0.238c0.429-0.177 0.815-0.444 1.13-0.785s0.553-0.746 0.696-1.187l0.64-1.92h2.496l0.64 1.92c0.143 0.442 0.381 0.847 0.696 1.187s0.701 0.608 1.13 0.785c0.429 0.177 0.892 0.258 1.355 0.238s0.918-0.141 1.33-0.354l1.824-0.912 1.76 1.76-0.96 1.776c-0.204 0.41-0.318 0.86-0.334 1.318s0.067 0.914 0.243 1.338 0.441 0.804 0.777 1.116c0.336 0.312 0.735 0.548 1.17 0.693l1.92 0.64v2.544zM16 9.6c-1.266 0-2.503 0.375-3.556 1.079s-1.873 1.703-2.357 2.872c-0.484 1.169-0.611 2.456-0.364 3.698s0.856 2.382 1.752 3.277c0.895 0.895 2.035 1.505 3.277 1.752s2.528 0.12 3.698-0.364c1.169-0.484 2.169-1.305 2.872-2.357s1.079-2.29 1.079-3.556c0-1.697-0.674-3.325-1.875-4.525s-2.828-1.874-4.526-1.874zM16 19.2c-0.633 0-1.252-0.188-1.778-0.539s-0.936-0.852-1.179-1.436-0.306-1.228-0.182-1.849c0.123-0.621 0.428-1.191 0.876-1.638s1.018-0.752 1.638-0.876c0.621-0.123 1.264-0.060 1.849 0.182s1.084 0.652 1.436 1.179c0.352 0.526 0.539 1.145 0.539 1.778 0 0.849-0.337 1.663-0.937 2.263s-1.414 0.937-2.263 0.937z"></path>
</svg>
