<!-- Generated by IcoMoon.io -->
<svg version="1.1" xmlns="http://www.w3.org/2000/svg" width="32" height="32" viewBox="0 0 32 32">
<title>coins</title>
<path d="M30.752 16c0.796-0.876 1.241-2.016 1.248-3.2 0-1.273-0.506-2.494-1.406-3.394s-2.121-1.406-3.394-1.406h-8.288c0.256-0.723 0.334-1.497 0.229-2.256s-0.39-1.483-0.832-2.11c-0.442-0.627-1.027-1.138-1.708-1.492s-1.435-0.54-2.202-0.542h-9.6c-1.273 0-2.494 0.506-3.394 1.406s-1.406 2.121-1.406 3.394c0.007 1.184 0.452 2.324 1.248 3.2-0.787 0.88-1.222 2.019-1.222 3.2s0.435 2.32 1.222 3.2c-0.787 0.88-1.222 2.019-1.222 3.2s0.435 2.32 1.222 3.2c-0.796 0.876-1.241 2.016-1.248 3.2 0 1.273 0.506 2.494 1.406 3.394s2.121 1.406 3.394 1.406h22.4c0.924-0.005 1.828-0.277 2.601-0.783s1.385-1.224 1.76-2.069c0.375-0.845 0.498-1.78 0.355-2.693s-0.548-1.766-1.164-2.455c0.787-0.88 1.222-2.019 1.222-3.2s-0.435-2.32-1.222-3.2zM14.4 27.2h-9.6c-0.424 0-0.831-0.169-1.131-0.469s-0.469-0.707-0.469-1.131c0-0.424 0.169-0.831 0.469-1.131s0.707-0.469 1.131-0.469h9.6c0.424 0 0.831 0.169 1.131 0.469s0.469 0.707 0.469 1.131c0 0.424-0.169 0.831-0.469 1.131s-0.707 0.469-1.131 0.469zM14.4 20.8h-9.6c-0.424 0-0.831-0.169-1.131-0.469s-0.469-0.707-0.469-1.131c0-0.424 0.169-0.831 0.469-1.131s0.707-0.469 1.131-0.469h9.6c0.424 0 0.831 0.169 1.131 0.469s0.469 0.707 0.469 1.131c0 0.424-0.169 0.831-0.469 1.131s-0.707 0.469-1.131 0.469zM14.4 14.4h-9.6c-0.424 0-0.831-0.169-1.131-0.469s-0.469-0.707-0.469-1.131c0-0.424 0.169-0.831 0.469-1.131s0.707-0.469 1.131-0.469h9.6c0.424 0 0.831 0.169 1.131 0.469s0.469 0.707 0.469 1.131c0 0.424-0.169 0.831-0.469 1.131s-0.707 0.469-1.131 0.469zM14.4 8h-9.6c-0.424 0-0.831-0.169-1.131-0.469s-0.469-0.707-0.469-1.131c0-0.424 0.169-0.831 0.469-1.131s0.707-0.469 1.131-0.469h9.6c0.424 0 0.831 0.169 1.131 0.469s0.469 0.707 0.469 1.131c0 0.424-0.169 0.831-0.469 1.131s-0.707 0.469-1.131 0.469zM28.304 26.736c-0.142 0.15-0.313 0.268-0.503 0.348s-0.395 0.119-0.601 0.116h-8.288c0.384-1.032 0.384-2.168 0-3.2h8.288c0.424 0 0.831 0.169 1.131 0.469s0.469 0.707 0.469 1.131c-0.003 0.213-0.048 0.423-0.134 0.618s-0.208 0.371-0.362 0.518zM28.304 20.336c-0.142 0.15-0.313 0.268-0.503 0.348s-0.395 0.119-0.601 0.116h-8.288c0.384-1.032 0.384-2.168 0-3.2h8.288c0.424 0 0.831 0.169 1.131 0.469s0.469 0.707 0.469 1.131c-0.003 0.213-0.048 0.423-0.134 0.618s-0.208 0.371-0.362 0.518zM28.304 13.936c-0.142 0.15-0.313 0.268-0.503 0.348s-0.395 0.119-0.601 0.116h-8.288c0.384-1.032 0.384-2.168 0-3.2h8.288c0.424 0 0.831 0.169 1.131 0.469s0.469 0.707 0.469 1.131c-0.003 0.213-0.048 0.423-0.134 0.618s-0.208 0.371-0.362 0.518z"></path>
</svg>
