<!-- Generated by IcoMoon.io -->
<svg version="1.1" xmlns="http://www.w3.org/2000/svg" width="32" height="32" viewBox="0 0 32 32">
<title>compress-point</title>
<path d="M31.527 29.256l-10.075-10.059h2.543c0.424 0 0.831-0.169 1.131-0.468s0.468-0.707 0.468-1.131c0-0.424-0.169-0.831-0.468-1.131s-0.707-0.468-1.131-0.468h-5.741l9.052-9.052c0.167-0.143 0.303-0.32 0.399-0.518s0.15-0.415 0.158-0.635c0.008-0.22-0.029-0.44-0.109-0.645s-0.202-0.392-0.358-0.547c-0.156-0.156-0.342-0.278-0.548-0.358s-0.425-0.117-0.645-0.109c-0.22 0.008-0.436 0.062-0.635 0.158s-0.375 0.232-0.518 0.399l-9.052 9.052v-5.741c0-0.424-0.169-0.831-0.468-1.131s-0.707-0.468-1.131-0.468c-0.424 0-0.831 0.168-1.131 0.468s-0.468 0.707-0.468 1.131v2.543l-10.059-10.075c-0.149-0.149-0.326-0.267-0.521-0.348s-0.404-0.122-0.615-0.122c-0.211 0-0.42 0.042-0.615 0.122s-0.372 0.199-0.521 0.348c-0.301 0.301-0.47 0.71-0.47 1.135s0.169 0.834 0.47 1.135l10.075 10.059h-2.543c-0.424 0-0.831 0.169-1.131 0.468s-0.468 0.707-0.468 1.131c0 0.424 0.168 0.831 0.468 1.131s0.707 0.468 1.131 0.468h5.741l-9.052 9.052c-0.298 0.3-0.465 0.705-0.465 1.127s0.167 0.828 0.465 1.127c0.3 0.298 0.705 0.465 1.127 0.465s0.828-0.167 1.127-0.465l9.052-9.052v5.741c0 0.424 0.169 0.831 0.468 1.131s0.707 0.468 1.131 0.468c0.424 0 0.831-0.169 1.131-0.468s0.468-0.707 0.468-1.131v-2.543l10.059 10.075c0.149 0.15 0.326 0.269 0.52 0.35s0.404 0.123 0.615 0.123 0.42-0.042 0.615-0.123c0.195-0.081 0.372-0.2 0.52-0.35 0.15-0.149 0.269-0.326 0.35-0.52s0.123-0.404 0.123-0.615-0.042-0.42-0.123-0.615c-0.081-0.195-0.2-0.372-0.35-0.52z"></path>
</svg>
