<!-- Generated by IcoMoon.io -->
<svg version="1.1" xmlns="http://www.w3.org/2000/svg" width="32" height="32" viewBox="0 0 32 32">
<title>create-dashboard</title>
<path d="M12.444 17.778h-10.667c-0.472 0-0.924 0.187-1.257 0.521s-0.521 0.786-0.521 1.257v10.667c0 0.471 0.187 0.924 0.521 1.257s0.786 0.521 1.257 0.521h10.667c0.471 0 0.924-0.187 1.257-0.521s0.521-0.786 0.521-1.257v-10.667c0-0.471-0.187-0.924-0.521-1.257s-0.786-0.521-1.257-0.521zM10.667 28.444h-7.111v-7.111h7.111v7.111zM30.222-0h-10.667c-0.471 0-0.924 0.187-1.257 0.521s-0.521 0.786-0.521 1.257v10.667c0 0.471 0.187 0.924 0.521 1.257s0.786 0.521 1.257 0.521h10.667c0.471 0 0.924-0.187 1.257-0.521s0.521-0.786 0.521-1.257v-10.667c0-0.472-0.187-0.924-0.521-1.257s-0.786-0.521-1.257-0.521zM28.444 10.667h-7.111v-7.111h7.111v7.111zM30.222 23.111h-3.556v-3.556c0-0.471-0.187-0.924-0.521-1.257s-0.786-0.521-1.257-0.521c-0.471 0-0.924 0.187-1.257 0.521s-0.521 0.786-0.521 1.257v3.556h-3.556c-0.471 0-0.924 0.187-1.257 0.521s-0.521 0.786-0.521 1.257c0 0.471 0.187 0.924 0.521 1.257s0.786 0.521 1.257 0.521h3.556v3.556c0 0.471 0.187 0.924 0.521 1.257s0.786 0.521 1.257 0.521c0.471 0 0.924-0.187 1.257-0.521s0.521-0.786 0.521-1.257v-3.556h3.556c0.471 0 0.924-0.187 1.257-0.521s0.521-0.786 0.521-1.257c0-0.471-0.187-0.924-0.521-1.257s-0.786-0.521-1.257-0.521zM12.444-0h-10.667c-0.472 0-0.924 0.187-1.257 0.521s-0.521 0.786-0.521 1.257v10.667c0 0.471 0.187 0.924 0.521 1.257s0.786 0.521 1.257 0.521h10.667c0.471 0 0.924-0.187 1.257-0.521s0.521-0.786 0.521-1.257v-10.667c0-0.472-0.187-0.924-0.521-1.257s-0.786-0.521-1.257-0.521zM10.667 10.667h-7.111v-7.111h7.111v7.111z"></path>
</svg>
