<!-- Generated by IcoMoon.io -->
<svg version="1.1" xmlns="http://www.w3.org/2000/svg" width="32" height="32" viewBox="0 0 32 32">
<title>cutlery</title>
<path d="M5.375 0.072c-0.386 0.132-0.633 0.407-0.748 0.833-0.060 0.225-0.078 1.486-0.056 4.132l0.031 3.809 0.215 0.705c0.597 1.953 1.987 3.355 3.896 3.927l0.464 0.14v8.766c0 9.5-0.025 8.962 0.423 9.38 0.303 0.284 0.935 0.319 1.3 0.071 0.589-0.395 0.548 0.295 0.55-9.477v-8.746l0.669-0.217c1.824-0.594 3.223-2.125 3.718-4.070 0.148-0.58 0.159-0.866 0.159-4.547 0-3.68-0.009-3.944-0.145-4.2-0.194-0.361-0.548-0.56-1.002-0.56-0.394 0-0.645 0.14-0.924 0.513-0.157 0.21-0.163 0.332-0.203 4.228-0.044 4.354-0.031 4.225-0.504 5.030-0.251 0.429-0.874 0.999-1.362 1.248l-0.401 0.203-0.022-5.246c-0.021-5.159-0.024-5.249-0.182-5.462-0.273-0.366-0.533-0.513-0.915-0.519-0.017-0.001-0.036-0.001-0.056-0.001-0.41 0-0.767 0.227-0.952 0.562l-0.003 0.006c-0.138 0.259-0.145 0.55-0.145 5.428 0 5.837 0.062 5.371-0.647 4.923-0.567-0.365-1.014-0.872-1.296-1.472l-0.009-0.021-0.282-0.588-0.040-4.051c-0.038-3.937-0.043-4.056-0.2-4.266-0.36-0.481-0.81-0.636-1.328-0.457zM25.672 0.040c-2.181 0.19-4.070 1.716-4.807 3.885-0.303 0.893-0.334 1.663-0.309 7.756 0.023 5.757 0.025 5.816 0.188 6.035 0.090 0.122 0.279 0.3 0.422 0.397 0.251 0.17 0.319 0.176 2.128 0.176h1.868l0.021 6.544 0.022 6.542 0.288 0.288c0.244 0.245 0.351 0.294 0.705 0.322 0.342 0.028 0.466 0.001 0.691-0.151 0.168-0.121 0.306-0.274 0.408-0.45l0.004-0.007c0.129-0.257 0.138-1.152 0.138-15.343 0-16.298 0.025-15.353-0.414-15.756-0.265-0.245-0.598-0.304-1.352-0.238zM25.165 9.237v6.78h-2.273v-5.439c0-5.202 0.007-5.461 0.156-5.943 0.192-0.622 0.661-1.29 1.167-1.661 0.303-0.222 0.792-0.492 0.932-0.514 0.010-0.001 0.019 3.048 0.019 6.776z"></path>
</svg>
