<!-- Generated by IcoMoon.io -->
<svg version="1.1" xmlns="http://www.w3.org/2000/svg" width="32" height="32" viewBox="0 0 32 32">
<title>degree</title>
<path d="M10.093 0h11.816c1.992 0 3.599 0 4.862 0.17 1.311 0.175 2.416 0.554 3.293 1.429 0.877 0.877 1.253 1.982 1.431 3.293 0.169 1.263 0.169 2.87 0.169 4.862v5.988c0 1.992 0 3.599-0.169 4.862-0.178 1.311-0.554 2.416-1.431 3.293-0.726 0.726-1.61 1.112-2.646 1.322-1.005 0.204-2.219 0.256-3.654 0.272h-0.335c-0.145 0.455-0.379 0.876-0.689 1.239-0.191 0.224-0.306 0.502-0.329 0.796-0.068 0.85-0.436 1.647-1.039 2.25s-1.4 0.971-2.25 1.038c-0.293 0.023-0.572 0.139-0.796 0.329-0.649 0.553-1.473 0.857-2.325 0.857s-1.677-0.304-2.325-0.857c-0.224-0.191-0.502-0.306-0.796-0.329-0.85-0.067-1.648-0.435-2.251-1.038s-0.971-1.401-1.039-2.25c-0.023-0.293-0.139-0.572-0.329-0.796-0.309-0.362-0.543-0.782-0.688-1.236-1.515-0.010-2.784-0.052-3.828-0.243-1.104-0.204-2.044-0.589-2.809-1.355-0.877-0.876-1.253-1.982-1.429-3.293-0.17-1.262-0.17-2.869-0.17-4.861v-5.988c0-1.992 0-3.599 0.17-4.862 0.175-1.311 0.554-2.416 1.429-3.293 0.877-0.877 1.982-1.253 3.293-1.429 1.263-0.17 2.87-0.17 4.862-0.17h0.001zM8.577 23.309c0.14-0.44 0.369-0.86 0.685-1.23 0.191-0.224 0.306-0.502 0.329-0.796 0.067-0.85 0.435-1.648 1.038-2.251s1.401-0.971 2.25-1.039c0.293-0.024 0.572-0.14 0.796-0.331 0.649-0.553 1.473-0.857 2.325-0.857s1.677 0.304 2.325 0.857c0.224 0.191 0.502 0.307 0.796 0.331 0.85 0.068 1.647 0.436 2.25 1.039s0.971 1.4 1.039 2.25c0.023 0.293 0.138 0.572 0.329 0.796 0.316 0.37 0.544 0.787 0.685 1.227h0.32c1.435-0.015 2.458-0.070 3.238-0.227 0.749-0.153 1.198-0.389 1.536-0.727 0.404-0.404 0.666-0.969 0.81-2.040 0.147-1.1 0.15-2.558 0.15-4.649v-5.827c0-2.091-0.003-3.551-0.15-4.651-0.144-1.069-0.408-1.635-0.81-2.038-0.404-0.404-0.969-0.666-2.040-0.81-1.1-0.147-2.558-0.15-4.649-0.15h-11.656c-2.091 0-3.551 0.003-4.651 0.15-1.069 0.144-1.635 0.408-2.038 0.81-0.404 0.404-0.666 0.969-0.81 2.040-0.147 1.097-0.15 2.557-0.15 4.649v5.828c0 2.091 0.003 3.551 0.15 4.651 0.144 1.069 0.408 1.635 0.81 2.038 0.354 0.354 0.833 0.597 1.658 0.75 0.83 0.152 1.917 0.195 3.434 0.207h0.001zM10.537 6.921c0-0.29 0.115-0.568 0.32-0.773s0.483-0.32 0.773-0.32h8.742c0.29 0 0.568 0.115 0.773 0.32s0.32 0.483 0.32 0.773c0 0.29-0.115 0.568-0.32 0.773s-0.483 0.32-0.773 0.32h-8.742c-0.29 0-0.568-0.115-0.773-0.32s-0.32-0.483-0.32-0.773zM7.623 12.020c0-0.29 0.115-0.568 0.32-0.773s0.483-0.32 0.773-0.32h14.57c0.29 0 0.568 0.115 0.773 0.32s0.32 0.483 0.32 0.773c0 0.29-0.115 0.568-0.32 0.773s-0.483 0.32-0.773 0.32h-14.57c-0.29 0-0.568-0.115-0.773-0.32s-0.32-0.483-0.32-0.773zM16.908 19.328c-0.253-0.216-0.575-0.335-0.908-0.335s-0.655 0.119-0.908 0.335c-0.574 0.489-1.288 0.785-2.040 0.845-0.331 0.027-0.642 0.171-0.877 0.406s-0.378 0.546-0.405 0.878c-0.060 0.752-0.356 1.466-0.845 2.040-0.216 0.253-0.335 0.575-0.335 0.908s0.119 0.654 0.335 0.908c0.488 0.574 0.784 1.288 0.845 2.040 0.027 0.331 0.17 0.642 0.405 0.877s0.546 0.379 0.877 0.405c0.752 0.060 1.466 0.356 2.040 0.845 0.253 0.216 0.575 0.334 0.908 0.334s0.654-0.119 0.908-0.334c0.574-0.489 1.288-0.785 2.040-0.845 0.331-0.027 0.642-0.17 0.877-0.405s0.379-0.546 0.405-0.877c0.060-0.752 0.356-1.466 0.845-2.040 0.216-0.253 0.334-0.575 0.334-0.908s-0.119-0.655-0.334-0.908c-0.489-0.574-0.785-1.288-0.845-2.040-0.027-0.331-0.17-0.642-0.405-0.877s-0.546-0.379-0.877-0.405c-0.752-0.060-1.466-0.356-2.040-0.845v-0.001zM17.44 22.149c0.105-0.1 0.228-0.177 0.363-0.229s0.279-0.076 0.423-0.072c0.144 0.004 0.286 0.037 0.418 0.097s0.25 0.144 0.349 0.25c0.099 0.105 0.175 0.229 0.226 0.365s0.073 0.279 0.068 0.424c-0.006 0.144-0.040 0.286-0.1 0.417s-0.147 0.249-0.253 0.346l-3.122 2.914c-0.203 0.189-0.469 0.294-0.746 0.294s-0.544-0.105-0.746-0.294l-1.249-1.166c-0.209-0.199-0.33-0.472-0.339-0.759s0.097-0.567 0.294-0.778c0.197-0.21 0.468-0.335 0.756-0.346s0.568 0.092 0.781 0.286l0.503 0.469 2.376-2.218z"></path>
</svg>
