<!-- Generated by IcoMoon.io -->
<svg version="1.1" xmlns="http://www.w3.org/2000/svg" width="32" height="32" viewBox="0 0 32 32">
<title>desktop</title>
<path d="M27.2 1.6h-22.4c-1.273 0-2.494 0.506-3.394 1.406s-1.406 2.121-1.406 3.394v12.8c0 1.273 0.506 2.494 1.406 3.394s2.121 1.406 3.394 1.406h9.6v3.2h-6.4c-0.424 0-0.831 0.169-1.131 0.469s-0.469 0.707-0.469 1.131 0.169 0.831 0.469 1.131c0.3 0.3 0.707 0.469 1.131 0.469h16c0.424 0 0.831-0.169 1.131-0.469s0.469-0.707 0.469-1.131-0.169-0.831-0.469-1.131c-0.3-0.3-0.707-0.469-1.131-0.469h-6.4v-3.2h9.6c1.273 0 2.494-0.506 3.394-1.406s1.406-2.121 1.406-3.394v-12.8c0-1.273-0.506-2.494-1.406-3.394s-2.121-1.406-3.394-1.406zM28.8 19.2c0 0.424-0.169 0.831-0.469 1.131s-0.707 0.469-1.131 0.469h-22.4c-0.424 0-0.831-0.169-1.131-0.469s-0.469-0.707-0.469-1.131v-12.8c0-0.424 0.169-0.831 0.469-1.131s0.707-0.469 1.131-0.469h22.4c0.424 0 0.831 0.169 1.131 0.469s0.469 0.707 0.469 1.131v12.8z"></path>
</svg>
