<!-- Generated by IcoMoon.io -->
<svg version="1.1" xmlns="http://www.w3.org/2000/svg" width="32" height="32" viewBox="0 0 32 32">
<title>distance</title>
<path d="M31.88 15.39c-0.076-0.196-0.19-0.376-0.336-0.528l-6.403-6.403c-0.149-0.149-0.326-0.268-0.521-0.348s-0.404-0.122-0.615-0.122c-0.426 0-0.835 0.169-1.137 0.471s-0.471 0.71-0.471 1.137c0 0.426 0.169 0.835 0.471 1.137l3.682 3.666h-21.098l3.682-3.666c0.149-0.149 0.268-0.326 0.348-0.521s0.122-0.404 0.122-0.615c0-0.211-0.042-0.42-0.122-0.615s-0.199-0.372-0.348-0.521c-0.149-0.149-0.326-0.268-0.521-0.348s-0.404-0.122-0.615-0.122c-0.211 0-0.42 0.042-0.615 0.122s-0.372 0.199-0.521 0.348l-6.403 6.403c-0.146 0.152-0.26 0.332-0.336 0.528-0.16 0.39-0.16 0.827 0 1.217 0.076 0.197 0.19 0.376 0.336 0.528l6.403 6.403c0.149 0.15 0.326 0.269 0.521 0.35s0.404 0.123 0.616 0.123c0.211 0 0.421-0.042 0.616-0.123s0.372-0.2 0.521-0.35c0.15-0.149 0.269-0.326 0.35-0.521s0.123-0.404 0.123-0.616-0.042-0.421-0.123-0.616c-0.081-0.195-0.2-0.372-0.35-0.521l-3.682-3.666h21.098l-3.682 3.666c-0.15 0.149-0.269 0.326-0.35 0.521s-0.123 0.404-0.123 0.616 0.042 0.421 0.123 0.616c0.081 0.195 0.2 0.372 0.35 0.521 0.149 0.15 0.326 0.269 0.521 0.35s0.404 0.123 0.616 0.123 0.421-0.042 0.616-0.123c0.195-0.081 0.372-0.2 0.521-0.35l6.403-6.403c0.146-0.152 0.26-0.332 0.336-0.528 0.16-0.39 0.16-0.827 0-1.217z"></path>
</svg>
