<!-- Generated by IcoMoon.io -->
<svg version="1.1" xmlns="http://www.w3.org/2000/svg" width="34" height="32" viewBox="0 0 34 32">
<title>euro-rounded</title>
<path d="M17.062 0c-3.165 0-6.258 0.938-8.889 2.696s-4.682 4.257-5.893 7.181c-1.211 2.924-1.528 6.141-0.91 9.244s2.141 5.955 4.379 8.192 5.089 3.761 8.192 4.379c3.104 0.617 6.321 0.301 9.244-0.91s5.422-3.262 7.181-5.893c1.758-2.631 2.697-5.725 2.697-8.889 0-4.243-1.686-8.313-4.686-11.314s-7.070-4.686-11.314-4.686zM17.062 29.091c-2.589 0-5.12-0.768-7.273-2.206s-3.831-3.483-4.822-5.875c-0.991-2.392-1.25-5.024-0.745-7.564s1.752-4.872 3.583-6.703c1.831-1.831 4.163-3.078 6.703-3.583s5.172-0.246 7.564 0.745c2.392 0.991 4.436 2.669 5.875 4.822s2.206 4.684 2.206 7.273c0 3.472-1.379 6.802-3.834 9.257s-5.785 3.834-9.257 3.834zM17.921 9.702c0.747 0.019 1.479 0.21 2.14 0.558s1.233 0.844 1.671 1.449c0.234 0.306 0.579 0.508 0.961 0.559s0.768-0.050 1.075-0.283c0.153-0.117 0.281-0.263 0.377-0.429s0.158-0.351 0.182-0.541 0.011-0.384-0.040-0.57c-0.051-0.185-0.138-0.359-0.257-0.51-0.708-0.959-1.627-1.741-2.687-2.286s-2.231-0.838-3.422-0.856c-1.666 0.048-3.276 0.609-4.611 1.606s-2.331 2.381-2.851 3.965h-2.124c-0.386 0-0.756 0.153-1.029 0.426s-0.426 0.643-0.426 1.029c0 0.386 0.153 0.756 0.426 1.029s0.643 0.426 1.029 0.426h1.455v1.455h-1.455c-0.386 0-0.756 0.153-1.029 0.426s-0.426 0.643-0.426 1.029c0 0.386 0.153 0.756 0.426 1.029s0.643 0.426 1.029 0.426h2.124c0.52 1.583 1.515 2.968 2.851 3.965s2.946 1.558 4.611 1.606c1.191-0.018 2.363-0.311 3.422-0.856s1.979-1.327 2.687-2.286c0.156-0.145 0.279-0.324 0.359-0.522s0.115-0.411 0.103-0.625-0.071-0.421-0.172-0.609c-0.101-0.188-0.243-0.351-0.415-0.479s-0.369-0.215-0.579-0.257-0.426-0.038-0.633 0.013c-0.208 0.051-0.401 0.147-0.567 0.281s-0.301 0.303-0.394 0.495c-0.438 0.605-1.010 1.101-1.671 1.449s-1.393 0.539-2.14 0.558c-0.888-0.035-1.75-0.307-2.497-0.788s-1.351-1.153-1.751-1.947h3.389c0.386 0 0.756-0.153 1.029-0.426s0.426-0.643 0.426-1.029c0-0.386-0.153-0.756-0.426-1.029s-0.643-0.426-1.029-0.426h-4.291c-0.039-0.241-0.063-0.484-0.073-0.727 0.010-0.244 0.034-0.486 0.073-0.727h4.291c0.386 0 0.756-0.153 1.029-0.426s0.426-0.643 0.426-1.029c0-0.386-0.153-0.756-0.426-1.029s-0.643-0.426-1.029-0.426h-3.389c0.409-0.78 1.018-1.437 1.764-1.905s1.603-0.729 2.483-0.757z"></path>
</svg>
