<!-- Generated by IcoMoon.io -->
<svg version="1.1" xmlns="http://www.w3.org/2000/svg" width="32" height="32" viewBox="0 0 32 32">
<title>exclamation-triangle</title>
<path d="M15.964 21.834c-0.286 0-0.566 0.085-0.803 0.244s-0.423 0.385-0.533 0.649c-0.109 0.264-0.138 0.555-0.082 0.836s0.194 0.538 0.396 0.74c0.202 0.202 0.46 0.34 0.74 0.396s0.571 0.027 0.836-0.082c0.264-0.109 0.49-0.295 0.649-0.533s0.244-0.517 0.244-0.803c0-0.384-0.152-0.751-0.424-1.023s-0.639-0.424-1.023-0.424zM31.393 23.959l-11.641-20.245c-0.376-0.675-0.926-1.236-1.592-1.628s-1.424-0.597-2.197-0.597c-0.772 0-1.531 0.206-2.197 0.597s-1.216 0.953-1.592 1.628l-11.568 20.245c-0.389 0.657-0.598 1.404-0.606 2.167s0.186 1.515 0.561 2.18c0.376 0.664 0.92 1.218 1.578 1.605s1.406 0.593 2.17 0.599h23.31c0.769 0.008 1.527-0.19 2.195-0.571s1.223-0.934 1.607-1.601c0.384-0.667 0.584-1.424 0.579-2.193s-0.214-1.524-0.607-2.186zM28.892 26.852c-0.127 0.226-0.312 0.413-0.535 0.543s-0.478 0.197-0.737 0.195h-23.31c-0.259 0.002-0.513-0.065-0.737-0.195s-0.409-0.317-0.535-0.543c-0.127-0.22-0.194-0.469-0.194-0.723s0.067-0.503 0.194-0.723l11.568-20.245c0.121-0.237 0.306-0.436 0.533-0.574s0.488-0.212 0.754-0.212 0.527 0.073 0.754 0.212c0.227 0.139 0.411 0.338 0.533 0.574l11.641 20.245c0.143 0.217 0.226 0.468 0.239 0.728s-0.045 0.518-0.166 0.747v-0.029zM15.964 10.265c-0.383 0-0.751 0.152-1.023 0.424s-0.424 0.639-0.424 1.023v5.784c0 0.384 0.152 0.751 0.424 1.023s0.639 0.424 1.023 0.424 0.751-0.152 1.023-0.424c0.271-0.271 0.424-0.639 0.424-1.023v-5.784c0-0.384-0.152-0.751-0.424-1.023s-0.639-0.424-1.023-0.424z"></path>
</svg>
