<!-- Generated by IcoMoon.io -->
<svg version="1.1" xmlns="http://www.w3.org/2000/svg" width="32" height="32" viewBox="0 0 32 32">
<title>exclamation-circle</title>
<path d="M16 8c-0.424 0-0.831 0.169-1.131 0.469s-0.469 0.707-0.469 1.131v6.4c0 0.424 0.169 0.831 0.469 1.131s0.707 0.469 1.131 0.469c0.424 0 0.831-0.169 1.131-0.469s0.469-0.707 0.469-1.131v-6.4c0-0.424-0.169-0.831-0.469-1.131s-0.707-0.469-1.131-0.469zM17.472 21.792c-0.035-0.102-0.084-0.199-0.144-0.288l-0.192-0.24c-0.225-0.222-0.511-0.372-0.821-0.432s-0.632-0.026-0.923 0.096c-0.194 0.081-0.373 0.195-0.528 0.336-0.148 0.149-0.266 0.327-0.345 0.522s-0.12 0.404-0.119 0.614c0.003 0.209 0.046 0.416 0.128 0.608 0.072 0.199 0.187 0.379 0.336 0.528s0.33 0.264 0.528 0.336c0.191 0.085 0.399 0.128 0.608 0.128s0.416-0.044 0.608-0.128c0.199-0.072 0.379-0.187 0.528-0.336s0.264-0.33 0.336-0.528c0.082-0.192 0.125-0.399 0.128-0.608 0.008-0.107 0.008-0.213 0-0.32-0.028-0.102-0.071-0.199-0.128-0.288zM16 0c-3.164 0-6.258 0.938-8.889 2.696s-4.682 4.257-5.893 7.181c-1.211 2.924-1.528 6.141-0.91 9.244s2.141 5.955 4.379 8.192c2.238 2.238 5.089 3.761 8.192 4.379s6.321 0.3 9.244-0.911c2.924-1.211 5.423-3.262 7.181-5.893s2.696-5.725 2.696-8.889c0-2.101-0.414-4.182-1.218-6.123s-1.983-3.705-3.468-5.191c-1.486-1.486-3.25-2.664-5.191-3.468s-4.022-1.218-6.123-1.218zM16 28.8c-2.532 0-5.006-0.751-7.111-2.157s-3.746-3.406-4.714-5.744-1.222-4.913-0.728-7.396c0.494-2.483 1.713-4.764 3.503-6.554s4.071-3.009 6.554-3.503c2.483-0.494 5.057-0.24 7.396 0.728s4.338 2.609 5.744 4.714c1.406 2.105 2.157 4.58 2.157 7.111 0 3.395-1.349 6.651-3.749 9.051s-5.656 3.749-9.051 3.749z"></path>
</svg>
