<!-- Generated by IcoMoon.io -->
<svg version="1.1" xmlns="http://www.w3.org/2000/svg" width="32" height="32" viewBox="0 0 32 32">
<title>external-link-alt</title>
<path d="M25.6 14.112c-0.424 0-0.831 0.169-1.131 0.469s-0.469 0.707-0.469 1.131v11.488c0 0.424-0.169 0.831-0.469 1.131s-0.707 0.469-1.131 0.469h-17.6c-0.424 0-0.831-0.169-1.131-0.469s-0.469-0.707-0.469-1.131v-17.6c0-0.424 0.169-0.831 0.469-1.131s0.707-0.469 1.131-0.469h11.488c0.424 0 0.831-0.169 1.131-0.469s0.469-0.707 0.469-1.131-0.169-0.831-0.469-1.131c-0.3-0.3-0.707-0.469-1.131-0.469h-11.488c-1.273 0-2.494 0.506-3.394 1.406s-1.406 2.121-1.406 3.394v17.6c0 1.273 0.506 2.494 1.406 3.394s2.121 1.406 3.394 1.406h17.6c1.273 0 2.494-0.506 3.394-1.406s1.406-2.121 1.406-3.394v-11.488c0-0.424-0.169-0.831-0.469-1.131s-0.707-0.469-1.131-0.469zM31.872 0.992c-0.162-0.391-0.473-0.702-0.864-0.864-0.192-0.082-0.399-0.125-0.608-0.128h-9.6c-0.424 0-0.831 0.169-1.131 0.469s-0.469 0.707-0.469 1.131 0.169 0.831 0.469 1.131c0.3 0.3 0.707 0.469 1.131 0.469h5.744l-16.48 16.464c-0.15 0.149-0.269 0.326-0.35 0.521s-0.123 0.404-0.123 0.615c0 0.211 0.042 0.42 0.123 0.615s0.2 0.372 0.35 0.521c0.149 0.15 0.326 0.269 0.521 0.35s0.404 0.123 0.615 0.123c0.211 0 0.42-0.042 0.615-0.123s0.372-0.2 0.521-0.35l16.464-16.48v5.744c0 0.424 0.169 0.831 0.469 1.131s0.707 0.469 1.131 0.469 0.831-0.169 1.131-0.469c0.3-0.3 0.469-0.707 0.469-1.131v-9.6c-0.003-0.209-0.046-0.416-0.128-0.608z"></path>
</svg>
