<!-- Generated by IcoMoon.io -->
<svg version="1.1" xmlns="http://www.w3.org/2000/svg" width="32" height="32" viewBox="0 0 32 32">
<title>eye</title>
<path d="M31.866 15.36c-3.231-7.501-9.309-12.156-15.866-12.156s-12.636 4.654-15.866 12.156c-0.088 0.202-0.134 0.42-0.134 0.64s0.045 0.438 0.134 0.64c3.231 7.501 9.309 12.156 15.866 12.156s12.636-4.654 15.866-12.156c0.088-0.202 0.134-0.42 0.134-0.64s-0.045-0.438-0.134-0.64zM16 25.597c-5.070 0-9.869-3.663-12.636-9.597 2.767-5.934 7.565-9.597 12.636-9.597s9.869 3.663 12.636 9.597c-2.767 5.934-7.565 9.597-12.636 9.597zM16 9.602c-1.265 0-2.502 0.375-3.554 1.078s-1.872 1.702-2.356 2.871c-0.484 1.169-0.611 2.455-0.364 3.696s0.856 2.381 1.751 3.276 2.035 1.504 3.276 1.751c1.241 0.247 2.527 0.12 3.696-0.364s2.168-1.304 2.871-2.356 1.078-2.289 1.078-3.554c0-1.697-0.674-3.324-1.874-4.524s-2.827-1.874-4.524-1.874zM16 19.199c-0.633 0-1.251-0.188-1.777-0.539s-0.936-0.851-1.178-1.436c-0.242-0.585-0.305-1.228-0.182-1.848s0.428-1.19 0.876-1.638 1.017-0.752 1.638-0.876c0.621-0.123 1.264-0.060 1.848 0.182s1.084 0.652 1.436 1.178c0.352 0.526 0.539 1.144 0.539 1.777 0 0.848-0.337 1.662-0.937 2.262s-1.414 0.937-2.262 0.937z"></path>
</svg>
