<!-- Generated by IcoMoon.io -->
<svg version="1.1" xmlns="http://www.w3.org/2000/svg" width="32" height="32" viewBox="0 0 32 32">
<title>focus-target</title>
<path d="M1.6 11.2c0.424 0 0.831-0.169 1.131-0.469s0.469-0.707 0.469-1.131v-4.8c0-0.424 0.169-0.831 0.469-1.131s0.707-0.469 1.131-0.469h4.8c0.424 0 0.831-0.169 1.131-0.469s0.469-0.707 0.469-1.131c0-0.424-0.169-0.831-0.469-1.131s-0.707-0.469-1.131-0.469h-4.8c-1.273 0-2.494 0.506-3.394 1.406s-1.406 2.121-1.406 3.394v4.8c0 0.424 0.169 0.831 0.469 1.131s0.707 0.469 1.131 0.469zM9.6 28.8h-4.8c-0.424 0-0.831-0.169-1.131-0.469s-0.469-0.707-0.469-1.131v-4.8c0-0.424-0.169-0.831-0.469-1.131s-0.707-0.469-1.131-0.469c-0.424 0-0.831 0.169-1.131 0.469s-0.469 0.707-0.469 1.131v4.8c0 1.273 0.506 2.494 1.406 3.394s2.121 1.406 3.394 1.406h4.8c0.424 0 0.831-0.169 1.131-0.469s0.469-0.707 0.469-1.131c0-0.424-0.169-0.831-0.469-1.131s-0.707-0.469-1.131-0.469zM24 17.6c0.424 0 0.831-0.169 1.131-0.469s0.469-0.707 0.469-1.131c0-0.424-0.169-0.831-0.469-1.131s-0.707-0.469-1.131-0.469h-1.824c-0.287-1.101-0.863-2.105-1.667-2.909s-1.808-1.38-2.909-1.667v-1.824c0-0.424-0.169-0.831-0.469-1.131s-0.707-0.469-1.131-0.469c-0.424 0-0.831 0.169-1.131 0.469s-0.469 0.707-0.469 1.131v1.824c-1.101 0.287-2.105 0.863-2.909 1.667s-1.38 1.808-1.667 2.909h-1.824c-0.424 0-0.831 0.169-1.131 0.469s-0.469 0.707-0.469 1.131c0 0.424 0.169 0.831 0.469 1.131s0.707 0.469 1.131 0.469h1.824c0.287 1.101 0.863 2.105 1.667 2.909s1.808 1.38 2.909 1.667v1.824c0 0.424 0.169 0.831 0.469 1.131s0.707 0.469 1.131 0.469c0.424 0 0.831-0.169 1.131-0.469s0.469-0.707 0.469-1.131v-1.824c1.101-0.287 2.105-0.863 2.909-1.667s1.38-1.808 1.667-2.909h1.824zM16 19.2c-0.633 0-1.252-0.188-1.778-0.539s-0.937-0.851-1.179-1.436c-0.242-0.585-0.306-1.228-0.182-1.849s0.428-1.191 0.876-1.638 1.018-0.752 1.638-0.876c0.621-0.123 1.264-0.060 1.849 0.182s1.084 0.652 1.436 1.179c0.352 0.526 0.539 1.145 0.539 1.778 0 0.849-0.337 1.663-0.937 2.263s-1.414 0.937-2.263 0.937zM30.4 20.8c-0.424 0-0.831 0.169-1.131 0.469s-0.469 0.707-0.469 1.131v4.8c0 0.424-0.169 0.831-0.469 1.131s-0.707 0.469-1.131 0.469h-4.8c-0.424 0-0.831 0.169-1.131 0.469s-0.469 0.707-0.469 1.131c0 0.424 0.169 0.831 0.469 1.131s0.707 0.469 1.131 0.469h4.8c1.273 0 2.494-0.506 3.394-1.406s1.406-2.121 1.406-3.394v-4.8c0-0.424-0.169-0.831-0.469-1.131s-0.707-0.469-1.131-0.469zM27.2 0h-4.8c-0.424 0-0.831 0.169-1.131 0.469s-0.469 0.707-0.469 1.131c0 0.424 0.169 0.831 0.469 1.131s0.707 0.469 1.131 0.469h4.8c0.424 0 0.831 0.169 1.131 0.469s0.469 0.707 0.469 1.131v4.8c0 0.424 0.169 0.831 0.469 1.131s0.707 0.469 1.131 0.469c0.424 0 0.831-0.169 1.131-0.469s0.469-0.707 0.469-1.131v-4.8c0-1.273-0.506-2.494-1.406-3.394s-2.121-1.406-3.394-1.406z"></path>
</svg>
