<!-- Generated by IcoMoon.io -->
<svg version="1.1" xmlns="http://www.w3.org/2000/svg" width="31" height="32" viewBox="0 0 31 32">
<title>grid</title>
<path d="M29.183 0.64h-27.647c-0.407 0-0.798 0.162-1.086 0.45s-0.45 0.679-0.45 1.086v27.647c0 0.407 0.162 0.798 0.45 1.086s0.679 0.45 1.086 0.45h27.647c0.407 0 0.798-0.162 1.086-0.45s0.45-0.679 0.45-1.086v-27.647c0-0.407-0.162-0.798-0.45-1.086s-0.679-0.45-1.086-0.45zM13.823 28.288h-10.752v-6.144h10.752v6.144zM13.823 19.072h-10.752v-6.144h10.752v6.144zM27.647 28.288h-10.752v-6.144h10.752v6.144zM27.647 19.072h-10.752v-6.144h10.752v6.144zM27.647 9.856h-24.575v-6.144h24.575v6.144z"></path>
</svg>
