<!-- Generated by IcoMoon.io -->
<svg version="1.1" xmlns="http://www.w3.org/2000/svg" width="32" height="32" viewBox="0 0 32 32">
<title>minus-circle</title>
<path d="M16 0c-3.165 0-6.258 0.938-8.889 2.696s-4.682 4.257-5.893 7.181c-1.211 2.924-1.528 6.141-0.91 9.244s2.141 5.955 4.379 8.192 5.089 3.761 8.192 4.379c3.104 0.617 6.321 0.3 9.244-0.911s5.423-3.262 7.181-5.893c1.758-2.631 2.696-5.724 2.696-8.889 0-2.101-0.414-4.182-1.218-6.123s-1.983-3.705-3.468-5.191c-1.486-1.486-3.25-2.664-5.191-3.468s-4.022-1.218-6.123-1.218zM16 28.8c-2.532 0-5.006-0.751-7.111-2.157s-3.746-3.406-4.714-5.744-1.222-4.912-0.728-7.396c0.494-2.483 1.713-4.764 3.503-6.554s4.071-3.009 6.554-3.503c2.483-0.494 5.057-0.24 7.396 0.728s4.338 2.609 5.745 4.714c1.406 2.105 2.157 4.58 2.157 7.111 0 3.395-1.348 6.651-3.749 9.051s-5.656 3.749-9.051 3.749zM22.4 14.4h-12.8c-0.424 0-0.831 0.169-1.131 0.469s-0.469 0.707-0.469 1.131c0 0.425 0.169 0.831 0.469 1.131s0.707 0.469 1.131 0.469h12.8c0.424 0 0.831-0.168 1.131-0.469s0.469-0.707 0.469-1.131c0-0.424-0.169-0.831-0.469-1.131s-0.707-0.469-1.131-0.469z"></path>
</svg>
