<!-- Generated by IcoMoon.io -->
<svg version="1.1" xmlns="http://www.w3.org/2000/svg" width="26" height="32" viewBox="0 0 26 32">
<title>pin</title>
<path d="M12.797 6.857c-1.13 0-2.235 0.335-3.175 0.963s-1.672 1.52-2.105 2.565c-0.433 1.044-0.546 2.193-0.325 3.302s0.765 2.127 1.564 2.926c0.799 0.799 1.817 1.343 2.926 1.564s2.257 0.107 3.302-0.325c1.044-0.432 1.937-1.165 2.565-2.105s0.963-2.045 0.963-3.175c0-1.516-0.602-2.969-1.674-4.041s-2.525-1.674-4.041-1.674zM12.797 16c-0.678 0-1.341-0.201-1.905-0.578s-1.003-0.912-1.263-1.539c-0.259-0.627-0.327-1.316-0.195-1.981s0.459-1.276 0.938-1.755c0.48-0.479 1.090-0.806 1.755-0.938s1.354-0.064 1.981 0.195c0.627 0.259 1.162 0.699 1.539 1.263s0.578 1.227 0.578 1.905c0 0.909-0.361 1.781-1.004 2.424s-1.515 1.004-2.424 1.004zM12.797 0c-3.333 0.004-6.528 1.329-8.885 3.686s-3.683 5.552-3.686 8.885c0 4.486 2.073 9.24 6 13.75 1.765 2.038 3.751 3.873 5.921 5.471 0.192 0.135 0.421 0.207 0.656 0.207s0.464-0.072 0.656-0.207c2.167-1.599 4.149-3.434 5.91-5.471 3.922-4.51 6-9.264 6-13.75-0.004-3.333-1.33-6.528-3.686-8.885s-5.552-3.683-8.885-3.686zM12.797 29.429c-2.361-1.857-10.286-8.679-10.286-16.857 0-2.728 1.084-5.344 3.013-7.273s4.545-3.013 7.273-3.013c2.728 0 5.344 1.084 7.273 3.013s3.013 4.545 3.013 7.273c0 8.176-7.924 15-10.286 16.857z"></path>
</svg>
