<!-- Generated by IcoMoon.io -->
<svg version="1.1" xmlns="http://www.w3.org/2000/svg" width="32" height="32" viewBox="0 0 32 32">
<title>planning-event</title>
<path d="M6.381 0.063c-0.354 0.11-0.649 0.325-0.855 0.609l-0.003 0.005c-0.207 0.297-0.299 0.817-0.299 1.716v0.68l-1.158 0.025c-1.15 0.025-1.16 0.027-1.614 0.247-0.59 0.311-1.068 0.765-1.4 1.316l-0.009 0.016c-0.393 0.738-0.38 0.284-0.38 12.095 0 9.162 0.015 10.904 0.098 11.29 0.281 1.26 1.305 2.217 2.579 2.394l0.016 0.002c0.675 0.086 9.327 0.086 9.789-0.002 0.719-0.126 1.259-0.746 1.259-1.493 0-0.182-0.032-0.357-0.091-0.519l0.003 0.011c-0.172-0.438-0.518-0.776-0.951-0.934l-0.011-0.004c-0.192-0.058-1.549-0.079-4.936-0.079h-4.671v-15.229h21.333v0.932c0 0.889 0.008 0.947 0.188 1.29 0.118 0.225 0.278 0.413 0.471 0.559l0.004 0.003c0.263 0.186 0.334 0.203 0.84 0.203 0.491 0 0.585-0.021 0.832-0.186 0.155-0.102 0.364-0.31 0.466-0.464l0.186-0.28 0.017-4.347c0.017-4.255 0.015-4.355-0.123-4.763-0.296-0.811-0.886-1.455-1.639-1.814l-0.019-0.008c-0.439-0.209-0.481-0.215-1.591-0.247l-1.14-0.033-0.035-1.006c-0.038-1.137-0.082-1.273-0.542-1.668-0.281-0.22-0.635-0.36-1.021-0.379l-0.004-0c-0.251 0-0.778 0.224-0.972 0.414-0.403 0.393-0.443 0.531-0.479 1.633l-0.033 1.006-12.177 0.033v-0.889c0-1.024-0.061-1.303-0.349-1.633-0.308-0.331-0.745-0.537-1.231-0.537-0.123 0-0.244 0.013-0.36 0.039l0.011-0.002zM25.065 7.63l-0.017 1.528-21.301 0.033v-3.086h21.335l-0.017 1.526zM28.205 18.213c-0.178 0.063-0.489 0.318-0.939 0.769l-0.675 0.675 3.218 3.22 0.625-0.621c0.755-0.748 0.903-1.001 0.903-1.558 0-0.577-0.148-0.815-1.035-1.687-0.577-0.569-0.824-0.767-1.027-0.822-0.148-0.044-0.318-0.069-0.494-0.069-0.206 0-0.403 0.034-0.588 0.098l0.013-0.004zM21.615 24.638c-2.145 2.149-3.956 4.014-4.025 4.142-0.104 0.196-0.127 0.427-0.146 1.388-0.035 1.794 0 1.832 1.71 1.832 0.621 0 1.252-0.033 1.399-0.073 0.228-0.061 0.836-0.64 4.242-4.040l3.975-3.97-1.593-1.593c-0.529-0.541-1.059-1.060-1.6-1.569l-0.028-0.026c-0.019 0-1.79 1.758-3.935 3.908z"></path>
</svg>
