<!-- Generated by IcoMoon.io -->
<svg version="1.1" xmlns="http://www.w3.org/2000/svg" width="30" height="32" viewBox="0 0 30 32">
<title>promotion-percent</title>
<path d="M10.696 21.076c0.096 0 0.191-0.018 0.279-0.054s0.169-0.090 0.237-0.157l8.733-8.733c0.137-0.137 0.214-0.323 0.214-0.517s-0.077-0.38-0.214-0.517c-0.137-0.137-0.323-0.214-0.517-0.214s-0.38 0.077-0.517 0.214l-8.733 8.733c-0.068 0.068-0.122 0.148-0.159 0.237s-0.056 0.184-0.056 0.28c0 0.096 0.019 0.191 0.056 0.28s0.091 0.169 0.159 0.237c0.068 0.068 0.149 0.121 0.237 0.157s0.184 0.055 0.279 0.054z"></path>
<path d="M17.974 17.437c-0.432 0-0.854 0.128-1.213 0.368s-0.639 0.581-0.804 0.98c-0.165 0.399-0.208 0.838-0.124 1.261s0.292 0.812 0.598 1.118 0.694 0.513 1.118 0.598c0.423 0.084 0.862 0.041 1.261-0.124s0.74-0.445 0.98-0.804c0.24-0.359 0.368-0.781 0.368-1.213 0-0.579-0.23-1.134-0.639-1.544s-0.965-0.639-1.544-0.639zM17.974 20.348c-0.144 0-0.285-0.043-0.404-0.122s-0.213-0.194-0.268-0.327-0.070-0.279-0.041-0.42c0.028-0.141 0.097-0.271 0.199-0.372s0.231-0.171 0.373-0.199c0.141-0.028 0.288-0.014 0.42 0.041s0.247 0.148 0.327 0.268c0.080 0.12 0.123 0.26 0.123 0.404 0 0.193-0.077 0.378-0.213 0.515s-0.322 0.213-0.515 0.213z"></path>
<path d="M12.151 14.526c0.432 0 0.854-0.128 1.213-0.368s0.639-0.581 0.804-0.98c0.165-0.399 0.208-0.838 0.124-1.261s-0.292-0.813-0.598-1.118c-0.305-0.305-0.694-0.513-1.118-0.598s-0.862-0.041-1.261 0.124c-0.399 0.165-0.74 0.445-0.98 0.804s-0.368 0.781-0.368 1.213c0 0.579 0.23 1.134 0.639 1.544s0.965 0.639 1.544 0.639zM12.151 11.615c0.144 0 0.285 0.043 0.404 0.123s0.213 0.194 0.268 0.327c0.055 0.133 0.069 0.279 0.041 0.42s-0.097 0.271-0.199 0.373c-0.102 0.102-0.231 0.171-0.373 0.199s-0.287 0.014-0.42-0.041c-0.133-0.055-0.247-0.148-0.327-0.268s-0.123-0.26-0.123-0.404c0-0.193 0.077-0.378 0.213-0.515s0.322-0.213 0.515-0.213z"></path>
<path d="M1.672 18.798c-0.189 0.487-0.281 1.005-0.27 1.527s0.125 1.037 0.335 1.515c0.378 0.855 1.042 1.553 1.877 1.972 0.090 0.991 0.547 1.913 1.28 2.586s1.691 1.048 2.686 1.053c0.402 0.912 1.13 1.641 2.041 2.045s1.94 0.453 2.886 0.138c0.764 0.637 1.738 0.965 2.732 0.921s1.935-0.459 2.639-1.161c0.927 0.362 1.957 0.363 2.885 0.003s1.688-1.054 2.129-1.946c0.992-0.091 1.915-0.548 2.588-1.283s1.048-1.694 1.051-2.69c0.478-0.206 0.91-0.505 1.271-0.88s0.644-0.818 0.832-1.303c0.341-0.871 0.364-1.835 0.066-2.722 0.637-0.764 0.965-1.738 0.921-2.732s-0.459-1.935-1.161-2.639c0.188-0.487 0.279-1.006 0.266-1.528s-0.128-1.036-0.339-1.514c-0.378-0.856-1.042-1.553-1.878-1.972-0.090-0.991-0.547-1.913-1.28-2.585s-1.691-1.048-2.686-1.053c-0.402-0.912-1.13-1.641-2.041-2.045s-1.94-0.453-2.886-0.138c-0.764-0.637-1.738-0.965-2.732-0.921s-1.935 0.459-2.639 1.161c-0.927-0.362-1.957-0.363-2.885-0.003s-1.688 1.054-2.129 1.946c-0.992 0.091-1.915 0.548-2.588 1.283s-1.048 1.694-1.051 2.691c-0.478 0.206-0.91 0.505-1.271 0.88s-0.644 0.818-0.832 1.303c-0.341 0.871-0.364 1.835-0.065 2.722-0.637 0.764-0.965 1.738-0.921 2.732s0.459 1.935 1.161 2.639h0.007zM2.779 14.119c0.114-0.106 0.192-0.246 0.221-0.399s0.008-0.312-0.060-0.452c-0.154-0.314-0.241-0.657-0.256-1.006s0.043-0.698 0.169-1.024c0.146-0.371 0.376-0.704 0.673-0.97s0.652-0.46 1.037-0.565c0.169-0.048 0.316-0.155 0.412-0.302s0.136-0.324 0.112-0.498c-0.055-0.369-0.028-0.746 0.080-1.104s0.293-0.687 0.542-0.965c0.25-0.278 0.557-0.498 0.901-0.643s0.716-0.213 1.089-0.198c0.157 0.009 0.313-0.032 0.444-0.119s0.231-0.213 0.284-0.361c0.12-0.351 0.317-0.672 0.576-0.939s0.573-0.473 0.92-0.605c0.348-0.131 0.72-0.184 1.090-0.155s0.73 0.139 1.053 0.323c0.155 0.086 0.335 0.113 0.508 0.075s0.326-0.137 0.431-0.279c0.222-0.301 0.507-0.549 0.836-0.727s0.693-0.281 1.066-0.302c0.373-0.021 0.747 0.041 1.093 0.181s0.658 0.355 0.912 0.629c0.106 0.114 0.246 0.192 0.399 0.221s0.312 0.008 0.452-0.060c0.314-0.154 0.657-0.241 1.006-0.256s0.698 0.043 1.024 0.169c0.372 0.146 0.704 0.376 0.97 0.673s0.46 0.652 0.565 1.037c0.048 0.169 0.155 0.316 0.302 0.412s0.324 0.136 0.498 0.112c0.37-0.055 0.747-0.028 1.104 0.080s0.687 0.293 0.965 0.542 0.498 0.557 0.643 0.901c0.145 0.344 0.213 0.716 0.198 1.089-0.009 0.157 0.032 0.313 0.119 0.444s0.213 0.231 0.361 0.284c0.351 0.12 0.672 0.317 0.939 0.576s0.473 0.573 0.604 0.92c0.131 0.348 0.184 0.72 0.156 1.090s-0.139 0.73-0.323 1.053c-0.086 0.155-0.112 0.335-0.075 0.508s0.137 0.326 0.279 0.431c0.301 0.222 0.549 0.507 0.727 0.836s0.281 0.693 0.302 1.066c0.021 0.373-0.041 0.747-0.181 1.093s-0.355 0.658-0.629 0.912c-0.115 0.106-0.192 0.246-0.221 0.399s-0.008 0.312 0.060 0.452c0.154 0.314 0.241 0.657 0.256 1.006s-0.043 0.698-0.169 1.024c-0.146 0.372-0.376 0.704-0.673 0.97s-0.652 0.46-1.037 0.565c-0.169 0.048-0.316 0.155-0.412 0.302s-0.136 0.324-0.112 0.498c0.055 0.369 0.028 0.747-0.080 1.104s-0.293 0.687-0.542 0.965-0.557 0.498-0.901 0.643c-0.344 0.145-0.716 0.213-1.089 0.198-0.157-0.009-0.313 0.033-0.444 0.119s-0.231 0.213-0.284 0.361c-0.12 0.351-0.317 0.672-0.576 0.939s-0.573 0.473-0.92 0.604c-0.347 0.131-0.72 0.184-1.090 0.156s-0.73-0.14-1.053-0.323c-0.155-0.086-0.335-0.113-0.508-0.075s-0.326 0.136-0.431 0.279c-0.222 0.301-0.507 0.549-0.836 0.727s-0.693 0.281-1.066 0.302c-0.373 0.021-0.747-0.041-1.093-0.181s-0.658-0.355-0.912-0.629c-0.068-0.073-0.15-0.131-0.241-0.172s-0.19-0.061-0.29-0.061c-0.111-0.001-0.22 0.024-0.32 0.073-0.314 0.154-0.657 0.241-1.006 0.256s-0.698-0.043-1.024-0.169c-0.371-0.146-0.704-0.376-0.97-0.673s-0.46-0.652-0.565-1.037c-0.048-0.169-0.155-0.316-0.302-0.412s-0.324-0.136-0.498-0.112c-0.369 0.055-0.747 0.028-1.104-0.080s-0.687-0.293-0.965-0.542c-0.278-0.249-0.498-0.557-0.643-0.901s-0.213-0.716-0.198-1.089c0.009-0.157-0.032-0.313-0.119-0.444s-0.213-0.231-0.361-0.284c-0.351-0.12-0.672-0.317-0.939-0.576s-0.473-0.573-0.605-0.92c-0.131-0.347-0.184-0.72-0.155-1.090s0.139-0.73 0.323-1.053c0.086-0.155 0.113-0.335 0.075-0.508s-0.137-0.326-0.279-0.431c-0.301-0.222-0.549-0.507-0.727-0.836s-0.281-0.693-0.302-1.066c-0.021-0.373 0.041-0.747 0.181-1.093s0.355-0.658 0.629-0.912z"></path>
<path fill="none" stroke-linejoin="miter" stroke-linecap="butt" stroke-miterlimit="4" stroke-width="0.7529" stroke="#000" d="M1.672 18.798c-0.189 0.487-0.281 1.005-0.27 1.527s0.125 1.037 0.335 1.515c0.378 0.855 1.042 1.553 1.877 1.972 0.090 0.991 0.547 1.913 1.28 2.586s1.691 1.048 2.686 1.053c0.402 0.912 1.13 1.641 2.041 2.045s1.94 0.453 2.886 0.138c0.764 0.637 1.738 0.965 2.732 0.921s1.935-0.459 2.639-1.161c0.927 0.362 1.957 0.363 2.885 0.003s1.688-1.054 2.129-1.946c0.992-0.091 1.915-0.548 2.588-1.283s1.048-1.694 1.051-2.69c0.478-0.206 0.91-0.505 1.271-0.88s0.644-0.818 0.832-1.303c0.341-0.871 0.364-1.835 0.066-2.722 0.637-0.764 0.965-1.738 0.921-2.732s-0.459-1.935-1.161-2.639c0.188-0.487 0.279-1.006 0.266-1.528s-0.128-1.036-0.339-1.514c-0.378-0.856-1.042-1.553-1.878-1.972-0.090-0.991-0.547-1.913-1.28-2.585s-1.691-1.048-2.686-1.053c-0.402-0.912-1.13-1.641-2.041-2.045s-1.94-0.453-2.886-0.138c-0.764-0.637-1.738-0.965-2.732-0.921s-1.935 0.459-2.639 1.161c-0.927-0.362-1.957-0.363-2.885-0.003s-1.688 1.054-2.129 1.946c-0.992 0.091-1.915 0.548-2.588 1.283s-1.048 1.694-1.051 2.691c-0.478 0.206-0.91 0.505-1.271 0.88s-0.644 0.818-0.832 1.303c-0.341 0.871-0.364 1.835-0.065 2.722-0.637 0.764-0.965 1.738-0.921 2.732s0.459 1.935 1.161 2.639h0.007zM2.779 14.119c0.114-0.106 0.192-0.246 0.221-0.399s0.008-0.312-0.060-0.452c-0.154-0.314-0.241-0.657-0.256-1.006s0.043-0.698 0.169-1.024c0.146-0.371 0.376-0.704 0.673-0.97s0.652-0.46 1.037-0.565c0.169-0.048 0.316-0.155 0.412-0.302s0.136-0.324 0.112-0.498c-0.055-0.369-0.028-0.746 0.080-1.104s0.293-0.687 0.542-0.965c0.25-0.278 0.557-0.498 0.901-0.643s0.716-0.213 1.089-0.198c0.157 0.009 0.313-0.032 0.444-0.119s0.231-0.213 0.284-0.361c0.12-0.351 0.317-0.672 0.576-0.939s0.573-0.473 0.92-0.605c0.348-0.131 0.72-0.184 1.090-0.155s0.73 0.139 1.053 0.323c0.155 0.086 0.335 0.113 0.508 0.075s0.326-0.137 0.431-0.279c0.222-0.301 0.507-0.549 0.836-0.727s0.693-0.281 1.066-0.302c0.373-0.021 0.747 0.041 1.093 0.181s0.658 0.355 0.912 0.629c0.106 0.114 0.246 0.192 0.399 0.221s0.312 0.008 0.452-0.060c0.314-0.154 0.657-0.241 1.006-0.256s0.698 0.043 1.024 0.169c0.372 0.146 0.704 0.376 0.97 0.673s0.46 0.652 0.565 1.037c0.048 0.169 0.155 0.316 0.302 0.412s0.324 0.136 0.498 0.112c0.37-0.055 0.747-0.028 1.104 0.080s0.687 0.293 0.965 0.542 0.498 0.557 0.643 0.901c0.145 0.344 0.213 0.716 0.198 1.089-0.009 0.157 0.032 0.313 0.119 0.444s0.213 0.231 0.361 0.284c0.351 0.12 0.672 0.317 0.939 0.576s0.473 0.573 0.604 0.92c0.131 0.348 0.184 0.72 0.156 1.090s-0.139 0.73-0.323 1.053c-0.086 0.155-0.112 0.335-0.075 0.508s0.137 0.326 0.279 0.431c0.301 0.222 0.549 0.507 0.727 0.836s0.281 0.693 0.302 1.066c0.021 0.373-0.041 0.747-0.181 1.093s-0.355 0.658-0.629 0.912c-0.115 0.106-0.192 0.246-0.221 0.399s-0.008 0.312 0.060 0.452c0.154 0.314 0.241 0.657 0.256 1.006s-0.043 0.698-0.169 1.024c-0.146 0.372-0.376 0.704-0.673 0.97s-0.652 0.46-1.037 0.565c-0.169 0.048-0.316 0.155-0.412 0.302s-0.136 0.324-0.112 0.498c0.055 0.369 0.028 0.747-0.080 1.104s-0.293 0.687-0.542 0.965-0.557 0.498-0.901 0.643c-0.344 0.145-0.716 0.213-1.089 0.198-0.157-0.009-0.313 0.033-0.444 0.119s-0.231 0.213-0.284 0.361c-0.12 0.351-0.317 0.672-0.576 0.939s-0.573 0.473-0.92 0.604c-0.347 0.131-0.72 0.184-1.090 0.156s-0.73-0.14-1.053-0.323c-0.155-0.086-0.335-0.113-0.508-0.075s-0.326 0.136-0.431 0.279c-0.222 0.301-0.507 0.549-0.836 0.727s-0.693 0.281-1.066 0.302c-0.373 0.021-0.747-0.041-1.093-0.181s-0.658-0.355-0.912-0.629c-0.068-0.073-0.15-0.131-0.241-0.172s-0.19-0.061-0.29-0.061c-0.111-0.001-0.22 0.024-0.32 0.073-0.314 0.154-0.657 0.241-1.006 0.256s-0.698-0.043-1.024-0.169c-0.371-0.146-0.704-0.376-0.97-0.673s-0.46-0.652-0.565-1.037c-0.048-0.169-0.155-0.316-0.302-0.412s-0.324-0.136-0.498-0.112c-0.369 0.055-0.747 0.028-1.104-0.080s-0.687-0.293-0.965-0.542c-0.278-0.249-0.498-0.557-0.643-0.901s-0.213-0.716-0.198-1.089c0.009-0.157-0.032-0.313-0.119-0.444s-0.213-0.231-0.361-0.284c-0.351-0.12-0.672-0.317-0.939-0.576s-0.473-0.573-0.605-0.92c-0.131-0.347-0.184-0.72-0.155-1.090s0.139-0.73 0.323-1.053c0.086-0.155 0.113-0.335 0.075-0.508s-0.137-0.326-0.279-0.431c-0.301-0.222-0.549-0.507-0.727-0.836s-0.281-0.693-0.302-1.066c-0.021-0.373 0.041-0.747 0.181-1.093s0.355-0.658 0.629-0.912z"></path>
<path stroke-linejoin="miter" stroke-linecap="butt" stroke-miterlimit="4" stroke-width="0.3765" stroke="#000" fill="#000" d="M15.062 26.364c2.053 0 4.061-0.609 5.768-1.75s3.038-2.762 3.824-4.659c0.786-1.897 0.991-3.985 0.591-5.999s-1.389-3.864-2.841-5.316c-1.452-1.452-3.302-2.441-5.316-2.841s-4.101-0.195-5.999 0.591-3.519 2.117-4.659 3.824c-1.141 1.707-1.75 3.715-1.75 5.768 0 2.754 1.094 5.394 3.041 7.341s4.588 3.041 7.341 3.041zM15.062 7.443c1.689 0 3.34 0.501 4.744 1.439s2.498 2.272 3.145 3.832c0.646 1.56 0.815 3.277 0.486 4.933s-1.143 3.178-2.337 4.372c-1.194 1.194-2.716 2.007-4.372 2.337s-3.373 0.16-4.933-0.486c-1.56-0.646-2.894-1.741-3.832-3.145s-1.439-3.055-1.439-4.744c0-2.265 0.9-4.436 2.501-6.038s3.773-2.501 6.038-2.501z"></path>
</svg>
