<!-- Generated by IcoMoon.io -->
<svg version="1.1" xmlns="http://www.w3.org/2000/svg" width="32" height="32" viewBox="0 0 32 32">
<title>puzzle</title>
<path d="M13.028 1.761c-1.837 0.193-3.396 1.614-3.772 3.437-0.051 0.287-0.081 0.617-0.082 0.955v0.559l-4.401 0.038-0.426 0.143c-0.598 0.197-1.108 0.523-1.517 0.947l-0.001 0.001c-0.477 0.477-0.805 1.024-0.972 1.626-0.115 0.412-0.119 0.508-0.122 3.039-0.001 2.015 0.014 2.657 0.067 2.808 0.11 0.31 0.357 0.612 0.635 0.774l0.256 0.151 2.56 0.055 0.347 0.164c0.883 0.42 1.408 1.38 1.276 2.337-0.101 0.742-0.709 1.539-1.367 1.793-0.278 0.108-0.439 0.123-1.563 0.152-1.407 0.037-1.513 0.063-1.865 0.463-0.36 0.41-0.348 0.306-0.348 3.195 0 2.938 0.003 2.964 0.374 3.732 0.368 0.779 0.981 1.392 1.738 1.751l0.022 0.009c0.768 0.371 0.795 0.374 3.734 0.374 2.892 0 2.783 0.012 3.199-0.353 0.113-0.099 0.26-0.3 0.329-0.447 0.111-0.241 0.124-0.344 0.125-1.041 0-0.012 0-0.027 0-0.042 0-0.388 0.020-0.772 0.059-1.15l-0.004 0.047c0.27-1.864 2.479-2.655 3.845-1.377 0.142 0.133 0.324 0.378 0.404 0.541 0.145 0.297 0.147 0.317 0.174 1.581l0.028 1.28 0.15 0.256c0.163 0.278 0.465 0.525 0.774 0.635 0.287 0.101 5.234 0.099 5.688-0.004 1.257-0.283 2.341-1.284 2.753-2.541 0.118-0.361 0.123-0.449 0.142-2.6l0.019-2.227h0.558c1.295 0 2.341-0.442 3.21-1.356 0.902-0.95 1.316-2.179 1.18-3.51-0.172-1.678-1.345-3.101-3.009-3.648-0.353-0.116-0.557-0.145-1.183-0.166l-0.756-0.027-0.019-2.193-0.019-2.194-0.143-0.426c-0.193-0.586-0.511-1.085-0.923-1.488l-0.001-0.001c-0.403-0.414-0.903-0.731-1.463-0.917l-0.026-0.007-0.426-0.143-4.401-0.038v-0.579c0-0.667-0.096-1.192-0.314-1.709-0.479-1.139-1.558-2.129-2.726-2.5-0.294-0.093-1.19-0.233-1.359-0.211l-0.439 0.047zM14.267 4.451c0.364 0.168 0.703 0.521 0.899 0.936l0.165 0.347 0.028 1.28c0.033 1.422 0.054 1.51 0.436 1.878 0.385 0.369 0.305 0.36 3.382 0.389l2.778 0.027 0.223 0.147c0.122 0.081 0.288 0.247 0.369 0.369l0.147 0.223 0.027 2.778c0.029 3.077 0.020 2.996 0.389 3.382 0.367 0.383 0.456 0.403 1.878 0.439 1.44 0.036 1.629 0.077 2.088 0.453 0.817 0.669 0.852 1.901 0.076 2.668-0.472 0.467-0.838 0.553-2.365 0.554-1.126 0.001-1.258 0.031-1.603 0.364-0.113 0.109-0.256 0.293-0.32 0.411-0.113 0.21-0.116 0.269-0.142 3.013l-0.027 2.801-0.129 0.225c-0.159 0.26-0.403 0.454-0.693 0.547l-0.009 0.002c-0.101 0.029-0.928 0.052-1.864 0.052h-1.683l-0.061-0.76c-0.063-0.777-0.175-1.224-0.44-1.747-0.499-0.992-1.53-1.862-2.643-2.234-1.796-0.599-3.698-0.161-4.998 1.151-0.85 0.858-1.33 1.894-1.416 3.057l-0.036 0.507h-3.583l-0.261-0.161c-0.171-0.11-0.312-0.251-0.419-0.417l-0.003-0.005-0.161-0.261v-3.581l0.667-0.033c0.366-0.018 0.822-0.073 1.010-0.124 1.382-0.369 2.568-1.449 3.132-2.857 0.271-0.673 0.311-0.914 0.308-1.839-0.003-0.814-0.010-0.877-0.172-1.361-0.273-0.813-0.595-1.331-1.212-1.946-0.598-0.598-1.074-0.902-1.802-1.151-0.419-0.143-1.201-0.264-1.716-0.264h-0.242l0.001-1.667c0-0.951 0.023-1.748 0.054-1.86 0.077-0.276 0.26-0.525 0.524-0.712l0.23-0.161 2.81-0.027c2.752-0.026 2.813-0.029 3.025-0.142 0.293-0.157 0.644-0.549 0.713-0.799 0.031-0.114 0.058-0.65 0.058-1.193 0.001-1.111 0.047-1.495 0.224-1.851 0.146-0.292 0.492-0.662 0.742-0.794 0.488-0.256 1.135-0.276 1.62-0.051z"></path>
</svg>
