<!-- Generated by IcoMoon.io -->
<svg version="1.1" xmlns="http://www.w3.org/2000/svg" width="32" height="32" viewBox="0 0 32 32">
<title>question-circle</title>
<path d="M14.864 21.264c-0.069 0.076-0.133 0.156-0.192 0.24-0.061 0.089-0.109 0.186-0.144 0.288-0.046 0.091-0.079 0.188-0.096 0.288-0.008 0.106-0.008 0.213 0 0.32-0.005 0.21 0.038 0.418 0.128 0.608 0.072 0.199 0.187 0.379 0.336 0.528s0.33 0.264 0.528 0.336c0.191 0.085 0.399 0.128 0.608 0.128s0.417-0.044 0.608-0.128c0.199-0.072 0.379-0.187 0.528-0.336s0.264-0.33 0.336-0.528c0.071-0.195 0.104-0.401 0.096-0.608 0.001-0.211-0.039-0.419-0.119-0.614s-0.197-0.372-0.345-0.522c-0.149-0.15-0.326-0.269-0.521-0.35s-0.404-0.123-0.615-0.123c-0.211 0-0.42 0.042-0.615 0.123s-0.372 0.2-0.521 0.35zM16 0c-3.165 0-6.258 0.938-8.889 2.696s-4.682 4.257-5.893 7.181c-1.211 2.924-1.528 6.141-0.91 9.244s2.141 5.955 4.379 8.192c2.238 2.238 5.089 3.762 8.192 4.379s6.321 0.301 9.244-0.91c2.924-1.211 5.423-3.262 7.181-5.893s2.697-5.725 2.697-8.889c0-2.101-0.414-4.182-1.218-6.123s-1.983-3.705-3.468-5.191c-1.486-1.486-3.25-2.664-5.191-3.468s-4.022-1.218-6.123-1.218zM16 28.8c-2.532 0-5.006-0.751-7.111-2.157s-3.746-3.406-4.714-5.744c-0.969-2.339-1.222-4.913-0.728-7.396s1.713-4.764 3.503-6.554c1.79-1.79 4.071-3.009 6.554-3.503s5.057-0.24 7.395 0.728c2.339 0.969 4.338 2.609 5.744 4.714s2.157 4.58 2.157 7.111c0 3.395-1.349 6.651-3.749 9.051s-5.656 3.749-9.051 3.749zM16 8c-0.843-0.001-1.671 0.221-2.402 0.642s-1.337 1.027-1.758 1.758c-0.116 0.182-0.194 0.386-0.229 0.599s-0.027 0.431 0.025 0.64c0.051 0.21 0.145 0.407 0.274 0.579s0.293 0.317 0.479 0.425 0.394 0.177 0.608 0.203c0.214 0.026 0.431 0.008 0.639-0.052s0.4-0.162 0.567-0.298 0.305-0.306 0.405-0.497c0.141-0.244 0.344-0.447 0.588-0.587s0.522-0.214 0.804-0.213c0.424 0 0.831 0.169 1.131 0.469s0.469 0.707 0.469 1.131-0.169 0.831-0.469 1.131c-0.3 0.3-0.707 0.469-1.131 0.469s-0.831 0.168-1.131 0.469c-0.3 0.3-0.469 0.707-0.469 1.131v1.6c0 0.424 0.169 0.831 0.469 1.131s0.707 0.469 1.131 0.469 0.831-0.169 1.131-0.469c0.3-0.3 0.469-0.707 0.469-1.131v-0.288c1.058-0.384 1.948-1.128 2.513-2.101s0.771-2.114 0.58-3.224c-0.191-1.109-0.765-2.117-1.623-2.845s-1.945-1.133-3.070-1.142z"></path>
</svg>
