<!-- Generated by IcoMoon.io -->
<svg version="1.1" xmlns="http://www.w3.org/2000/svg" width="32" height="32" viewBox="0 0 32 32">
<title>scooter</title>
<path d="M16.586 4.396c-0.407 0.202-0.569 0.467-0.569 0.927 0 0.296 0.024 0.393 0.144 0.573 0.096 0.135 0.21 0.248 0.342 0.34l0.005 0.003c0.204 0.126 0.21 0.126 2.129 0.142l1.923 0.016 2.532 7.596-6.54 8.417-7.025 0.008v-0.126c0-0.236-0.214-0.97-0.397-1.354-0.618-1.307-1.767-2.276-3.161-2.639l-0.034-0.007c-0.349-0.076-0.75-0.12-1.162-0.12s-0.813 0.044-1.199 0.127l0.037-0.007c-1.708 0.447-3.029 1.756-3.485 3.423l-0.008 0.034c-0.098 0.355-0.118 0.567-0.118 1.23 0.002 0.713 0.018 0.851 0.144 1.27 0.415 1.362 1.29 2.408 2.51 3.003 0.787 0.383 1.202 0.475 2.145 0.473 0.719 0 0.851-0.016 1.28-0.146 1.368-0.402 2.461-1.355 3.042-2.596l0.012-0.030 0.182-0.397 4.018-0.014c3.806-0.014 4.028-0.020 4.22-0.114 0.16-0.080 0.815-0.889 3.253-4.020 1.407-1.833 2.418-3.108 3.441-4.373l-0.356 0.455c0.018 0 0.208 0.531 0.425 1.182 0.331 0.998 0.381 1.19 0.312 1.228-0.25 0.14-0.761 0.571-0.99 0.835-1.488 1.723-1.643 4.088-0.389 5.935 0.3 0.443 0.859 0.99 1.322 1.292 0.74 0.491 1.649 0.783 2.627 0.783 2.651 0 4.799-2.149 4.799-4.799 0-1.314-0.528-2.504-1.383-3.371l0 0.001c-0.861-0.873-1.961-1.35-3.261-1.414l-0.625-0.030-2.221-6.656c-1.234-3.7-2.271-6.724-2.334-6.811-0.107-0.115-0.235-0.209-0.379-0.275l-0.007-0.003-0.27-0.126-4.653-0.002-0.28 0.14zM5.284 20.339c0.507 0.092 0.965 0.341 1.364 0.739 1.474 1.474 0.779 3.94-1.258 4.463-0.183 0.045-0.394 0.071-0.611 0.071-0.924 0-1.738-0.469-2.218-1.181l-0.006-0.009c-0.699-1.1-0.563-2.438 0.343-3.343 0.47-0.489 1.13-0.793 1.861-0.793 0.186 0 0.367 0.020 0.542 0.057l-0.017-0.003zM27.719 20.339c0.901 0.164 1.701 0.859 2.005 1.745 0.331 0.961 0.074 2.027-0.659 2.758-0.473 0.48-1.131 0.778-1.858 0.778-0.735 0-1.399-0.304-1.873-0.793l-0.001-0.001c-0.488-0.476-0.791-1.139-0.791-1.874s0.303-1.398 0.79-1.873l0.001-0.001c0.47-0.489 1.13-0.793 1.861-0.793 0.186 0 0.367 0.020 0.542 0.057l-0.017-0.003z"></path>
</svg>
