<!-- Generated by IcoMoon.io -->
<svg version="1.1" xmlns="http://www.w3.org/2000/svg" width="32" height="32" viewBox="0 0 32 32">
<title>spanner</title>
<path d="M26.494 27.587l1.074-1.074-12.201-12.24c0.46-0.588 0.825-1.247 1.094-1.977 0.268-0.729 0.402-1.502 0.402-2.321 0-1.918-0.671-3.543-2.014-4.873-1.343-1.33-2.974-1.995-4.893-1.995h-0.384l4.719 4.719-3.261 3.223-3.261 3.261-4.719-4.719v0.422c0 1.918 0.671 3.543 2.014 4.873 1.343 1.33 2.974 1.995 4.893 1.995 0.819 0 1.599-0.135 2.341-0.404 0.742-0.268 1.407-0.645 1.995-1.131l12.201 12.24zM26.571 32l-12.815-12.777c-0.588 0.23-1.196 0.409-1.822 0.537-0.627 0.128-1.273 0.192-1.938 0.192-2.788 0-5.148-0.966-7.078-2.898-1.932-1.931-2.898-4.29-2.898-7.078 0-1.074 0.16-2.11 0.48-3.108 0.319-0.998 0.786-1.918 1.4-2.763l5.87 5.87 2.187-2.149-5.87-5.909c0.87-0.639 1.803-1.119 2.801-1.44 0.998-0.319 2.021-0.479 3.070-0.479 2.788 0 5.148 0.965 7.080 2.896 1.931 1.932 2.896 4.292 2.896 7.080 0 0.665-0.064 1.323-0.192 1.975s-0.32 1.273-0.576 1.862l12.815 12.777-5.41 5.41z"></path>
</svg>
