<!-- Generated by IcoMoon.io -->
<svg version="1.1" xmlns="http://www.w3.org/2000/svg" width="34" height="32" viewBox="0 0 34 32">
<title>stopwatch</title>
<path d="M18.44 16.349v-5.914c0-0.465-0.158-0.856-0.473-1.171s-0.705-0.473-1.17-0.471c-0.465 0-0.856 0.158-1.171 0.473s-0.473 0.705-0.472 1.17v6.53c0 0.219 0.041 0.432 0.123 0.637s0.205 0.391 0.37 0.554l4.6 4.6c0.301 0.301 0.685 0.452 1.15 0.452s0.849-0.151 1.15-0.452c0.301-0.301 0.452-0.684 0.452-1.15s-0.151-0.849-0.452-1.15l-4.107-4.107zM16.797 31.791c-2.053 0-3.977-0.39-5.771-1.171s-3.354-1.834-4.682-3.161c-1.327-1.328-2.381-2.889-3.161-4.682s-1.17-3.716-1.171-5.771c0-2.053 0.39-3.977 1.171-5.771s1.834-3.354 3.161-4.682c1.328-1.327 2.889-2.381 4.682-3.161s3.716-1.17 5.771-1.171c2.053 0 3.977 0.39 5.771 1.171s3.354 1.835 4.682 3.162c1.327 1.327 2.381 2.888 3.162 4.682s1.171 3.717 1.17 5.769c0 2.053-0.39 3.977-1.171 5.771s-1.834 3.354-3.161 4.682c-1.328 1.327-2.889 2.381-4.682 3.162s-3.716 1.171-5.771 1.17zM0.452 7.643c-0.301-0.301-0.452-0.684-0.452-1.15s0.151-0.849 0.452-1.15l4.682-4.682c0.301-0.301 0.684-0.452 1.15-0.452s0.849 0.151 1.15 0.452c0.301 0.301 0.452 0.684 0.452 1.15s-0.151 0.849-0.452 1.15l-4.682 4.682c-0.301 0.301-0.684 0.452-1.15 0.452s-0.849-0.151-1.15-0.452zM33.142 7.643c-0.301 0.301-0.684 0.452-1.15 0.452s-0.849-0.151-1.15-0.452l-4.682-4.682c-0.301-0.301-0.452-0.684-0.452-1.15s0.151-0.849 0.452-1.15c0.301-0.301 0.685-0.452 1.15-0.452s0.849 0.151 1.15 0.452l4.682 4.682c0.301 0.301 0.452 0.684 0.452 1.15s-0.151 0.849-0.452 1.15zM16.797 28.505c3.203 0 5.921-1.116 8.153-3.348s3.347-4.949 3.346-8.151c0-3.203-1.116-5.921-3.348-8.153s-4.949-3.347-8.151-3.346c-3.203 0-5.921 1.116-8.153 3.348s-3.347 4.949-3.346 8.151c0 3.203 1.116 5.921 3.348 8.153s4.949 3.347 8.151 3.346z"></path>
</svg>
