<!-- Generated by IcoMoon.io -->
<svg version="1.1" xmlns="http://www.w3.org/2000/svg" width="32" height="32" viewBox="0 0 32 32">
<title>talk</title>
<path d="M14.154 15.995c0 0.365 0.108 0.722 0.311 1.026s0.491 0.54 0.829 0.68c0.337 0.14 0.708 0.176 1.067 0.105s0.687-0.247 0.945-0.505 0.434-0.587 0.505-0.945c0.071-0.358 0.035-0.729-0.105-1.067s-0.376-0.626-0.68-0.829c-0.304-0.203-0.661-0.311-1.026-0.311-0.49 0-0.959 0.194-1.305 0.541s-0.541 0.816-0.541 1.305zM22.769 14.149c0.365 0 0.722 0.108 1.026 0.311s0.54 0.491 0.68 0.829c0.14 0.337 0.176 0.709 0.105 1.067s-0.247 0.687-0.505 0.945c-0.258 0.258-0.587 0.434-0.945 0.505s-0.729 0.035-1.067-0.105-0.626-0.376-0.828-0.68c-0.203-0.304-0.311-0.661-0.311-1.026 0-0.49 0.194-0.959 0.541-1.305s0.816-0.541 1.306-0.541zM9.231 14.149c0.365 0 0.722 0.108 1.026 0.311s0.54 0.491 0.68 0.829c0.14 0.337 0.176 0.709 0.105 1.067s-0.247 0.687-0.505 0.945c-0.258 0.258-0.587 0.434-0.945 0.505s-0.729 0.035-1.067-0.105-0.626-0.376-0.829-0.68c-0.203-0.304-0.311-0.661-0.311-1.026 0-0.49 0.194-0.959 0.541-1.305s0.816-0.541 1.305-0.541zM0 15.995c-0.001 2.762 0.714 5.478 2.074 7.882s3.32 4.415 5.688 5.838c2.368 1.422 5.064 2.207 7.825 2.278s5.494-0.574 7.932-1.872l5.239 1.746c0.434 0.145 0.899 0.166 1.344 0.061s0.852-0.332 1.175-0.655c0.323-0.323 0.55-0.73 0.655-1.175s0.084-0.91-0.061-1.344l-1.746-5.238c1.141-2.146 1.779-4.523 1.864-6.952s-0.384-4.845-1.372-7.066c-0.988-2.22-2.469-4.187-4.331-5.749s-4.054-2.681-6.413-3.269c-2.358-0.589-4.819-0.632-7.197-0.128s-4.609 1.544-6.524 3.040c-1.916 1.496-3.466 3.408-4.532 5.592s-1.621 4.582-1.622 7.013zM2.462 15.995c0.001-2.077 0.479-4.126 1.398-5.988s2.254-3.488 3.902-4.752c1.648-1.264 3.565-2.131 5.602-2.536s4.14-0.335 6.145 0.203c2.006 0.538 3.861 1.531 5.422 2.901s2.786 3.081 3.579 4.999c0.794 1.919 1.136 3.995 0.999 6.067s-0.748 4.085-1.788 5.883c-0.087 0.151-0.141 0.319-0.159 0.492s0.002 0.349 0.057 0.514l1.918 5.754-5.754-1.918c-0.125-0.043-0.257-0.065-0.389-0.065-0.216 0-0.428 0.058-0.615 0.166-2.058 1.191-4.394 1.819-6.771 1.82s-4.714-0.623-6.774-1.811c-2.060-1.188-3.77-2.898-4.959-4.957s-1.815-4.395-1.814-6.773z"></path>
</svg>
