<!-- Generated by IcoMoon.io -->
<svg version="1.1" xmlns="http://www.w3.org/2000/svg" width="34" height="32" viewBox="0 0 34 32">
<title>target</title>
<path d="M15.552 0.376c-0.502 0.038-1.501 0.194-2.134 0.334-4.5 0.995-8.465 4.066-10.524 8.151-1.179 2.34-1.714 4.566-1.715 7.139-0.002 4.227 1.638 8.163 4.639 11.132 2.526 2.499 5.659 4.007 9.251 4.451 1.311 0.162 3.267 0.091 4.637-0.17 3.009-0.572 5.741-1.969 7.904-4.041 2.605-2.496 4.164-5.482 4.734-9.067 0.208-1.306 0.199-3.919-0.015-4.414-0.316-0.731-1.191-1.086-1.9-0.77-0.267 0.119-0.635 0.483-0.744 0.737-0.044 0.102-0.068 0.706-0.073 1.864-0.008 1.837-0.043 2.154-0.381 3.514-0.374 1.505-1.161 3.127-2.183 4.504-0.485 0.653-1.75 1.935-2.374 2.406-1.718 1.297-3.59 2.114-5.727 2.5-0.795 0.143-2.651 0.202-3.434 0.108-3.090-0.371-5.719-1.644-7.8-3.775-0.993-1.017-1.567-1.806-2.209-3.034-0.771-1.474-1.187-2.823-1.379-4.467-0.386-3.297 0.533-6.615 2.575-9.304 0.459-0.604 1.404-1.574 2.025-2.077 1.601-1.299 3.597-2.249 5.535-2.636 1.134-0.227 1.804-0.277 3.165-0.237 1.457 0.043 1.564 0.022 1.981-0.385 0.22-0.214 0.311-0.355 0.379-0.587 0.112-0.382 0.112-0.483-0.003-0.839-0.206-0.636-0.649-0.932-1.525-1.018-0.509-0.050-2.14-0.060-2.706-0.017zM25.74 0.475c-0.21 0.105-0.906 0.769-2.839 2.709-2.301 2.309-2.571 2.599-2.653 2.847-0.078 0.237-0.092 0.592-0.092 2.471v2.194l-2.402 2.4-0.273-0.041c-0.15-0.023-0.475-0.040-0.723-0.038-1.771 0.014-3.157 1.65-2.897 3.419 0.212 1.441 1.538 2.595 2.981 2.595 0.371 0 0.955-0.137 1.329-0.312 0.45-0.211 1.177-0.942 1.39-1.398 0.283-0.608 0.368-1.229 0.253-1.852l-0.061-0.328 2.45-2.452h2.174c2.030 0 2.194-0.007 2.471-0.111 0.267-0.1 0.556-0.371 2.887-2.709 2.885-2.894 2.814-2.804 2.759-3.485-0.016-0.194-0.067-0.428-0.115-0.519-0.133-0.255-0.435-0.536-0.714-0.666-0.237-0.11-0.364-0.119-2.061-0.136l-1.808-0.018-0.017-1.807c-0.016-1.699-0.024-1.822-0.135-2.059-0.339-0.726-1.215-1.049-1.906-0.704zM25.078 7.159c0.159 0.294 0.381 0.5 0.693 0.641 0.216 0.098 0.37 0.115 1.066 0.116l0.814 0.001-1.907 1.909h-2.724v-2.722l1.881-1.884 0.028 0.857c0.024 0.738 0.045 0.888 0.149 1.082zM15.945 6.324c-1.045 0.15-1.859 0.368-2.611 0.7-3.029 1.339-5.059 4.008-5.562 7.312-0.365 2.4 0.42 5.218 1.987 7.125 1.848 2.249 4.426 3.482 7.279 3.481 0.898-0 1.51-0.075 2.276-0.279 1.667-0.443 3.020-1.194 4.175-2.315 1.76-1.709 2.753-3.858 2.88-6.232 0.041-0.757-0.031-1.069-0.328-1.43-0.49-0.595-1.512-0.644-2.086-0.1-0.29 0.275-0.383 0.539-0.437 1.243-0.109 1.428-0.42 2.369-1.133 3.425-2.045 3.032-6.298 3.745-9.22 1.545-2.783-2.095-3.424-5.962-1.47-8.869 0.366-0.544 1.134-1.292 1.751-1.706 0.997-0.668 1.921-0.978 3.197-1.073 0.598-0.044 0.78-0.080 1.023-0.199 0.837-0.409 1.055-1.456 0.456-2.184-0.097-0.118-0.305-0.274-0.462-0.347-0.251-0.117-0.361-0.132-0.93-0.125-0.355 0.004-0.709 0.016-0.786 0.027z"></path>
</svg>
