<!-- Generated by IcoMoon.io -->
<svg version="1.1" xmlns="http://www.w3.org/2000/svg" width="32" height="32" viewBox="0 0 32 32">
<title>times</title>
<path d="M18.7 15.998l8.233-8.214c0.36-0.36 0.563-0.85 0.563-1.359s-0.203-0.999-0.563-1.359c-0.36-0.36-0.85-0.563-1.359-0.563s-0.999 0.203-1.359 0.563l-8.214 8.233-8.214-8.233c-0.36-0.36-0.85-0.563-1.359-0.563s-0.999 0.203-1.359 0.563c-0.36 0.361-0.563 0.85-0.563 1.359s0.203 0.999 0.563 1.359l8.233 8.214-8.233 8.214c-0.179 0.178-0.322 0.39-0.419 0.623s-0.147 0.484-0.147 0.736c0 0.253 0.050 0.503 0.147 0.737s0.239 0.445 0.419 0.623c0.178 0.18 0.39 0.322 0.623 0.419s0.484 0.147 0.737 0.147 0.503-0.050 0.737-0.147c0.234-0.097 0.445-0.239 0.623-0.419l8.214-8.233 8.214 8.233c0.178 0.18 0.39 0.322 0.623 0.419s0.484 0.147 0.737 0.147 0.503-0.050 0.737-0.147c0.233-0.097 0.445-0.239 0.623-0.419 0.179-0.178 0.322-0.39 0.419-0.623s0.147-0.484 0.147-0.737c0-0.253-0.050-0.503-0.147-0.736s-0.24-0.445-0.419-0.623l-8.233-8.214z"></path>
</svg>
