<!-- Generated by IcoMoon.io -->
<svg version="1.1" xmlns="http://www.w3.org/2000/svg" width="32" height="32" viewBox="0 0 32 32">
<title>train</title>
<path d="M13.877 0.038c-1.135 0.040-3.338 0.233-4.145 0.361-2.772 0.445-4.574 1.241-5.851 2.59-0.566 0.567-0.978 1.287-1.169 2.093l-0.006 0.030-0.152 0.574v18.128l0.187 0.591c0.684 2.293 2.672 3.977 5.084 4.201l0.023 0.002 0.536 0.043-0.569 0.589c-0.74 0.768-0.839 1.072-0.579 1.769 0.232 0.622 0.758 0.996 1.398 0.991 0.591-0.003 0.814-0.164 2.479-1.82l1.554-1.547h6.73l1.62 1.61c1.337 1.329 1.665 1.625 1.888 1.686 0.847 0.23 1.617-0.142 1.878-0.907 0.238-0.695 0.124-1.026-0.601-1.782l-0.569-0.589 0.536-0.043c2.434-0.23 4.42-1.912 5.097-4.161l0.011-0.042 0.187-0.591v-9.098c0-9.957 0.020-9.381-0.384-10.412-0.703-1.789-2.608-3.098-5.391-3.7-2.194-0.473-6.086-0.7-9.793-0.566zM20.177 3.493c1.276 0.106 2.244 0.255 3.101 0.48 0.804 0.212 1.706 0.607 2.055 0.897l0.202 0.169-9.434 0.003c-10.397 0-9.644 0.033-8.795-0.397 1.307-0.665 3.245-1.072 5.797-1.216 1.289-0.073 5.934-0.030 7.074 0.063zM14.314 10.943v2.527h-8.423v-5.054h8.423v2.527zM26.109 10.943v2.527h-8.423v-5.054h8.423v2.527zM26.096 20.127l-0.020 3.285-0.22 0.445c-0.26 0.528-0.682 0.943-1.218 1.193l-0.382 0.179h-16.513l-0.382-0.179c-0.534-0.251-0.956-0.666-1.211-1.178l-0.007-0.015-0.22-0.445-0.020-3.285-0.020-3.288h20.233l-0.020 3.288zM9.477 18.59c-0.692 0.147-1.36 0.7-1.688 1.405-0.157 0.334-0.179 0.468-0.179 1.056 0 0.627 0.015 0.708 0.22 1.12 0.258 0.528 0.682 0.943 1.218 1.193 0.334 0.157 0.468 0.179 1.056 0.179s0.72-0.023 1.056-0.179c0.536-0.25 0.958-0.665 1.218-1.193 0.202-0.412 0.217-0.493 0.217-1.12 0-0.629-0.015-0.71-0.217-1.122-0.377-0.801-1.168-1.35-2.089-1.375h-0.003c-0.068-0.004-0.148-0.006-0.229-0.006-0.205 0-0.406 0.015-0.602 0.045l0.022-0.003zM21.272 18.59c-0.692 0.147-1.36 0.7-1.688 1.405-0.157 0.334-0.179 0.468-0.179 1.056 0 0.627 0.015 0.708 0.217 1.12 0.26 0.528 0.682 0.943 1.218 1.193 0.336 0.157 0.468 0.179 1.056 0.179s0.723-0.023 1.056-0.179c0.536-0.25 0.96-0.665 1.218-1.193 0.205-0.412 0.22-0.493 0.22-1.12 0-0.629-0.015-0.71-0.22-1.122-0.376-0.802-1.167-1.352-2.090-1.375h-0.003c-0.068-0.004-0.148-0.006-0.228-0.006-0.204 0-0.404 0.015-0.6 0.045l0.022-0.003z"></path>
</svg>
