<!-- Generated by IcoMoon.io -->
<svg version="1.1" xmlns="http://www.w3.org/2000/svg" width="32" height="32" viewBox="0 0 32 32">
<title>transports</title>
<path d="M14.68 2.665v1.334h2.642c1.452 0 2.642 0.010 2.642 0.021s0.323 0.903 0.721 1.984c0.396 1.079 0.721 1.971 0.721 1.981s-2.561 0.018-5.69 0.018c-3.153 0-5.682 0.021-5.672 0.046s0.367 0.625 0.791 1.334l0.773 1.289h8.399l-0.243 0.36c-0.135 0.197-0.322 0.528-0.416 0.733-0.178 0.383-0.504 1.353-0.504 1.496 0 0.069-0.357 0.078-2.801 0.078h-2.801l1.605 2.669h1.998c1.669 0 1.998 0.013 1.998 0.074 0 0.184 0.295 1.065 0.503 1.507 0.683 1.395 1.798 2.49 3.168 3.131l0.041 0.017c1.502 0.703 3.366 0.799 4.979 0.258 1.574-0.528 3.049-1.832 3.824-3.377 0.464-0.929 0.642-1.745 0.642-2.943 0-0.954-0.054-1.342-0.296-2.090-0.549-1.693-1.882-3.187-3.545-3.975-0.902-0.428-1.84-0.607-3.18-0.609h-0.725l-0.922-2.522c-0.508-1.387-0.986-2.642-1.065-2.788-0.327-0.62-1.092-1.177-1.79-1.305-0.2-0.035-1.326-0.058-3.057-0.058h-2.738v1.336zM26.4 10.806c1.332 0.343 2.468 1.486 2.834 2.854 0.128 0.477 0.128 1.552 0 2.029-0.379 1.363-1.411 2.422-2.73 2.83l-0.029 0.008c-0.336 0.104-0.516 0.125-1.121 0.125s-0.785-0.021-1.121-0.125c-1.347-0.416-2.38-1.475-2.751-2.809l-0.007-0.029c-0.127-0.477-0.128-1.504-0.003-1.974 0.157-0.591 0.541-1.3 0.919-1.699 0.186-0.197 0.349-0.344 0.363-0.33s0.293 0.769 0.621 1.677c0.327 0.908 0.612 1.678 0.633 1.713 0.027 0.043 0.399-0.067 1.251-0.373 0.666-0.239 1.228-0.448 1.247-0.468 0.029-0.029-0.519-1.595-1.132-3.238l-0.128-0.341 0.418 0.035c0.231 0.019 0.56 0.070 0.735 0.115zM0 13.339v1.336h2.669v4.003h-2.669v2.668h16.014v2.669h-3.693l-0.355-0.325c-0.381-0.349-1.195-0.785-1.681-0.9-0.695-0.163-1.59-0.119-2.205 0.112-0.368 0.138-1.084 0.573-1.433 0.871l-0.283 0.242h-6.362v2.669h5.323l0.037 0.402c0.144 1.6 1.267 2.953 2.86 3.449 0.58 0.179 1.664 0.179 2.242 0 1.593-0.496 2.716-1.85 2.862-3.449l0.037-0.402h1.462c1.134 0 1.547-0.019 1.83-0.083 0.897-0.205 1.697-0.986 1.933-1.888 0.077-0.295 0.091-0.623 0.095-2.034 0.002-1.481-0.010-1.725-0.096-2.040-0.203-0.69-0.651-1.254-1.241-1.602l-0.013-0.007c-0.512-0.307-0.841-0.352-2.511-0.352h-1.468l-3.989-6.646-9.362-0.027v1.334zM9.043 16.677l1.201 2.002h-4.907v-4.003h2.503l1.203 2.002zM9.957 25.498c0.469 0.242 0.69 0.62 0.69 1.187 0 0.565-0.216 0.937-0.692 1.191-0.301 0.16-0.927 0.16-1.228 0-0.476-0.255-0.692-0.626-0.692-1.191 0-0.653 0.312-1.086 0.932-1.289 0.219-0.072 0.759-0.016 0.99 0.102z"></path>
</svg>
