<svg width="11" height="8" fill="none" xmlns="http://www.w3.org/2000/svg"><path d="M.763.909a1.021 1.021 0 0 0-.737.778.989.989 0 0 0 .145.735c.037.056 1.031 1.062 2.28 2.309C4.349 6.625 4.682 6.95 4.776 6.999a1 1 0 0 0 .95-.009c.116-.061.337-.274 2.353-2.267 1.524-1.507 2.249-2.235 2.299-2.311a.972.972 0 0 0 .137-.731A1.009 1.009 0 0 0 9.539.88c-.16 0-.286.03-.446.105-.156.075.022-.094-2.153 2.048L5.431 4.518l-.188.184-1.828-1.827C1.623 1.086 1.583 1.048 1.448.985A1.005 1.005 0 0 0 .763.909" fill="#fff" fill-rule="evenodd"/></svg>