<svg width="6" height="10" fill="none" xmlns="http://www.w3.org/2000/svg"><path d="M.853.225C.603.293.29.608.225.857a.725.725 0 0 0 0 .286.79.79 0 0 0 .128.252c.031.044.717.738 1.816 1.837L3.935 5 2.169 6.768C1.07 7.867.384 8.561.353 8.605A.625.625 0 0 0 .21 9c0 .185.074.336.253.519.13.133.27.224.393.255.079.02.209.02.288 0a.916.916 0 0 0 .269-.14c.081-.061 4.16-4.14 4.221-4.221A.664.664 0 0 0 5.79 5a.664.664 0 0 0-.156-.413C5.562 4.492 1.489.423 1.4.357a.763.763 0 0 0-.257-.131.726.726 0 0 0-.29-.001" fill-rule="evenodd" fill="#000"/></svg>