<svg width="6" height="10" fill="none" xmlns="http://www.w3.org/2000/svg"><path d="M4.853.225A.823.823 0 0 0 4.6.357C4.497.433.433 4.497.357 4.6.251 4.745.21 4.855.21 5c0 .145.041.255.147.4.066.089 4.135 4.162 4.23 4.234a.916.916 0 0 0 .269.14c.079.02.209.02.288 0 .249-.064.566-.381.63-.63A.689.689 0 0 0 5.79 9a.66.66 0 0 0-.157-.413c-.025-.034-.838-.855-1.807-1.824L2.065 5l1.761-1.762c.969-.97 1.782-1.791 1.807-1.825A.66.66 0 0 0 5.79 1c0-.187-.084-.354-.271-.537a.859.859 0 0 0-.376-.237.726.726 0 0 0-.29-.001" fill-rule="evenodd" fill="#000"/></svg>