<svg width="40" height="40" viewBox="0 0 40 40" fill="none" xmlns="http://www.w3.org/2000/svg">
<g id="u:bell">
<path id="Vector" d="M29.9001 21.9666V22.0373L29.9667 22.0609C30.9199 22.3978 31.7454 23.0214 32.3303 23.846C32.9151 24.6706 33.2306 25.6559 33.2334 26.6669V29.9999C33.2334 30.4154 33.0684 30.8139 32.7745 31.1077C32.4807 31.4015 32.0823 31.5666 31.6667 31.5666H26.4334H26.357L26.3369 31.6404C25.9589 33.0315 25.1336 34.2595 23.9883 35.135C22.8431 36.0106 21.4416 36.4849 20.0001 36.4849C18.5585 36.4849 17.157 36.0106 16.0118 35.135C14.8666 34.2595 14.0413 33.0315 13.6632 31.6404L13.6432 31.5666H13.5667H8.33341C7.91791 31.5666 7.51942 31.4015 7.22561 31.1077C6.93181 30.8139 6.76675 30.4154 6.76675 29.9999V26.6667C6.76962 25.6558 7.08508 24.6706 7.66988 23.846C8.25471 23.0214 9.08028 22.3978 10.0334 22.0609L10.1001 22.0373V21.9666V16.6667C10.1025 14.3288 10.9321 12.0673 12.4421 10.2825C13.952 8.49767 16.0449 7.30483 18.3501 6.91519L18.4334 6.9011V6.81659V4.99992C18.4334 4.58441 18.5985 4.18592 18.8923 3.89212C19.1861 3.59831 19.5846 3.43325 20.0001 3.43325C20.4156 3.43325 20.8141 3.59831 21.1079 3.89212C21.4017 4.18592 21.5667 4.58441 21.5667 4.99992V6.81659V6.9011L21.6501 6.91519C23.9552 7.30483 26.0481 8.49767 27.5581 10.2825C29.0681 12.0673 29.8977 14.3288 29.9001 16.6667V21.9666ZM26.6667 21.7666H26.7667V21.6666V16.6666C26.7667 14.872 26.0538 13.1508 24.7848 11.8818C23.5158 10.6128 21.7947 9.89992 20.0001 9.89992C18.2054 9.89992 16.4843 10.6128 15.2153 11.8818C13.9463 13.1508 13.2334 14.872 13.2334 16.6666V21.6666V21.7666H13.3334H26.6667ZM17.1334 31.5666H16.9602L17.0468 31.7166C17.3464 32.2355 17.7765 32.667 18.2945 32.9681C18.8125 33.2693 19.4003 33.4296 19.9995 33.4333L20.0007 33.4333C20.5998 33.4296 21.1876 33.2693 21.7056 32.9681C22.2236 32.667 22.6538 32.2355 22.9534 31.7166L23.0399 31.5666H22.8667H17.1334ZM30.0001 28.4333H30.1001V28.3333V26.6666C30.1001 26.198 29.914 25.7487 29.5826 25.4174C29.2513 25.086 28.802 24.8999 28.3334 24.8999H11.6667C11.1982 24.8999 10.7488 25.086 10.4175 25.4174C10.0862 25.7487 9.90008 26.198 9.90008 26.6666V28.3333V28.4333H10.0001H30.0001Z" fill="#282A49" stroke="white" stroke-width="0.2"/>
</g>
</svg>
