<svg width="20" height="21" viewBox="0 0 20 21" fill="none" xmlns="http://www.w3.org/2000/svg">
<path d="M15 1.8667H6.66668C5.78262 1.8667 4.93478 2.21789 4.30965 2.84301C3.68453 3.46813 3.33334 4.31598 3.33334 5.20003V15.2C3.33334 16.0841 3.68453 16.9319 4.30965 17.5571C4.93478 18.1822 5.78262 18.5334 6.66668 18.5334H15C15.442 18.5334 15.866 18.3578 16.1785 18.0452C16.4911 17.7327 16.6667 17.3087 16.6667 16.8667V3.53337C16.6667 3.09134 16.4911 2.66742 16.1785 2.35485C15.866 2.04229 15.442 1.8667 15 1.8667ZM5.00001 5.20003C5.00001 4.75801 5.1756 4.33408 5.48817 4.02152C5.80073 3.70896 6.22465 3.53337 6.66668 3.53337H15V11.8667H6.66668C6.07921 11.8692 5.50334 12.0304 5.00001 12.3334V5.20003ZM6.66668 16.8667C6.22465 16.8667 5.80073 16.6911 5.48817 16.3785C5.1756 16.066 5.00001 15.6421 5.00001 15.2C5.00001 14.758 5.1756 14.3341 5.48817 14.0215C5.80073 13.709 6.22465 13.5334 6.66668 13.5334H15V16.8667H6.66668ZM8.33334 6.8667H11.6667C11.8877 6.8667 12.0997 6.7789 12.2559 6.62262C12.4122 6.46634 12.5 6.25438 12.5 6.03337C12.5 5.81235 12.4122 5.60039 12.2559 5.44411C12.0997 5.28783 11.8877 5.20003 11.6667 5.20003H8.33334C8.11233 5.20003 7.90037 5.28783 7.74409 5.44411C7.58781 5.60039 7.50001 5.81235 7.50001 6.03337C7.50001 6.25438 7.58781 6.46634 7.74409 6.62262C7.90037 6.7789 8.11233 6.8667 8.33334 6.8667Z" fill="white"/>
</svg>
