<svg width="48" height="48" viewBox="0 0 48 48" fill="none" xmlns="http://www.w3.org/2000/svg">
<g id="u:calendar-alt">
<path id="Vector" d="M24.1108 37.8784C24.4971 37.8784 24.8747 37.7638 25.196 37.5492C25.5172 37.3346 25.7675 37.0295 25.9154 36.6726C26.0632 36.3157 26.1019 35.9229 26.0265 35.544C25.9512 35.1651 25.7651 34.8171 25.492 34.5439C25.2188 34.2707 24.8707 34.0847 24.4918 34.0093C24.1129 33.9339 23.7202 33.9726 23.3633 34.1205C23.0063 34.2683 22.7013 34.5187 22.4866 34.8399C22.272 35.1611 22.1574 35.5388 22.1574 35.9251C22.1574 36.4431 22.3632 36.94 22.7296 37.3063C23.0959 37.6726 23.5927 37.8784 24.1108 37.8784ZM33.8773 37.8784C34.2636 37.8784 34.6413 37.7638 34.9625 37.5492C35.2837 37.3346 35.5341 37.0295 35.6819 36.6726C35.8298 36.3157 35.8685 35.9229 35.7931 35.544C35.7177 35.1651 35.5317 34.8171 35.2585 34.5439C34.9853 34.2707 34.6373 34.0847 34.2584 34.0093C33.8795 33.9339 33.4867 33.9726 33.1298 34.1205C32.7729 34.2683 32.4678 34.5187 32.2532 34.8399C32.0386 35.1611 31.924 35.5388 31.924 35.9251C31.924 36.4431 32.1298 36.94 32.4961 37.3063C32.8624 37.6726 33.3593 37.8784 33.8773 37.8784ZM33.8773 30.0651C34.2636 30.0651 34.6413 29.9506 34.9625 29.736C35.2837 29.5213 35.5341 29.2163 35.6819 28.8593C35.8298 28.5024 35.8685 28.1097 35.7931 27.7308C35.7177 27.3519 35.5317 27.0038 35.2585 26.7306C34.9853 26.4575 34.6373 26.2714 34.2584 26.1961C33.8795 26.1207 33.4867 26.1594 33.1298 26.3072C32.7729 26.4551 32.4678 26.7054 32.2532 27.0266C32.0386 27.3479 31.924 27.7255 31.924 28.1118C31.924 28.6299 32.1298 29.1267 32.4961 29.493C32.8624 29.8594 33.3593 30.0651 33.8773 30.0651ZM24.1108 30.0651C24.4971 30.0651 24.8747 29.9506 25.196 29.736C25.5172 29.5213 25.7675 29.2163 25.9154 28.8593C26.0632 28.5024 26.1019 28.1097 26.0265 27.7308C25.9512 27.3519 25.7651 27.0038 25.492 26.7306C25.2188 26.4575 24.8707 26.2714 24.4918 26.1961C24.1129 26.1207 23.7202 26.1594 23.3633 26.3072C23.0063 26.4551 22.7013 26.7054 22.4866 27.0266C22.272 27.3479 22.1574 27.7255 22.1574 28.1118C22.1574 28.6299 22.3632 29.1267 22.7296 29.493C23.0959 29.8594 23.5927 30.0651 24.1108 30.0651ZM37.7839 6.6254H35.8306V4.67209C35.8306 4.15404 35.6248 3.65721 35.2585 3.29089C34.8922 2.92458 34.3954 2.71878 33.8773 2.71878C33.3593 2.71878 32.8624 2.92458 32.4961 3.29089C32.1298 3.65721 31.924 4.15404 31.924 4.67209V6.6254H16.2975V4.67209C16.2975 4.15404 16.0917 3.65721 15.7254 3.29089C15.3591 2.92458 14.8622 2.71878 14.3442 2.71878C13.8261 2.71878 13.3293 2.92458 12.963 3.29089C12.5967 3.65721 12.3909 4.15404 12.3909 4.67209V6.6254H10.4376C8.88342 6.6254 7.39292 7.24279 6.29397 8.34174C5.19502 9.44069 4.57764 10.9312 4.57764 12.4853V39.8317C4.57764 41.3859 5.19502 42.8764 6.29397 43.9753C7.39292 45.0743 8.88342 45.6916 10.4376 45.6916H37.7839C39.3381 45.6916 40.8286 45.0743 41.9275 43.9753C43.0265 42.8764 43.6439 41.3859 43.6439 39.8317V12.4853C43.6439 10.9312 43.0265 9.44069 41.9275 8.34174C40.8286 7.24279 39.3381 6.6254 37.7839 6.6254ZM39.7372 39.8317C39.7372 40.3498 39.5315 40.8466 39.1651 41.2129C38.7988 41.5792 38.302 41.785 37.7839 41.785H10.4376C9.91952 41.785 9.42269 41.5792 9.05637 41.2129C8.69005 40.8466 8.48426 40.3498 8.48426 39.8317V22.2519H39.7372V39.8317ZM39.7372 18.3453H8.48426V12.4853C8.48426 11.9673 8.69005 11.4705 9.05637 11.1041C9.42269 10.7378 9.91952 10.532 10.4376 10.532H12.3909V12.4853C12.3909 13.0034 12.5967 13.5002 12.963 13.8665C13.3293 14.2329 13.8261 14.4387 14.3442 14.4387C14.8622 14.4387 15.3591 14.2329 15.7254 13.8665C16.0917 13.5002 16.2975 13.0034 16.2975 12.4853V10.532H31.924V12.4853C31.924 13.0034 32.1298 13.5002 32.4961 13.8665C32.8624 14.2329 33.3593 14.4387 33.8773 14.4387C34.3954 14.4387 34.8922 14.2329 35.2585 13.8665C35.6248 13.5002 35.8306 13.0034 35.8306 12.4853V10.532H37.7839C38.302 10.532 38.7988 10.7378 39.1651 11.1041C39.5315 11.4705 39.7372 11.9673 39.7372 12.4853V18.3453ZM14.3442 30.0651C14.7305 30.0651 15.1082 29.9506 15.4294 29.736C15.7506 29.5213 16.001 29.2163 16.1488 28.8593C16.2967 28.5024 16.3353 28.1097 16.26 27.7308C16.1846 27.3519 15.9986 27.0038 15.7254 26.7306C15.4522 26.4575 15.1042 26.2714 14.7253 26.1961C14.3464 26.1207 13.9536 26.1594 13.5967 26.3072C13.2398 26.4551 12.9347 26.7054 12.7201 27.0266C12.5054 27.3479 12.3909 27.7255 12.3909 28.1118C12.3909 28.6299 12.5967 29.1267 12.963 29.493C13.3293 29.8594 13.8261 30.0651 14.3442 30.0651ZM14.3442 37.8784C14.7305 37.8784 15.1082 37.7638 15.4294 37.5492C15.7506 37.3346 16.001 37.0295 16.1488 36.6726C16.2967 36.3157 16.3353 35.9229 16.26 35.544C16.1846 35.1651 15.9986 34.8171 15.7254 34.5439C15.4522 34.2707 15.1042 34.0847 14.7253 34.0093C14.3464 33.9339 13.9536 33.9726 13.5967 34.1205C13.2398 34.2683 12.9347 34.5187 12.7201 34.8399C12.5054 35.1611 12.3909 35.5388 12.3909 35.9251C12.3909 36.4431 12.5967 36.94 12.963 37.3063C13.3293 37.6726 13.8261 37.8784 14.3442 37.8784Z" fill="#045989"/>
</g>
</svg>
