<svg width="20" height="21" viewBox="0 0 20 21" fill="none" xmlns="http://www.w3.org/2000/svg">
<g id="u:chart-pie-alt">
<path id="Vector" d="M15.8333 10.2H9.99999V4.3667C9.99999 3.8667 9.66666 3.53337 9.16666 3.53337C4.99999 3.53337 1.66666 6.8667 1.66666 11.0334C1.66666 15.2 4.99999 18.5334 9.16666 18.5334C13.3333 18.5334 16.6667 15.2 16.6667 11.0334C16.6667 10.5334 16.3333 10.2 15.8333 10.2ZM9.99999 16.7834C6.83332 17.2834 3.83332 15.0334 3.41666 11.8667C2.91666 8.70003 5.16666 5.70003 8.33332 5.28337V11.0334C8.33332 11.5334 8.66666 11.8667 9.16666 11.8667H14.9167C14.5833 14.45 12.5833 16.45 9.99999 16.7834ZM12.5 1.8667C12 1.8667 11.6667 2.20003 11.6667 2.70003V7.70003C11.6667 8.20003 12 8.53337 12.5 8.53337H17.5C18 8.53337 18.3333 8.20003 18.3333 7.70003C18.3333 4.45003 15.75 1.8667 12.5 1.8667ZM13.3333 6.8667V3.6167C15 3.95003 16.25 5.20003 16.5833 6.8667H13.3333Z" fill="white"/>
</g>
</svg>
