<svg width="36" height="36" viewBox="0 0 36 36" fill="none" xmlns="http://www.w3.org/2000/svg">
<g id="u:chart-down">
<path id="Vector" d="M30.926 19.1194C30.5384 19.1194 30.1666 18.9654 29.8925 18.6913C29.6184 18.4172 29.4644 18.0454 29.4644 17.6577V13.8721L20.2706 23.0804C20.1347 23.2174 19.9731 23.3262 19.795 23.4004C19.6169 23.4746 19.4258 23.5128 19.2329 23.5128C19.0399 23.5128 18.8489 23.4746 18.6707 23.4004C18.4926 23.3262 18.331 23.2174 18.1951 23.0804L13.3863 18.257L5.65414 26.0037C5.37891 26.279 5.00561 26.4336 4.61637 26.4336C4.22713 26.4336 3.85383 26.279 3.5786 26.0037C3.30337 25.7285 3.14874 25.3552 3.14874 24.966C3.14874 24.5767 3.30337 24.2034 3.5786 23.9282L12.3485 15.1583C12.4844 15.0213 12.646 14.9126 12.8241 14.8384C13.0023 14.7642 13.1933 14.726 13.3863 14.726C13.5792 14.726 13.7703 14.7642 13.9484 14.8384C14.1265 14.9126 14.2882 15.0213 14.424 15.1583L19.2329 19.9817L27.4035 11.8111H23.6178C23.2301 11.8111 22.8584 11.6571 22.5843 11.383C22.3101 11.1089 22.1562 10.7371 22.1562 10.3495C22.1562 9.96183 22.3101 9.59005 22.5843 9.31594C22.8584 9.04183 23.2301 8.88783 23.6178 8.88783H30.926C31.117 8.89014 31.3057 8.92987 31.4815 9.00476C31.8386 9.15308 32.1224 9.4369 32.2708 9.79406C32.3457 9.96978 32.3854 10.1585 32.3877 10.3495V17.6577C32.3877 18.0454 32.2337 18.4172 31.9596 18.6913C31.6855 18.9654 31.3137 19.1194 30.926 19.1194Z" fill="#216E3D"/>
</g>
</svg>
