<svg width="54" height="55" viewBox="0 0 54 55" fill="none" xmlns="http://www.w3.org/2000/svg">
<g id="u:clock-five">
<path id="Vector" d="M24.5403 5.34888C20.1279 5.34888 15.8146 6.6573 12.1459 9.10868C8.4771 11.5601 5.61765 15.0443 3.92911 19.1208C2.24056 23.1973 1.79876 27.683 2.65957 32.0106C3.52039 36.3382 5.64515 40.3133 8.76517 43.4334C11.8852 46.5534 15.8603 48.6781 20.1879 49.539C24.5155 50.3998 29.0012 49.958 33.0777 48.2694C37.1542 46.5809 40.6385 43.7214 43.0898 40.0527C45.5412 36.3839 46.8496 32.0706 46.8496 27.6582C46.8496 24.7285 46.2726 21.8275 45.1514 19.1208C44.0303 16.4141 42.387 13.9548 40.3154 11.8831C38.2438 9.81152 35.7844 8.16823 33.0777 7.04708C30.371 5.92593 27.47 5.34888 24.5403 5.34888ZM24.5403 45.5057C21.0104 45.5057 17.5597 44.459 14.6247 42.4979C11.6897 40.5368 9.40217 37.7494 8.05134 34.4882C6.70051 31.227 6.34706 27.6384 7.03571 24.1764C7.72436 20.7143 9.42417 17.5342 11.9202 15.0382C14.4162 12.5421 17.5963 10.8423 21.0584 10.1537C24.5205 9.46504 28.109 9.81848 31.3702 11.1693C34.6314 12.5201 37.4188 14.8077 39.3799 17.7427C41.341 20.6777 42.3878 24.1283 42.3878 27.6582C42.3878 32.3917 40.5074 36.9313 37.1604 40.2783C33.8133 43.6254 29.2737 45.5057 24.5403 45.5057ZM26.7712 27.5021V16.5036C26.7712 15.9119 26.5362 15.3444 26.1178 14.9261C25.6994 14.5077 25.132 14.2726 24.5403 14.2726C23.9486 14.2726 23.3811 14.5077 22.9628 14.9261C22.5444 15.3444 22.3093 15.9119 22.3093 16.5036V27.6582C22.3093 27.6582 22.3093 27.8144 22.3093 27.9036C22.2544 28.3572 22.3401 28.8166 22.5547 29.2199L25.9011 35.0203C26.197 35.5351 26.6852 35.9113 27.2584 36.0661C27.8316 36.2209 28.4428 36.1416 28.9575 35.8458C29.4723 35.5499 29.8485 35.0617 30.0033 34.4885C30.1581 33.9154 30.0788 33.3042 29.783 32.7894L26.7712 27.5021Z" fill="#282A49"/>
</g>
</svg>
