<svg width="48" height="48" viewBox="0 0 48 48" fill="none" xmlns="http://www.w3.org/2000/svg">
<g id="u:clock-eight">
<path id="Vector" d="M22.089 4.67206C18.2257 4.67206 14.4492 5.81766 11.237 7.96398C8.02481 10.1103 5.5212 13.161 4.04279 16.7302C2.56437 20.2994 2.17755 24.2268 2.93124 28.0159C3.68493 31.805 5.54528 35.2854 8.27703 38.0172C11.0088 40.7489 14.4893 42.6093 18.2783 43.363C22.0674 44.1167 25.9948 43.7298 29.564 42.2514C33.1332 40.773 36.1839 38.2694 38.3302 35.0572C40.4766 31.845 41.6222 28.0685 41.6222 24.2052C41.6222 21.6401 41.1169 19.1 40.1353 16.7302C39.1536 14.3603 37.7148 12.207 35.901 10.3932C34.0872 8.57936 31.9339 7.14056 29.564 6.15893C27.1942 5.1773 24.6542 4.67206 22.089 4.67206ZM22.089 39.8317C18.9984 39.8317 15.9772 38.9152 13.4074 37.1981C10.8377 35.4811 8.83477 33.0405 7.65204 30.1852C6.4693 27.3298 6.15985 24.1878 6.7628 21.1566C7.36575 18.1254 8.85403 15.341 11.0394 13.1556C13.2248 10.9702 16.0092 9.48189 19.0405 8.87894C22.0717 8.27599 25.2137 8.58545 28.069 9.76818C30.9244 10.9509 33.3649 12.9538 35.082 15.5236C36.799 18.0933 37.7155 21.1145 37.7155 24.2052C37.7155 28.3496 36.0692 32.3242 33.1386 35.2548C30.2081 38.1853 26.2334 39.8317 22.089 39.8317ZM22.089 12.4853C21.571 12.4853 21.0742 12.6911 20.7078 13.0574C20.3415 13.4237 20.1357 13.9206 20.1357 14.4386V23.0723L16.0338 25.4358C15.6575 25.649 15.3626 25.9811 15.1954 26.38C15.0281 26.7788 14.998 27.2219 15.1097 27.6397C15.2215 28.0576 15.4687 28.4265 15.8127 28.6887C16.1567 28.9509 16.5779 29.0915 17.0104 29.0885C17.3526 29.0908 17.6894 29.0033 17.9871 28.8345L23.0657 25.9046L23.2415 25.7288L23.554 25.4748C23.6304 25.3781 23.6959 25.2733 23.7493 25.1623C23.813 25.0574 23.8654 24.9461 23.9056 24.8302C23.9587 24.706 23.9917 24.5742 24.0033 24.4396L24.0423 24.2052V14.4386C24.0423 13.9206 23.8366 13.4237 23.4702 13.0574C23.1039 12.6911 22.6071 12.4853 22.089 12.4853Z" fill="#045989"/>
</g>
</svg>
