<svg width="24" height="24" viewBox="0 0 24 24" fill="none" xmlns="http://www.w3.org/2000/svg">
<g id="u:compress-point">
<path id="Vector" d="M21.71 20.29L15.41 14H17C17.2652 14 17.5196 13.8946 17.7071 13.7071C17.8946 13.5196 18 13.2652 18 13C18 12.7348 17.8946 12.4804 17.7071 12.2929C17.5196 12.1054 17.2652 12 17 12H13.41L19.07 6.34C19.1747 6.25036 19.2597 6.14004 19.3197 6.01597C19.3797 5.89191 19.4135 5.75677 19.4188 5.61906C19.4241 5.48134 19.4009 5.344 19.3506 5.21568C19.3004 5.08735 19.2241 4.97081 19.1267 4.87335C19.0292 4.7759 18.9126 4.69964 18.7843 4.64936C18.656 4.59909 18.5187 4.57588 18.3809 4.5812C18.2432 4.58652 18.1081 4.62025 17.984 4.68028C17.86 4.7403 17.7496 4.82532 17.66 4.93L12 10.59V7C12 6.73479 11.8946 6.48043 11.7071 6.2929C11.5196 6.10536 11.2652 6 11 6C10.7348 6 10.4804 6.10536 10.2929 6.2929C10.1054 6.48043 10 6.73479 10 7V8.59L3.71 2.29C3.61676 2.19676 3.50607 2.1228 3.38425 2.07234C3.26243 2.02188 3.13186 1.99591 3 1.99591C2.86814 1.99591 2.73758 2.02188 2.61575 2.07234C2.49393 2.1228 2.38324 2.19676 2.29 2.29C2.1017 2.47831 1.99591 2.7337 1.99591 3C1.99591 3.2663 2.1017 3.5217 2.29 3.71L8.59 10H7C6.73479 10 6.48043 10.1054 6.2929 10.2929C6.10536 10.4804 6 10.7348 6 11C6 11.2652 6.10536 11.5196 6.2929 11.7071C6.48043 11.8946 6.73479 12 7 12H10.59L4.93 17.66C4.74375 17.8474 4.63921 18.1008 4.63921 18.365C4.63921 18.6292 4.74375 18.8826 4.93 19.07C5.11736 19.2563 5.37082 19.3608 5.635 19.3608C5.89919 19.3608 6.15264 19.2563 6.34 19.07L12 13.41V17C12 17.2652 12.1054 17.5196 12.2929 17.7071C12.4804 17.8946 12.7348 18 13 18C13.2652 18 13.5196 17.8946 13.7071 17.7071C13.8946 17.5196 14 17.2652 14 17V15.41L20.29 21.71C20.383 21.8037 20.4936 21.8781 20.6154 21.9289C20.7373 21.9797 20.868 22.0058 21 22.0058C21.132 22.0058 21.2627 21.9797 21.3846 21.9289C21.5064 21.8781 21.617 21.8037 21.71 21.71C21.8037 21.617 21.8781 21.5064 21.9289 21.3846C21.9797 21.2627 22.0058 21.132 22.0058 21C22.0058 20.868 21.9797 20.7373 21.9289 20.6154C21.8781 20.4936 21.8037 20.383 21.71 20.29Z" fill="black"/>
</g>
</svg>
