<svg width="20" height="20" viewBox="0 0 20 20" fill="none" xmlns="http://www.w3.org/2000/svg">
<g id="u:cog">
<path id="Vector" d="M17.7666 7.95833L16.1916 7.43333L16.9333 5.94999C17.0085 5.79473 17.0336 5.61996 17.0053 5.4498C16.9769 5.27964 16.8964 5.12248 16.775 4.99999L15 3.22499C14.8768 3.10173 14.7182 3.02016 14.5463 2.99176C14.3743 2.96336 14.1979 2.98956 14.0416 3.06666L12.5583 3.80833L12.0333 2.23333C11.9778 2.06915 11.8726 1.92635 11.7322 1.82478C11.5918 1.72322 11.4232 1.66795 11.25 1.66666H8.74996C8.57526 1.66621 8.40483 1.72068 8.26277 1.82236C8.12071 1.92405 8.0142 2.06781 7.9583 2.23333L7.4333 3.80833L5.94996 3.06666C5.7947 2.99148 5.61993 2.96633 5.44977 2.99469C5.27961 3.02305 5.12245 3.10352 4.99996 3.22499L3.22496 4.99999C3.1017 5.12313 3.02013 5.28181 2.99173 5.45371C2.96333 5.62561 2.98953 5.80208 3.06663 5.95833L3.8083 7.44166L2.2333 7.96666C2.06912 8.02211 1.92632 8.12735 1.82475 8.26775C1.72319 8.40815 1.66792 8.57671 1.66663 8.74999V11.25C1.66618 11.4247 1.72064 11.5951 1.82233 11.7372C1.92402 11.8792 2.06778 11.9858 2.2333 12.0417L3.8083 12.5667L3.06663 14.05C2.99145 14.2053 2.9663 14.38 2.99466 14.5502C3.02302 14.7203 3.10349 14.8775 3.22496 15L4.99996 16.775C5.1231 16.8983 5.28177 16.9798 5.45368 17.0082C5.62558 17.0366 5.80205 17.0104 5.9583 16.9333L7.44163 16.1917L7.96663 17.7667C8.02253 17.9322 8.12904 18.0759 8.2711 18.1776C8.41317 18.2793 8.58359 18.3338 8.7583 18.3333H11.2583C11.433 18.3338 11.6034 18.2793 11.7455 18.1776C11.8875 18.0759 11.9941 17.9322 12.05 17.7667L12.575 16.1917L14.0583 16.9333C14.2126 17.0066 14.3856 17.0307 14.5541 17.0024C14.7225 16.9741 14.8781 16.8947 15 16.775L16.775 15C16.8982 14.8769 16.9798 14.7182 17.0082 14.5463C17.0366 14.3744 17.0104 14.1979 16.9333 14.0417L16.1916 12.5583L17.7666 12.0333C17.9308 11.9779 18.0736 11.8726 18.1752 11.7322C18.2767 11.5918 18.332 11.4233 18.3333 11.25V8.74999C18.3337 8.57529 18.2793 8.40486 18.1776 8.2628C18.0759 8.12074 17.9321 8.01423 17.7666 7.95833ZM16.6666 10.65L15.6666 10.9833C15.4367 11.0579 15.2257 11.1816 15.0483 11.3459C14.871 11.5102 14.7315 11.7111 14.6395 11.9346C14.5475 12.1582 14.5053 12.3991 14.5158 12.6406C14.5262 12.8822 14.5891 13.1185 14.7 13.3333L15.175 14.2833L14.2583 15.2L13.3333 14.7C13.1196 14.5935 12.8855 14.5342 12.6469 14.5261C12.4083 14.5179 12.1707 14.5612 11.9502 14.6528C11.7298 14.7445 11.5316 14.8824 11.3691 15.0574C11.2066 15.2323 11.0835 15.4401 11.0083 15.6667L10.675 16.6667H9.34996L9.01663 15.6667C8.94204 15.4367 8.81832 15.2257 8.65404 15.0484C8.48977 14.871 8.28888 14.7315 8.06531 14.6395C7.84174 14.5476 7.60084 14.5054 7.35932 14.5158C7.11779 14.5262 6.88143 14.5891 6.66663 14.7L5.71663 15.175L4.79996 14.2583L5.29996 13.3333C5.41087 13.1185 5.47373 12.8822 5.48417 12.6406C5.49461 12.3991 5.45238 12.1582 5.36041 11.9346C5.26845 11.7111 5.12894 11.5102 4.95158 11.3459C4.77422 11.1816 4.56325 11.0579 4.3333 10.9833L3.3333 10.65V9.34999L4.3333 9.01666C4.56325 8.94207 4.77422 8.81835 4.95158 8.65408C5.12894 8.4898 5.26845 8.28891 5.36041 8.06534C5.45238 7.84177 5.49461 7.60087 5.48417 7.35935C5.47373 7.11782 5.41087 6.88146 5.29996 6.66666L4.82496 5.74166L5.74163 4.82499L6.66663 5.29999C6.88143 5.4109 7.11779 5.47376 7.35932 5.4842C7.60084 5.49464 7.84174 5.45241 8.06531 5.36044C8.28888 5.26848 8.48977 5.12897 8.65404 4.95161C8.81832 4.77425 8.94204 4.56328 9.01663 4.33333L9.34996 3.33333H10.65L10.9833 4.33333C11.0579 4.56328 11.1816 4.77425 11.3459 4.95161C11.5102 5.12897 11.711 5.26848 11.9346 5.36044C12.1582 5.45241 12.3991 5.49464 12.6406 5.4842C12.8821 5.47376 13.1185 5.4109 13.3333 5.29999L14.2833 4.82499L15.2 5.74166L14.7 6.66666C14.5935 6.88036 14.5342 7.11445 14.526 7.35307C14.5179 7.59169 14.5611 7.82927 14.6528 8.04973C14.7445 8.27019 14.8824 8.46838 15.0573 8.63089C15.2322 8.7934 15.44 8.91643 15.6666 8.99166L16.6666 9.32499V10.65ZM9.99996 6.66666C9.34069 6.66666 8.69623 6.86216 8.14806 7.22843C7.5999 7.5947 7.17266 8.11529 6.92036 8.72438C6.66807 9.33347 6.60206 10.0037 6.73068 10.6503C6.8593 11.2969 7.17676 11.8908 7.64294 12.357C8.10911 12.8232 8.70306 13.1407 9.34966 13.2693C9.99626 13.3979 10.6665 13.3319 11.2756 13.0796C11.8847 12.8273 12.4053 12.4001 12.7715 11.8519C13.1378 11.3037 13.3333 10.6593 13.3333 9.99999C13.3333 9.11594 12.9821 8.26809 12.357 7.64297C11.7319 7.01785 10.884 6.66666 9.99996 6.66666ZM9.99996 11.6667C9.67033 11.6667 9.34809 11.5689 9.07401 11.3858C8.79993 11.2026 8.58631 10.9423 8.46016 10.6378C8.33402 10.3333 8.30101 9.99814 8.36532 9.67484C8.42963 9.35154 8.58836 9.05457 8.82145 8.82148C9.05454 8.58839 9.35151 8.42966 9.67481 8.36535C9.99811 8.30104 10.3332 8.33405 10.6378 8.46019C10.9423 8.58634 11.2026 8.79996 11.3857 9.07404C11.5689 9.34812 11.6666 9.67036 11.6666 9.99999C11.6666 10.442 11.491 10.8659 11.1785 11.1785C10.8659 11.4911 10.442 11.6667 9.99996 11.6667Z" fill="white"/>
</g>
</svg>
