<svg width="35" height="31" viewBox="0 0 35 31" fill="none" xmlns="http://www.w3.org/2000/svg">
<path id="Vector" d="M1.64838 30.5C1.34283 30.5 1.06505 30.4233 0.815051 30.27C0.565051 30.1167 0.370606 29.9156 0.231717 29.6667C0.0928286 29.4167 0.0161619 29.1456 0.00171748 28.8533C-0.012727 28.5611 0.0639397 28.2767 0.231717 28L15.6484 1.33333C15.8151 1.05556 16.0306 0.847222 16.295 0.708333C16.5595 0.569444 16.83 0.5 17.1067 0.5C17.3845 0.5 17.6556 0.569444 17.92 0.708333C18.1845 0.847222 18.3995 1.05556 18.5651 1.33333L33.9817 28C34.1484 28.2778 34.2251 28.5628 34.2117 28.855C34.1984 29.1472 34.1217 29.4178 33.9817 29.6667C33.8428 29.9167 33.6484 30.1183 33.3984 30.2717C33.1484 30.425 32.8706 30.5011 32.565 30.5H1.64838ZM17.1067 25.5C17.5789 25.5 17.975 25.34 18.2951 25.02C18.6151 24.7 18.7745 24.3044 18.7734 23.8333C18.7734 23.3611 18.6134 22.965 18.2934 22.645C17.9734 22.325 17.5778 22.1656 17.1067 22.1667C16.6345 22.1667 16.2384 22.3267 15.9184 22.6467C15.5984 22.9667 15.4389 23.3622 15.4401 23.8333C15.4401 24.3056 15.6001 24.7017 15.9201 25.0217C16.2401 25.3417 16.6356 25.5011 17.1067 25.5ZM17.1067 20.5C17.5789 20.5 17.975 20.34 18.2951 20.02C18.6151 19.7 18.7745 19.3044 18.7734 18.8333V13.8333C18.7734 13.3611 18.6134 12.965 18.2934 12.645C17.9734 12.325 17.5778 12.1656 17.1067 12.1667C16.6345 12.1667 16.2384 12.3267 15.9184 12.6467C15.5984 12.9667 15.4389 13.3622 15.4401 13.8333V18.8333C15.4401 19.3056 15.6001 19.7017 15.9201 20.0217C16.2401 20.3417 16.6356 20.5011 17.1067 20.5Z" fill="white"/>
</svg>
