<svg width="28" height="28" viewBox="0 0 28 28" fill="none" xmlns="http://www.w3.org/2000/svg">
<g id="u:desktop">
<path id="Vector" d="M22.0076 4.24429H6.38107C5.49298 4.24429 4.64127 4.59708 4.01329 5.22505C3.38532 5.85302 3.03253 6.70473 3.03253 7.59282V16.5222C3.03253 17.4103 3.38532 18.262 4.01329 18.89C4.64127 19.518 5.49298 19.8708 6.38107 19.8708H13.0781V22.1031H8.61342C8.31739 22.1031 8.03349 22.2207 7.82417 22.4301C7.61484 22.6394 7.49724 22.9233 7.49724 23.2193C7.49724 23.5153 7.61484 23.7992 7.82417 24.0086C8.03349 24.2179 8.31739 24.3355 8.61342 24.3355H19.7752C20.0712 24.3355 20.3551 24.2179 20.5645 24.0086C20.7738 23.7992 20.8914 23.5153 20.8914 23.2193C20.8914 22.9233 20.7738 22.6394 20.5645 22.4301C20.3551 22.2207 20.0712 22.1031 19.7752 22.1031H15.3105V19.8708H22.0076C22.8956 19.8708 23.7474 19.518 24.3753 18.89C25.0033 18.262 25.3561 17.4103 25.3561 16.5222V7.59282C25.3561 6.70473 25.0033 5.85302 24.3753 5.22505C23.7474 4.59708 22.8956 4.24429 22.0076 4.24429ZM23.1237 16.5222C23.1237 16.8183 23.0061 17.1022 22.7968 17.3115C22.5875 17.5208 22.3036 17.6384 22.0076 17.6384H6.38107C6.08504 17.6384 5.80113 17.5208 5.59181 17.3115C5.38249 17.1022 5.26489 16.8183 5.26489 16.5222V7.59282C5.26489 7.29679 5.38249 7.01289 5.59181 6.80356C5.80113 6.59424 6.08504 6.47664 6.38107 6.47664H22.0076C22.3036 6.47664 22.5875 6.59424 22.7968 6.80356C23.0061 7.01289 23.1237 7.29679 23.1237 7.59282V16.5222Z" fill="#216E3D"/>
</g>
</svg>
