<svg width="20" height="21" viewBox="0 0 20 21" fill="none" xmlns="http://www.w3.org/2000/svg">
<path d="M10 11.8667C9.779 11.8667 9.56703 11.9545 9.41075 12.1108C9.25447 12.2671 9.16668 12.479 9.16668 12.7V14.3667C9.16668 14.5877 9.25447 14.7997 9.41075 14.956C9.56703 15.1122 9.779 15.2 10 15.2C10.221 15.2 10.433 15.1122 10.5893 14.956C10.7455 14.7997 10.8333 14.5877 10.8333 14.3667V12.7C10.8333 12.479 10.7455 12.2671 10.5893 12.1108C10.433 11.9545 10.221 11.8667 10 11.8667ZM10.3167 9.43337C10.1658 9.36342 9.9975 9.3402 9.83334 9.3667L9.68334 9.4167L9.53334 9.4917L9.40834 9.5917C9.32909 9.67154 9.26681 9.76659 9.22528 9.87115C9.18375 9.97569 9.16381 10.0876 9.16668 10.2C9.16604 10.3097 9.18706 10.4184 9.22853 10.52C9.27 10.6215 9.33111 10.7138 9.40834 10.7917C9.4876 10.8676 9.58105 10.927 9.68334 10.9667C9.78224 11.0134 9.8907 11.0362 10 11.0334C10.1097 11.034 10.2184 11.013 10.3199 10.9715C10.4215 10.93 10.5138 10.8689 10.5917 10.7917C10.6689 10.7138 10.73 10.6215 10.7715 10.52C10.813 10.4184 10.834 10.3097 10.8333 10.2C10.834 10.0904 10.813 9.98164 10.7715 9.88011C10.73 9.77858 10.6689 9.68623 10.5917 9.60837C10.5107 9.53476 10.4177 9.47557 10.3167 9.43337ZM16.6667 7.65003C16.658 7.57348 16.6412 7.49806 16.6167 7.42503V7.35003C16.5766 7.26435 16.5232 7.18559 16.4583 7.1167L11.4583 2.1167C11.3895 2.05188 11.3107 1.99843 11.225 1.95837H11.1417C11.0606 1.91504 10.9736 1.88413 10.8833 1.8667H5.83334C5.1703 1.8667 4.53442 2.13009 4.06558 2.59893C3.59674 3.06777 3.33334 3.70366 3.33334 4.3667V16.0334C3.33334 16.6964 3.59674 17.3323 4.06558 17.8011C4.53442 18.27 5.1703 18.5334 5.83334 18.5334H14.1667C14.8297 18.5334 15.4656 18.27 15.9344 17.8011C16.4033 17.3323 16.6667 16.6964 16.6667 16.0334V7.70003C16.6667 7.70003 16.6667 7.70003 16.6667 7.65003ZM11.6667 4.70837L13.825 6.8667H12.5C12.279 6.8667 12.067 6.7789 11.9108 6.62262C11.7545 6.46634 11.6667 6.25438 11.6667 6.03337V4.70837ZM15 16.0334C15 16.2544 14.9122 16.4663 14.7559 16.6226C14.5997 16.7789 14.3877 16.8667 14.1667 16.8667H5.83334C5.61233 16.8667 5.40037 16.7789 5.24409 16.6226C5.08781 16.4663 5.00001 16.2544 5.00001 16.0334V4.3667C5.00001 4.14569 5.08781 3.93372 5.24409 3.77744C5.40037 3.62116 5.61233 3.53337 5.83334 3.53337H10V6.03337C10 6.69641 10.2634 7.33229 10.7322 7.80113C11.2011 8.26997 11.837 8.53337 12.5 8.53337H15V16.0334Z" fill="white"/>
</svg>
