<svg width="28" height="28" viewBox="0 0 28 28" fill="none" xmlns="http://www.w3.org/2000/svg">
<g id="u:external-link-alt">
<path id="Vector" d="M20.9137 12.9011C20.6176 12.9011 20.3337 13.0187 20.1244 13.2281C19.9151 13.4374 19.7975 13.7213 19.7975 14.0173V22.0315C19.7975 22.3275 19.6799 22.6114 19.4706 22.8207C19.2612 23.0301 18.9773 23.1477 18.6813 23.1477H6.40334C6.10732 23.1477 5.82341 23.0301 5.61409 22.8207C5.40476 22.6114 5.28717 22.3275 5.28717 22.0315V9.75353C5.28717 9.4575 5.40476 9.17359 5.61409 8.96427C5.82341 8.75495 6.10732 8.63735 6.40334 8.63735H14.4175C14.7135 8.63735 14.9974 8.51975 15.2068 8.31043C15.4161 8.1011 15.5337 7.8172 15.5337 7.52117C15.5337 7.22514 15.4161 6.94124 15.2068 6.73191C14.9974 6.52259 14.7135 6.40499 14.4175 6.40499H6.40334C5.51526 6.40499 4.66354 6.75778 4.03557 7.38576C3.4076 8.01373 3.05481 8.86544 3.05481 9.75353V22.0315C3.05481 22.9196 3.4076 23.7713 4.03557 24.3993C4.66354 25.0272 5.51526 25.38 6.40334 25.38H18.6813C19.5694 25.38 20.4211 25.0272 21.0491 24.3993C21.677 23.7713 22.0298 22.9196 22.0298 22.0315V14.0173C22.0298 13.7213 21.9122 13.4374 21.7029 13.2281C21.4936 13.0187 21.2097 12.9011 20.9137 12.9011ZM25.2891 3.74849C25.1758 3.47575 24.9591 3.25902 24.6863 3.14575C24.5522 3.08856 24.4081 3.05822 24.2622 3.05646H17.5651C17.2691 3.05646 16.9852 3.17405 16.7759 3.38338C16.5665 3.5927 16.4489 3.87661 16.4489 4.17264C16.4489 4.46866 16.5665 4.75257 16.7759 4.96189C16.9852 5.17122 17.2691 5.28881 17.5651 5.28881H21.5722L10.0756 16.7743C9.97095 16.878 9.88792 17.0015 9.83125 17.1375C9.77458 17.2735 9.74541 17.4194 9.74541 17.5668C9.74541 17.7141 9.77458 17.86 9.83125 17.996C9.88792 18.132 9.97095 18.2555 10.0756 18.3593C10.1793 18.4639 10.3028 18.5469 10.4388 18.6036C10.5748 18.6602 10.7207 18.6894 10.8681 18.6894C11.0154 18.6894 11.1613 18.6602 11.2973 18.6036C11.4333 18.5469 11.5568 18.4639 11.6605 18.3593L23.146 6.86262V10.8697C23.146 11.1657 23.2636 11.4496 23.4729 11.659C23.6823 11.8683 23.9662 11.9859 24.2622 11.9859C24.5582 11.9859 24.8421 11.8683 25.0515 11.659C25.2608 11.4496 25.3784 11.1657 25.3784 10.8697V4.17264C25.3766 4.02678 25.3463 3.88268 25.2891 3.74849Z" fill="white"/>
</g>
</svg>
