<svg width="24" height="24" viewBox="0 0 24 24" fill="none" xmlns="http://www.w3.org/2000/svg">
<path d="M17 11H5.40999L7.70999 8.71C7.80323 8.61676 7.87719 8.50607 7.92765 8.38425C7.97811 8.26243 8.00408 8.13186 8.00408 8C8.00408 7.86814 7.97811 7.73757 7.92765 7.61575C7.87719 7.49393 7.80323 7.38324 7.70999 7.29C7.61675 7.19676 7.50606 7.1228 7.38424 7.07234C7.26242 7.02188 7.13185 6.99591 6.99999 6.99591C6.86813 6.99591 6.73756 7.02188 6.61574 7.07234C6.49392 7.1228 6.38323 7.19676 6.28999 7.29L2.28999 11.29C2.19895 11.3851 2.12758 11.4972 2.07999 11.62C1.97997 11.8635 1.97997 12.1365 2.07999 12.38C2.12758 12.5028 2.19895 12.6149 2.28999 12.71L6.28999 16.71C6.38295 16.8037 6.49355 16.8781 6.61541 16.9289C6.73727 16.9797 6.86798 17.0058 6.99999 17.0058C7.132 17.0058 7.26271 16.9797 7.38456 16.9289C7.50642 16.8781 7.61702 16.8037 7.70999 16.71C7.80372 16.617 7.87811 16.5064 7.92888 16.3846C7.97965 16.2627 8.00579 16.132 8.00579 16C8.00579 15.868 7.97965 15.7373 7.92888 15.6154C7.87811 15.4936 7.80372 15.383 7.70999 15.29L5.40999 13H17C17.2652 13 17.5196 12.8946 17.7071 12.7071C17.8946 12.5196 18 12.2652 18 12C18 11.7348 17.8946 11.4804 17.7071 11.2929C17.5196 11.1054 17.2652 11 17 11ZM21 4C20.7348 4 20.4804 4.10536 20.2929 4.29289C20.1053 4.48043 20 4.73478 20 5V19C20 19.2652 20.1053 19.5196 20.2929 19.7071C20.4804 19.8946 20.7348 20 21 20C21.2652 20 21.5196 19.8946 21.7071 19.7071C21.8946 19.5196 22 19.2652 22 19V5C22 4.73478 21.8946 4.48043 21.7071 4.29289C21.5196 4.10536 21.2652 4 21 4Z" fill="white"/>
</svg>
