<svg width="24" height="25" viewBox="0 0 24 25" fill="none" xmlns="http://www.w3.org/2000/svg">
<g id="u:minus-circle">
<path id="Vector" d="M12 2.38574C10.0222 2.38574 8.08879 2.97223 6.4443 4.07105C4.79981 5.16986 3.51809 6.73165 2.76121 8.55891C2.00433 10.3862 1.8063 12.3968 2.19215 14.3366C2.578 16.2765 3.53041 18.0583 4.92894 19.4568C6.32746 20.8553 8.10929 21.8077 10.0491 22.1936C11.9889 22.5794 13.9996 22.3814 15.8268 21.6245C17.6541 20.8677 19.2159 19.5859 20.3147 17.9414C21.4135 16.297 22 14.3636 22 12.3857C22 11.0725 21.7413 9.77216 21.2388 8.55891C20.7363 7.34565 19.9997 6.24326 19.0711 5.31467C18.1425 4.38609 17.0401 3.64949 15.8268 3.14695C14.6136 2.6444 13.3132 2.38574 12 2.38574ZM12 20.3857C10.4178 20.3857 8.87104 19.9165 7.55544 19.0375C6.23985 18.1584 5.21447 16.909 4.60897 15.4472C4.00347 13.9854 3.84504 12.3769 4.15372 10.825C4.4624 9.27317 5.22433 7.84771 6.34315 6.72889C7.46197 5.61007 8.88743 4.84814 10.4393 4.53946C11.9911 4.23078 13.5997 4.3892 15.0615 4.99471C16.5233 5.60021 17.7727 6.62559 18.6518 7.94118C19.5308 9.25677 20 10.8035 20 12.3857C20 14.5075 19.1572 16.5423 17.6569 18.0426C16.1566 19.5429 14.1217 20.3857 12 20.3857ZM16 11.3857H8C7.73479 11.3857 7.48043 11.4911 7.2929 11.6786C7.10536 11.8662 7 12.1205 7 12.3857C7 12.651 7.10536 12.9053 7.2929 13.0928C7.48043 13.2804 7.73479 13.3857 8 13.3857H16C16.2652 13.3857 16.5196 13.2804 16.7071 13.0928C16.8946 12.9053 17 12.651 17 12.3857C17 12.1205 16.8946 11.8662 16.7071 11.6786C16.5196 11.4911 16.2652 11.3857 16 11.3857Z" fill="#C83702"/>
</g>
</svg>
