<svg width="24" height="25" viewBox="0 0 24 25" fill="none" xmlns="http://www.w3.org/2000/svg">
<path d="M21 6.19995C20.7348 6.19995 20.4804 6.30531 20.2929 6.49284C20.1054 6.68038 20 6.93473 20 7.19995V17.2C20 17.9956 19.6839 18.7587 19.1213 19.3213C18.5587 19.8839 17.7956 20.2 17 20.2H7C6.73478 20.2 6.48043 20.3053 6.29289 20.4928C6.10536 20.6804 6 20.9347 6 21.2C6 21.4652 6.10536 21.7195 6.29289 21.9071C6.48043 22.0946 6.73478 22.2 7 22.2H17C18.3261 22.2 19.5979 21.6732 20.5355 20.7355C21.4732 19.7978 22 18.526 22 17.2V7.19995C22 6.93473 21.8946 6.68038 21.7071 6.49284C21.5196 6.30531 21.2652 6.19995 21 6.19995ZM18 15.2V5.19995C18 4.4043 17.6839 3.64124 17.1213 3.07863C16.5587 2.51602 15.7956 2.19995 15 2.19995H5C4.20435 2.19995 3.44129 2.51602 2.87868 3.07863C2.31607 3.64124 2 4.4043 2 5.19995V15.2C2 15.9956 2.31607 16.7587 2.87868 17.3213C3.44129 17.8839 4.20435 18.2 5 18.2H15C15.7956 18.2 16.5587 17.8839 17.1213 17.3213C17.6839 16.7587 18 15.9956 18 15.2ZM10 4.19995H12V9.05995L11.64 8.75995C11.4603 8.61028 11.2339 8.52833 11 8.52833C10.7661 8.52833 10.5397 8.61028 10.36 8.75995L10 9.05995V4.19995ZM4 15.2V5.19995C4 4.93473 4.10536 4.68038 4.29289 4.49284C4.48043 4.30531 4.73478 4.19995 5 4.19995H8V11.2C7.99999 11.3911 8.05477 11.5783 8.15785 11.7393C8.26094 11.9003 8.40801 12.0283 8.58164 12.1083C8.75527 12.1883 8.94819 12.2168 9.13754 12.1905C9.32688 12.1642 9.50473 12.0842 9.65 11.96L11 10.83L12.35 11.96C12.5311 12.1149 12.7617 12.2 13 12.2C13.1447 12.1989 13.2876 12.1683 13.42 12.11C13.5936 12.0296 13.7405 11.9012 13.8433 11.7399C13.9461 11.5786 14.0005 11.3912 14 11.2V4.19995H15C15.2652 4.19995 15.5196 4.30531 15.7071 4.49284C15.8946 4.68038 16 4.93473 16 5.19995V15.2C16 15.4652 15.8946 15.7195 15.7071 15.9071C15.5196 16.0946 15.2652 16.2 15 16.2H5C4.73478 16.2 4.48043 16.0946 4.29289 15.9071C4.10536 15.7195 4 15.4652 4 15.2Z" fill="white"/>
</svg>
