<svg width="24" height="25" viewBox="0 0 24 25" fill="none" xmlns="http://www.w3.org/2000/svg">
<g id="u:plus">
<path id="Vector" d="M19 11.8643H13V5.86426C13 5.59904 12.8946 5.34469 12.7071 5.15715C12.5196 4.96961 12.2652 4.86426 12 4.86426C11.7348 4.86426 11.4804 4.96961 11.2929 5.15715C11.1054 5.34469 11 5.59904 11 5.86426V11.8643H5C4.73478 11.8643 4.48043 11.9696 4.29289 12.1572C4.10536 12.3447 4 12.599 4 12.8643C4 13.1295 4.10536 13.3838 4.29289 13.5714C4.48043 13.7589 4.73478 13.8643 5 13.8643H11V19.8643C11 20.1295 11.1054 20.3838 11.2929 20.5714C11.4804 20.7589 11.7348 20.8643 12 20.8643C12.2652 20.8643 12.5196 20.7589 12.7071 20.5714C12.8946 20.3838 13 20.1295 13 19.8643V13.8643H19C19.2652 13.8643 19.5196 13.7589 19.7071 13.5714C19.8946 13.3838 20 13.1295 20 12.8643C20 12.599 19.8946 12.3447 19.7071 12.1572C19.5196 11.9696 19.2652 11.8643 19 11.8643Z" fill="#F1F6FE"/>
</g>
</svg>
