<svg width="24" height="25" viewBox="0 0 24 25" fill="none" xmlns="http://www.w3.org/2000/svg">
<g id="u:plus-circle">
<path id="Vector" d="M12 2.72852C10.0222 2.72852 8.08879 3.31501 6.4443 4.41382C4.79981 5.51263 3.51809 7.07442 2.76121 8.90168C2.00433 10.7289 1.8063 12.7396 2.19215 14.6794C2.578 16.6192 3.53041 18.4011 4.92894 19.7996C6.32746 21.1981 8.10929 22.1505 10.0491 22.5364C11.9889 22.9222 13.9996 22.7242 15.8268 21.9673C17.6541 21.2104 19.2159 19.9287 20.3147 18.2842C21.4135 16.6397 22 14.7063 22 12.7285C22 11.4153 21.7413 10.1149 21.2388 8.90168C20.7363 7.68843 19.9997 6.58603 19.0711 5.65745C18.1425 4.72886 17.0401 3.99227 15.8268 3.48972C14.6136 2.98717 13.3132 2.72852 12 2.72852ZM12 20.7285C10.4178 20.7285 8.87104 20.2593 7.55544 19.3803C6.23985 18.5012 5.21447 17.2518 4.60897 15.79C4.00347 14.3282 3.84504 12.7196 4.15372 11.1678C4.4624 9.61595 5.22433 8.19048 6.34315 7.07166C7.46197 5.95284 8.88743 5.19092 10.4393 4.88223C11.9911 4.57355 13.5997 4.73198 15.0615 5.33748C16.5233 5.94298 17.7727 6.96836 18.6518 8.28395C19.5308 9.59955 20 11.1463 20 12.7285C20 14.8502 19.1572 16.8851 17.6569 18.3854C16.1566 19.8857 14.1217 20.7285 12 20.7285ZM16 11.7285H13V8.72852C13 8.4633 12.8946 8.20895 12.7071 8.02141C12.5196 7.83387 12.2652 7.72852 12 7.72852C11.7348 7.72852 11.4804 7.83387 11.2929 8.02141C11.1054 8.20895 11 8.4633 11 8.72852V11.7285H8C7.73479 11.7285 7.48043 11.8339 7.2929 12.0214C7.10536 12.2089 7 12.4633 7 12.7285C7 12.9937 7.10536 13.2481 7.2929 13.4356C7.48043 13.6232 7.73479 13.7285 8 13.7285H11V16.7285C11 16.9937 11.1054 17.2481 11.2929 17.4356C11.4804 17.6232 11.7348 17.7285 12 17.7285C12.2652 17.7285 12.5196 17.6232 12.7071 17.4356C12.8946 17.2481 13 16.9937 13 16.7285V13.7285H16C16.2652 13.7285 16.5196 13.6232 16.7071 13.4356C16.8946 13.2481 17 12.9937 17 12.7285C17 12.4633 16.8946 12.2089 16.7071 12.0214C16.5196 11.8339 16.2652 11.7285 16 11.7285Z" fill="#F1F6FE"/>
</g>
</svg>
