<svg width="48" height="48" viewBox="0 0 48 48" fill="none" xmlns="http://www.w3.org/2000/svg">
<g id="u:pricetag-alt">
<path id="Vector" d="M14.1129 12.4853C13.7266 12.4853 13.3489 12.5999 13.0277 12.8145C12.7065 13.0291 12.4561 13.3342 12.3083 13.6911C12.1604 14.048 12.1218 14.4408 12.1971 14.8197C12.2725 15.1986 12.4585 15.5466 12.7317 15.8198C13.0049 16.093 13.3529 16.279 13.7318 16.3544C14.1107 16.4298 14.5035 16.3911 14.8604 16.2432C15.2173 16.0954 15.5224 15.845 15.737 15.5238C15.9517 15.2026 16.0662 14.8249 16.0662 14.4386C16.0662 13.9206 15.8604 13.4237 15.4941 13.0574C15.1278 12.6911 14.631 12.4853 14.1129 12.4853ZM42.8461 23.7754L24.3287 5.29712C24.1466 5.10074 23.926 4.94391 23.6807 4.83638C23.4354 4.72886 23.1706 4.67292 22.9028 4.67206H11.1829C10.9259 4.67057 10.671 4.71985 10.433 4.81705C10.1951 4.91426 9.9786 5.05748 9.79609 5.23852L4.91281 10.1023C4.73177 10.2848 4.58854 10.5012 4.49134 10.7392C4.39413 10.9772 4.34486 11.232 4.34635 11.4891V23.209C4.35354 23.7262 4.55587 24.2215 4.91281 24.5958L23.4497 43.1523C23.8241 43.5092 24.3194 43.7116 24.8366 43.7188C25.0937 43.7202 25.3485 43.671 25.5865 43.5738C25.8245 43.4766 26.0409 43.3333 26.2234 43.1523L42.8461 26.5296C43.0272 26.3471 43.1704 26.1306 43.2676 25.8927C43.3648 25.6547 43.4141 25.3998 43.4126 25.1428C43.4005 24.6324 43.1985 24.1448 42.8461 23.7754ZM24.8366 39.0308L8.25297 22.4277V12.29L11.9643 8.57868H22.0824L38.6856 25.1623L24.8366 39.0308Z" fill="#045989"/>
</g>
</svg>
