<svg width="40" height="40" viewBox="0 0 40 40" fill="none" xmlns="http://www.w3.org/2000/svg">
<g id="u:question-circle">
<path id="Vector" d="M18.8167 25.4833C18.745 25.5625 18.6782 25.6459 18.6167 25.7333C18.5536 25.8262 18.5031 25.927 18.4667 26.0333C18.4186 26.1277 18.3849 26.2288 18.3667 26.3333C18.3585 26.4442 18.3585 26.5556 18.3667 26.6666C18.361 26.8852 18.4067 27.1021 18.5 27.2999C18.5748 27.5067 18.6943 27.6946 18.8498 27.8501C19.0053 28.0056 19.1932 28.1251 19.4 28.1999C19.5995 28.2881 19.8152 28.3336 20.0333 28.3336C20.2514 28.3336 20.4672 28.2881 20.6667 28.1999C20.8735 28.1251 21.0613 28.0056 21.2168 27.8501C21.3724 27.6946 21.4918 27.5067 21.5667 27.2999C21.6407 27.0973 21.6746 26.8822 21.6667 26.6666C21.6679 26.4472 21.6259 26.2298 21.5429 26.0267C21.46 25.8237 21.3378 25.639 21.1833 25.4833C21.0284 25.327 20.844 25.203 20.6409 25.1184C20.4378 25.0338 20.22 24.9903 20 24.9903C19.78 24.9903 19.5621 25.0338 19.359 25.1184C19.1559 25.203 18.9716 25.327 18.8167 25.4833ZM20 3.33325C16.7036 3.33325 13.4813 4.31073 10.7405 6.14209C7.99966 7.97345 5.86346 10.5764 4.60199 13.6219C3.34053 16.6673 3.01048 20.0184 3.65357 23.2514C4.29665 26.4844 5.884 29.4542 8.21487 31.785C10.5457 34.1159 13.5155 35.7033 16.7485 36.3463C19.9815 36.9894 23.3326 36.6594 26.378 35.3979C29.4235 34.1365 32.0265 32.0002 33.8578 29.2594C35.6892 26.5186 36.6667 23.2963 36.6667 19.9999C36.6667 17.8112 36.2356 15.644 35.398 13.6219C34.5604 11.5998 33.3327 9.76245 31.7851 8.21481C30.2375 6.66716 28.4001 5.4395 26.378 4.60193C24.356 3.76435 22.1887 3.33325 20 3.33325ZM20 33.3333C17.3629 33.3333 14.785 32.5513 12.5924 31.0862C10.3997 29.6211 8.69076 27.5387 7.68159 25.1024C6.67243 22.666 6.40838 19.9851 6.92285 17.3987C7.43732 14.8123 8.7072 12.4365 10.5719 10.5718C12.4366 8.70713 14.8124 7.43725 17.3988 6.92278C19.9852 6.40831 22.6661 6.67236 25.1024 7.68153C27.5388 8.69069 29.6212 10.3997 31.0862 12.5923C32.5513 14.785 33.3333 17.3628 33.3333 19.9999C33.3333 23.5361 31.9286 26.9275 29.4281 29.428C26.9276 31.9285 23.5362 33.3333 20 33.3333ZM20 11.6666C19.1218 11.666 18.2589 11.8968 17.4982 12.3357C16.7375 12.7745 16.1058 13.406 15.6667 14.1666C15.5461 14.3563 15.4651 14.5684 15.4286 14.7902C15.3921 15.012 15.4009 15.2389 15.4544 15.4572C15.5078 15.6756 15.6049 15.8808 15.7398 16.0606C15.8747 16.2405 16.0445 16.3912 16.2391 16.5037C16.4337 16.6162 16.6491 16.6881 16.8722 16.7152C17.0954 16.7423 17.3217 16.724 17.5375 16.6614C17.7534 16.5988 17.9544 16.4931 18.1284 16.3508C18.3024 16.2085 18.4458 16.0324 18.55 15.8333C18.6968 15.5789 18.9083 15.3679 19.1629 15.2215C19.4175 15.0752 19.7063 14.9988 20 14.9999C20.442 14.9999 20.8659 15.1755 21.1785 15.4881C21.4911 15.8006 21.6667 16.2246 21.6667 16.6666C21.6667 17.1086 21.4911 17.5325 21.1785 17.8451C20.8659 18.1577 20.442 18.3333 20 18.3333C19.558 18.3333 19.134 18.5088 18.8215 18.8214C18.5089 19.134 18.3333 19.5579 18.3333 19.9999V21.6666C18.3333 22.1086 18.5089 22.5325 18.8215 22.8451C19.134 23.1577 19.558 23.3333 20 23.3333C20.442 23.3333 20.8659 23.1577 21.1785 22.8451C21.4911 22.5325 21.6667 22.1086 21.6667 21.6666V21.3666C22.7689 20.9666 23.6956 20.192 24.2846 19.178C24.8736 18.1641 25.0876 16.9754 24.889 15.8197C24.6904 14.6641 24.092 13.6149 23.1983 12.8558C22.3046 12.0966 21.1726 11.6757 20 11.6666Z" fill="#282A49"/>
</g>
</svg>
