<svg width="20" height="21" viewBox="0 0 20 21" fill="none" xmlns="http://www.w3.org/2000/svg">
<path d="M10.25 10.3834C10.6947 9.99848 11.0513 9.52244 11.2957 8.98755C11.5402 8.45267 11.6667 7.87146 11.6667 7.28337C11.6667 6.1783 11.2277 5.11849 10.4463 4.33709C9.66489 3.55569 8.60508 3.1167 7.50001 3.1167C6.39494 3.1167 5.33513 3.55569 4.55373 4.33709C3.77233 5.11849 3.33334 6.1783 3.33334 7.28337C3.33334 7.87146 3.45984 8.45267 3.70428 8.98755C3.94872 9.52244 4.30536 9.99848 4.75001 10.3834C3.58346 10.9116 2.59373 11.7646 1.89916 12.8405C1.20459 13.9163 0.83457 15.1695 0.833344 16.45C0.833344 16.671 0.921141 16.883 1.07742 17.0393C1.2337 17.1956 1.44566 17.2834 1.66668 17.2834C1.88769 17.2834 2.09965 17.1956 2.25593 17.0393C2.41221 16.883 2.50001 16.671 2.50001 16.45C2.50001 15.124 3.02679 13.8522 3.96448 12.9145C4.90216 11.9768 6.17393 11.45 7.50001 11.45C8.82609 11.45 10.0979 11.9768 11.0355 12.9145C11.9732 13.8522 12.5 15.124 12.5 16.45C12.5 16.671 12.5878 16.883 12.7441 17.0393C12.9004 17.1956 13.1123 17.2834 13.3333 17.2834C13.5544 17.2834 13.7663 17.1956 13.9226 17.0393C14.0789 16.883 14.1667 16.671 14.1667 16.45C14.1655 15.1695 13.7954 13.9163 13.1009 12.8405C12.4063 11.7646 11.4166 10.9116 10.25 10.3834ZM7.50001 9.78337C7.00556 9.78337 6.52221 9.63674 6.11108 9.36204C5.69996 9.08734 5.37953 8.69689 5.19031 8.24008C5.00109 7.78326 4.95158 7.28059 5.04805 6.79564C5.14451 6.31069 5.38261 5.86523 5.73224 5.5156C6.08187 5.16597 6.52733 4.92787 7.01228 4.8314C7.49724 4.73494 7.9999 4.78445 8.45672 4.97367C8.91353 5.16289 9.30398 5.48332 9.57868 5.89444C9.85339 6.30556 10 6.78891 10 7.28337C10 7.94641 9.73662 8.58229 9.26778 9.05113C8.79894 9.51997 8.16305 9.78337 7.50001 9.78337ZM15.6167 10.05C16.15 9.44948 16.4984 8.70758 16.6198 7.91365C16.7413 7.11972 16.6308 6.30759 16.3015 5.57503C15.9722 4.84247 15.4382 4.2207 14.7637 3.78455C14.0893 3.34841 13.3032 3.11648 12.5 3.1167C12.279 3.1167 12.067 3.2045 11.9108 3.36078C11.7545 3.51706 11.6667 3.72902 11.6667 3.95003C11.6667 4.17105 11.7545 4.38301 11.9108 4.53929C12.067 4.69557 12.279 4.78337 12.5 4.78337C13.1631 4.78337 13.7989 5.04676 14.2678 5.5156C14.7366 5.98444 15 6.62033 15 7.28337C14.9988 7.72107 14.8828 8.15079 14.6634 8.52955C14.444 8.90832 14.1291 9.22285 13.75 9.4417C13.6265 9.51297 13.5233 9.61475 13.4503 9.73732C13.3774 9.85988 13.3371 9.99912 13.3333 10.1417C13.3299 10.2832 13.3625 10.4232 13.4281 10.5486C13.4937 10.674 13.5901 10.7806 13.7083 10.8584L14.0333 11.075L14.1417 11.1334C15.1462 11.6098 15.9936 12.3634 16.5842 13.3053C17.1747 14.2472 17.4838 15.3383 17.475 16.45C17.475 16.671 17.5628 16.883 17.7191 17.0393C17.8754 17.1956 18.0873 17.2834 18.3083 17.2834C18.5294 17.2834 18.7413 17.1956 18.8976 17.0393C19.0539 16.883 19.1417 16.671 19.1417 16.45C19.1485 15.1712 18.8282 13.9119 18.2112 12.7918C17.5943 11.6716 16.7011 10.7278 15.6167 10.05Z" fill="white"/>
</svg>
