<svg width="24" height="25" viewBox="0 0 24 25" fill="none" xmlns="http://www.w3.org/2000/svg">
<path d="M15.71 12.9098C16.6904 12.1385 17.406 11.0808 17.7572 9.88377C18.1085 8.68679 18.0779 7.4101 17.6698 6.2313C17.2617 5.0525 16.4963 4.03022 15.4801 3.30669C14.4639 2.58315 13.2474 2.19434 12 2.19434C10.7525 2.19434 9.53611 2.58315 8.51993 3.30669C7.50374 4.03022 6.73834 5.0525 6.33021 6.2313C5.92208 7.4101 5.89151 8.68679 6.24276 9.88377C6.59401 11.0808 7.3096 12.1385 8.29 12.9098C6.61007 13.5829 5.14428 14.6992 4.04889 16.1397C2.95349 17.5803 2.26956 19.2911 2.07 21.0898C2.05555 21.2212 2.06711 21.354 2.10402 21.4809C2.14093 21.6077 2.20246 21.7261 2.28511 21.8292C2.45202 22.0373 2.69478 22.1707 2.96 22.1998C3.22521 22.229 3.49116 22.1516 3.69932 21.9847C3.90749 21.8178 4.04082 21.575 4.07 21.3098C4.28958 19.355 5.22168 17.5496 6.68822 16.2386C8.15475 14.9276 10.0529 14.2029 12.02 14.2029C13.9871 14.2029 15.8852 14.9276 17.3518 16.2386C18.8183 17.5496 19.7504 19.355 19.97 21.3098C19.9972 21.5556 20.1144 21.7825 20.2991 21.9468C20.4838 22.1112 20.7228 22.2013 20.97 22.1998H21.08C21.3421 22.1697 21.5817 22.0371 21.7466 21.8311C21.9114 21.625 21.9881 21.3622 21.96 21.0998C21.7595 19.296 21.0719 17.5808 19.9708 16.138C18.8698 14.6953 17.3969 13.5793 15.71 12.9098ZM12 12.1998C11.2089 12.1998 10.4355 11.9652 9.77772 11.5257C9.11992 11.0862 8.60723 10.4615 8.30448 9.73057C8.00173 8.99966 7.92251 8.19539 8.07686 7.41947C8.2312 6.64355 8.61216 5.93081 9.17157 5.3714C9.73098 4.81199 10.4437 4.43103 11.2196 4.27669C11.9956 4.12235 12.7998 4.20156 13.5307 4.50431C14.2616 4.80706 14.8863 5.31975 15.3259 5.97755C15.7654 6.63535 16 7.40871 16 8.19983C16 9.2607 15.5786 10.2781 14.8284 11.0283C14.0783 11.7784 13.0609 12.1998 12 12.1998Z" fill="white"/>
</svg>
