<svg width="24" height="25" viewBox="0 0 24 25" fill="none" xmlns="http://www.w3.org/2000/svg">
<g id="u:window-grid">
<path id="Vector" d="M21 2.19995H3C2.73478 2.19995 2.48043 2.30531 2.29289 2.49284C2.10536 2.68038 2 2.93473 2 3.19995V21.2C2 21.4652 2.10536 21.7195 2.29289 21.9071C2.48043 22.0946 2.73478 22.2 3 22.2H21C21.2652 22.2 21.5196 22.0946 21.7071 21.9071C21.8946 21.7195 22 21.4652 22 21.2V3.19995C22 2.93473 21.8946 2.68038 21.7071 2.49284C21.5196 2.30531 21.2652 2.19995 21 2.19995ZM8 20.2H4V4.19995H8V20.2ZM20 20.2H10V13.2H20V20.2ZM20 11.2H10V4.19995H20V11.2Z" fill="white"/>
</g>
</svg>
