<!-- Generated by IcoMoon.io -->
<svg version="1.1" xmlns="http://www.w3.org/2000/svg" width="30" height="32" viewBox="0 0 30 32">
<title>upload</title>
<path d="M14.321 1.144c-0.294 0.124-0.576 0.393-3.584 3.4-3.676 3.676-3.507 3.471-3.509 4.256 0 0.378 0.021 0.501 0.137 0.747 0.467 0.99 1.702 1.357 2.603 0.774 0.107-0.068 0.866-0.8 1.687-1.623l1.493-1.498 0.026 6.387c0.030 7.336-0.021 6.652 0.561 7.247 0.167 0.192 0.377 0.343 0.617 0.436l0.011 0.004c0.189 0.075 0.408 0.119 0.637 0.119 0.693 0 1.293-0.399 1.583-0.979l0.005-0.010 0.188-0.365 0.013-6.43 0.015-6.428 1.564 1.555c1.704 1.696 1.83 1.79 2.468 1.858 0.048 0.005 0.104 0.007 0.161 0.007 0.531 0 1.009-0.229 1.34-0.594l0.001-0.002c0.287-0.316 0.462-0.738 0.462-1.201 0-0.316-0.082-0.613-0.226-0.871l0.005 0.009c-0.087-0.164-1.19-1.301-3.341-3.445-2.543-2.539-3.264-3.228-3.473-3.326-0.223-0.096-0.483-0.152-0.756-0.152-0.246 0-0.482 0.046-0.699 0.129l0.013-0.004zM1.216 17.91c-0.535 0.193-0.947 0.613-1.125 1.141l-0.004 0.013c-0.079 0.235-0.087 0.715-0.087 4.757 0 3.095 0.019 4.582 0.060 4.776 0.081 0.39 0.361 0.977 0.623 1.306 0.277 0.348 0.798 0.721 1.271 0.911l0.367 0.147 12.48 0.015c9.058 0.011 12.567 0 12.8-0.045 1.054-0.196 1.956-1.043 2.302-2.161 0.092-0.297 0.098-0.604 0.098-4.902 0-4.454-0.004-4.595-0.107-4.881-0.213-0.474-0.583-0.846-1.043-1.055l-0.013-0.005c-0.188-0.072-0.404-0.114-0.631-0.114-0.787 0-1.456 0.502-1.705 1.204l-0.004 0.013c-0.081 0.226-0.090 0.657-0.094 4.318l-0.004 4.066h-22.768l-0.015-4.094c-0.019-4.721 0.019-4.371-0.548-4.953-0.168-0.192-0.379-0.342-0.619-0.436l-0.011-0.004c-0.19-0.069-0.408-0.109-0.637-0.109-0.209 0-0.411 0.034-0.599 0.095l0.014-0.004z"></path>
</svg>
