<!-- Generated by IcoMoon.io -->
<svg version="1.1" xmlns="http://www.w3.org/2000/svg" width="30" height="32" viewBox="0 0 30 32">
<title>users-alt</title>
<path d="M15.671 16.305c0.74-0.641 1.334-1.433 1.74-2.323s0.617-1.857 0.617-2.836c0-1.839-0.731-3.603-2.031-4.903s-3.064-2.031-4.903-2.031c-1.839 0-3.603 0.731-4.903 2.031s-2.031 3.064-2.031 4.903c0 0.979 0.21 1.946 0.617 2.836s1 1.682 1.74 2.323c-1.941 0.879-3.588 2.299-4.744 4.089s-1.772 3.876-1.774 6.007c0 0.368 0.146 0.721 0.406 0.981s0.613 0.406 0.981 0.406c0.368 0 0.721-0.146 0.981-0.406s0.406-0.613 0.406-0.981c0-2.207 0.877-4.323 2.437-5.884s3.677-2.437 5.884-2.437c2.207 0 4.323 0.877 5.884 2.437s2.437 3.677 2.437 5.884c0 0.368 0.146 0.721 0.406 0.981s0.613 0.406 0.981 0.406c0.368 0 0.721-0.146 0.981-0.406s0.406-0.613 0.406-0.981c-0.002-2.131-0.618-4.217-1.774-6.007s-2.803-3.21-4.744-4.089zM11.095 15.307c-0.823 0-1.627-0.244-2.311-0.701s-1.217-1.107-1.532-1.867c-0.315-0.76-0.397-1.597-0.237-2.404s0.557-1.548 1.139-2.13c0.582-0.582 1.323-0.978 2.13-1.139s1.644-0.078 2.404 0.237c0.76 0.315 1.41 0.848 1.867 1.532s0.701 1.489 0.701 2.311c0 1.103-0.438 2.162-1.219 2.942s-1.838 1.219-2.942 1.219zM24.602 15.75c0.888-0.999 1.467-2.234 1.669-3.555s0.018-2.673-0.53-3.892-1.437-2.254-2.559-2.98c-1.122-0.726-2.431-1.112-3.767-1.111-0.368 0-0.721 0.146-0.981 0.406s-0.406 0.613-0.406 0.981 0.146 0.721 0.406 0.981c0.26 0.26 0.613 0.406 0.981 0.406 1.104 0 2.162 0.438 2.942 1.219s1.218 1.838 1.218 2.942c-0.002 0.728-0.195 1.444-0.56 2.074s-0.889 1.154-1.52 1.518c-0.206 0.119-0.377 0.288-0.499 0.492s-0.188 0.436-0.195 0.673c-0.006 0.235 0.049 0.468 0.158 0.677s0.27 0.386 0.466 0.516l0.541 0.36 0.18 0.097c1.672 0.793 3.082 2.047 4.065 3.614s1.497 3.383 1.482 5.233c0 0.368 0.146 0.721 0.406 0.981s0.613 0.406 0.981 0.406c0.368 0 0.721-0.146 0.981-0.406s0.406-0.613 0.406-0.981c0.011-2.128-0.522-4.224-1.549-6.088s-2.513-3.435-4.318-4.563z"></path>
</svg>
