<!-- Generated by IcoMoon.io -->
<svg version="1.1" xmlns="http://www.w3.org/2000/svg" width="32" height="32" viewBox="0 0 32 32">
<title>user-square</title>
<path d="M20.496 16.448c1.013-1.088 1.583-2.514 1.6-4 0-1.604-0.637-3.142-1.771-4.277s-2.673-1.771-4.277-1.771c-1.604 0-3.142 0.637-4.277 1.771s-1.771 2.673-1.771 4.277c0.017 1.486 0.587 2.912 1.6 4-1.41 0.702-2.624 1.744-3.531 3.031s-1.481 2.78-1.669 4.345c-0.047 0.424 0.077 0.85 0.344 1.183s0.655 0.546 1.080 0.593 0.85-0.077 1.183-0.344c0.333-0.267 0.546-0.656 0.593-1.080 0.191-1.55 0.942-2.977 2.112-4.012s2.678-1.606 4.24-1.606 3.070 0.571 4.24 1.606c1.17 1.035 1.921 2.461 2.112 4.012 0.044 0.41 0.246 0.788 0.562 1.053s0.722 0.398 1.134 0.371h0.176c0.419-0.048 0.803-0.26 1.067-0.59s0.386-0.75 0.341-1.17c-0.174-1.556-0.729-3.045-1.617-4.334s-2.080-2.34-3.471-3.058zM16 15.296c-0.563 0-1.114-0.167-1.582-0.48s-0.833-0.758-1.049-1.278c-0.216-0.52-0.272-1.093-0.162-1.646s0.381-1.060 0.78-1.458c0.398-0.398 0.906-0.67 1.458-0.779s1.125-0.053 1.646 0.162c0.52 0.216 0.965 0.581 1.278 1.049s0.48 1.019 0.48 1.582c0 0.755-0.3 1.48-0.834 2.014s-1.258 0.834-2.014 0.834zM27.2 0h-22.4c-1.273 0-2.494 0.506-3.394 1.406s-1.406 2.121-1.406 3.394v22.4c0 1.273 0.506 2.494 1.406 3.394s2.121 1.406 3.394 1.406h22.4c1.273 0 2.494-0.506 3.394-1.406s1.406-2.121 1.406-3.394v-22.4c0-1.273-0.506-2.494-1.406-3.394s-2.121-1.406-3.394-1.406zM28.8 27.2c0 0.424-0.169 0.831-0.469 1.131s-0.707 0.469-1.131 0.469h-22.4c-0.424 0-0.831-0.169-1.131-0.469s-0.469-0.707-0.469-1.131v-22.4c0-0.424 0.169-0.831 0.469-1.131s0.707-0.469 1.131-0.469h22.4c0.424 0 0.831 0.169 1.131 0.469s0.469 0.707 0.469 1.131v22.4z"></path>
</svg>
