<!-- Generated by IcoMoon.io -->
<svg version="1.1" xmlns="http://www.w3.org/2000/svg" width="31" height="32" viewBox="0 0 31 32">
<title>window-grid</title>
<path d="M29.183 0.64h-27.647c-0.407 0-0.798 0.162-1.086 0.45s-0.45 0.679-0.45 1.086v27.647c0 0.407 0.162 0.798 0.45 1.086s0.679 0.45 1.086 0.45h27.647c0.407 0 0.798-0.162 1.086-0.45s0.45-0.679 0.45-1.086v-27.647c0-0.407-0.162-0.798-0.45-1.086s-0.679-0.45-1.086-0.45zM9.216 28.288h-6.144v-24.575h6.144v24.575zM27.647 28.288h-15.36v-10.752h15.36v10.752zM27.647 14.464h-15.36v-10.752h15.36v10.752z"></path>
</svg>
