<!-- Generated by IcoMoon.io -->
<svg version="1.1" xmlns="http://www.w3.org/2000/svg" width="32" height="32" viewBox="0 0 32 32">
<title>arobase</title>
<path d="M16 32h8v-3.2h-8c-6.944 0-12.8-5.856-12.8-12.8s5.856-12.8 12.8-12.8c6.944 0 12.8 5.856 12.8 12.8v2.288c0 1.264-1.136 2.512-2.4 2.512s-2.4-1.248-2.4-2.512v-2.288c0-4.416-3.584-8-8-8s-8 3.584-8 8c0 4.416 3.584 8 8 8 2.208 0 4.224-0.896 5.664-2.352 1.040 1.424 2.832 2.352 4.736 2.352 3.152 0 5.6-2.56 5.6-5.712v-2.288c0-8.832-7.168-16-16-16s-16 7.168-16 16c0 8.832 7.168 16 16 16zM16 20.8c-2.656 0-4.8-2.144-4.8-4.8s2.144-4.8 4.8-4.8c2.656 0 4.8 2.144 4.8 4.8s-2.144 4.8-4.8 4.8z"></path>
</svg>
