<!-- Generated by IcoMoon.io -->
<svg version="1.1" xmlns="http://www.w3.org/2000/svg" width="32" height="32" viewBox="0 0 32 32">
<title>briefcase</title>
<path d="M12.128 0.871c-1.154 0.219-2.21 1.282-2.457 2.471-0.042 0.2-0.071 1.062-0.071 2.096v1.757h-3.317c-2.104 0-3.454 0.025-3.696 0.069-0.893 0.163-1.837 0.874-2.219 1.67-0.382 0.793-0.365 0.344-0.367 10.273 0 6.399 0.021 9.2 0.071 9.438 0.25 1.2 1.277 2.227 2.475 2.477 0.48 0.1 26.425 0.1 26.905 0 1.233-0.29 2.186-1.243 2.47-2.454l0.004-0.022c0.1-0.478 0.1-18.425 0-18.903-0.253-1.221-1.307-2.258-2.515-2.479-0.242-0.044-1.592-0.069-3.696-0.069h-3.317v-1.757c0-1.035-0.029-1.897-0.071-2.096-0.253-1.219-1.307-2.256-2.515-2.477-0.476-0.086-7.224-0.083-7.683 0.006zM19.198 5.596v1.599h-6.401v-3.2h6.401v1.601zM28.798 19.194v8.799h-25.599v-17.597h25.599v8.799z"></path>
</svg>
