<!-- Generated by IcoMoon.io -->
<svg version="1.1" xmlns="http://www.w3.org/2000/svg" width="32" height="32" viewBox="0 0 32 32">
<title>calendar-alt</title>
<path d="M16 26.182c0.288 0 0.569-0.085 0.808-0.245s0.426-0.387 0.536-0.653c0.11-0.266 0.139-0.558 0.083-0.84s-0.195-0.541-0.398-0.745c-0.203-0.203-0.463-0.342-0.745-0.398s-0.575-0.027-0.84 0.083c-0.266 0.11-0.493 0.297-0.653 0.536s-0.245 0.52-0.245 0.808c0 0.386 0.153 0.756 0.426 1.029s0.643 0.426 1.029 0.426zM23.273 26.182c0.288 0 0.569-0.085 0.808-0.245s0.426-0.387 0.536-0.653c0.11-0.266 0.139-0.558 0.083-0.84s-0.195-0.541-0.398-0.745c-0.203-0.203-0.463-0.342-0.745-0.398s-0.575-0.027-0.84 0.083c-0.266 0.11-0.493 0.297-0.653 0.536s-0.245 0.52-0.245 0.808c0 0.386 0.153 0.756 0.426 1.029s0.643 0.426 1.029 0.426zM23.273 20.364c0.288 0 0.569-0.085 0.808-0.245s0.426-0.387 0.536-0.653c0.11-0.266 0.139-0.558 0.083-0.84s-0.195-0.541-0.398-0.745c-0.203-0.203-0.463-0.342-0.745-0.398s-0.575-0.027-0.84 0.083c-0.266 0.11-0.493 0.297-0.653 0.536s-0.245 0.52-0.245 0.808c0 0.386 0.153 0.756 0.426 1.029s0.643 0.426 1.029 0.426zM16 20.364c0.288 0 0.569-0.085 0.808-0.245s0.426-0.387 0.536-0.653c0.11-0.266 0.139-0.558 0.083-0.84s-0.195-0.541-0.398-0.745c-0.203-0.203-0.463-0.342-0.745-0.398s-0.575-0.027-0.84 0.083c-0.266 0.11-0.493 0.297-0.653 0.536s-0.245 0.52-0.245 0.808c0 0.386 0.153 0.756 0.426 1.029s0.643 0.426 1.029 0.426zM26.182 2.909h-1.455v-1.455c0-0.386-0.153-0.756-0.426-1.029s-0.643-0.426-1.029-0.426c-0.386 0-0.756 0.153-1.029 0.426s-0.426 0.643-0.426 1.029v1.455h-11.636v-1.455c0-0.386-0.153-0.756-0.426-1.029s-0.643-0.426-1.029-0.426c-0.386 0-0.756 0.153-1.029 0.426s-0.426 0.643-0.426 1.029v1.455h-1.455c-1.157 0-2.267 0.46-3.086 1.278s-1.278 1.928-1.278 3.086v20.364c0 1.157 0.46 2.267 1.278 3.086s1.928 1.278 3.086 1.278h20.364c1.157 0 2.267-0.46 3.086-1.278s1.278-1.928 1.278-3.086v-20.364c0-1.157-0.46-2.267-1.278-3.086s-1.928-1.278-3.086-1.278zM27.636 27.636c0 0.386-0.153 0.756-0.426 1.029s-0.643 0.426-1.029 0.426h-20.364c-0.386 0-0.756-0.153-1.029-0.426s-0.426-0.643-0.426-1.029v-13.091h23.273v13.091zM27.636 11.636h-23.273v-4.364c0-0.386 0.153-0.756 0.426-1.029s0.643-0.426 1.029-0.426h1.455v1.455c0 0.386 0.153 0.756 0.426 1.029s0.643 0.426 1.029 0.426c0.386 0 0.756-0.153 1.029-0.426s0.426-0.643 0.426-1.029v-1.455h11.636v1.455c0 0.386 0.153 0.756 0.426 1.029s0.643 0.426 1.029 0.426c0.386 0 0.756-0.153 1.029-0.426s0.426-0.643 0.426-1.029v-1.455h1.455c0.386 0 0.756 0.153 1.029 0.426s0.426 0.643 0.426 1.029v4.364zM8.727 20.364c0.288 0 0.569-0.085 0.808-0.245s0.426-0.387 0.536-0.653c0.11-0.266 0.139-0.558 0.083-0.84s-0.195-0.541-0.398-0.745c-0.203-0.203-0.463-0.342-0.745-0.398s-0.575-0.027-0.84 0.083c-0.266 0.11-0.493 0.297-0.653 0.536s-0.245 0.52-0.245 0.808c0 0.386 0.153 0.756 0.426 1.029s0.643 0.426 1.029 0.426zM8.727 26.182c0.288 0 0.569-0.085 0.808-0.245s0.426-0.387 0.536-0.653c0.11-0.266 0.139-0.558 0.083-0.84s-0.195-0.541-0.398-0.745-0.463-0.342-0.745-0.398c-0.282-0.056-0.575-0.027-0.84 0.083s-0.493 0.297-0.653 0.536c-0.16 0.239-0.245 0.52-0.245 0.808 0 0.386 0.153 0.756 0.426 1.029s0.643 0.426 1.029 0.426z"></path>
</svg>
