<!-- Generated by IcoMoon.io -->
<svg version="1.1" xmlns="http://www.w3.org/2000/svg" width="32" height="32" viewBox="0 0 32 32">
<title>chart-down</title>
<path d="M30.4 17.596c-0.424 0-0.831-0.169-1.131-0.469s-0.469-0.707-0.469-1.131v-4.143l-10.062 10.078c-0.149 0.15-0.326 0.269-0.52 0.35s-0.404 0.123-0.615 0.123c-0.211 0-0.42-0.042-0.615-0.123s-0.372-0.2-0.52-0.35l-5.263-5.279-8.462 8.478c-0.301 0.301-0.71 0.471-1.136 0.471s-0.835-0.169-1.136-0.471c-0.301-0.301-0.47-0.71-0.47-1.136s0.169-0.835 0.47-1.136l9.598-9.598c0.149-0.15 0.326-0.269 0.521-0.35s0.404-0.123 0.615-0.123c0.211 0 0.42 0.042 0.615 0.123s0.372 0.2 0.521 0.35l5.263 5.279 8.942-8.942h-4.143c-0.424 0-0.831-0.169-1.131-0.469s-0.469-0.707-0.469-1.131c0-0.424 0.168-0.831 0.469-1.131s0.707-0.469 1.131-0.469h7.998c0.209 0.003 0.416 0.046 0.608 0.128 0.391 0.162 0.701 0.473 0.864 0.864 0.082 0.192 0.125 0.399 0.128 0.608v7.998c0 0.424-0.169 0.831-0.469 1.131s-0.707 0.469-1.131 0.469z"></path>
</svg>
