<!-- Generated by IcoMoon.io -->
<svg version="1.1" xmlns="http://www.w3.org/2000/svg" width="32" height="32" viewBox="0 0 32 32">
<title>chart-growth</title>
<path d="M30.4 28.8h-1.6v-24c0-0.424-0.169-0.831-0.469-1.131s-0.707-0.469-1.131-0.469c-0.424 0-0.831 0.169-1.131 0.469s-0.469 0.707-0.469 1.131v24h-3.2v-17.6c0-0.424-0.169-0.831-0.469-1.131s-0.707-0.469-1.131-0.469c-0.424 0-0.831 0.169-1.131 0.469s-0.469 0.707-0.469 1.131v17.6h-3.2v-11.2c0-0.424-0.169-0.831-0.469-1.131s-0.707-0.469-1.131-0.469c-0.424 0-0.831 0.169-1.131 0.469s-0.469 0.707-0.469 1.131v11.2h-3.2v-4.8c0-0.424-0.169-0.831-0.469-1.131s-0.707-0.469-1.131-0.469c-0.424 0-0.831 0.169-1.131 0.469s-0.469 0.707-0.469 1.131v4.8h-3.2v-27.2c0-0.424-0.169-0.831-0.469-1.131s-0.707-0.469-1.131-0.469c-0.424 0-0.831 0.169-1.131 0.469s-0.469 0.707-0.469 1.131v28.8c0 0.424 0.169 0.831 0.469 1.131s0.707 0.469 1.131 0.469h28.8c0.424 0 0.831-0.169 1.131-0.469s0.469-0.707 0.469-1.131c0-0.424-0.169-0.831-0.469-1.131s-0.707-0.469-1.131-0.469z"></path>
</svg>
