<!-- Generated by IcoMoon.io -->
<svg version="1.1" xmlns="http://www.w3.org/2000/svg" width="32" height="32" viewBox="0 0 32 32">
<title>clock-eight</title>
<path d="M16 0c-3.165 0-6.258 0.938-8.889 2.696s-4.682 4.257-5.893 7.181c-1.211 2.924-1.528 6.141-0.91 9.244s2.141 5.955 4.379 8.192c2.238 2.238 5.089 3.761 8.192 4.379s6.321 0.3 9.244-0.911 5.422-3.262 7.181-5.893c1.758-2.631 2.697-5.725 2.697-8.889 0-2.101-0.414-4.182-1.218-6.123s-1.983-3.705-3.468-5.191-3.25-2.664-5.191-3.468c-1.941-0.804-4.022-1.218-6.123-1.218zM16 28.8c-2.532 0-5.006-0.751-7.111-2.157s-3.746-3.406-4.714-5.744-1.222-4.913-0.728-7.396 1.713-4.764 3.503-6.554c1.79-1.79 4.071-3.009 6.554-3.503s5.057-0.24 7.395 0.728c2.339 0.969 4.338 2.609 5.744 4.714s2.157 4.58 2.157 7.111c0 3.395-1.349 6.65-3.749 9.051s-5.656 3.749-9.051 3.749zM16 6.4c-0.424 0-0.831 0.169-1.131 0.469s-0.469 0.707-0.469 1.131v7.072l-3.36 1.936c-0.308 0.175-0.55 0.447-0.687 0.773s-0.162 0.69-0.070 1.032c0.092 0.342 0.294 0.644 0.576 0.859s0.627 0.33 0.981 0.327c0.28 0.002 0.556-0.070 0.8-0.208l4.16-2.4 0.144-0.144 0.256-0.208c0.063-0.079 0.116-0.165 0.16-0.256 0.052-0.086 0.095-0.177 0.128-0.272 0.044-0.102 0.071-0.21 0.080-0.32l0.032-0.192v-8c0-0.424-0.168-0.831-0.469-1.131s-0.707-0.469-1.131-0.469z"></path>
</svg>
