<!-- Generated by IcoMoon.io -->
<svg version="1.1" xmlns="http://www.w3.org/2000/svg" width="32" height="32" viewBox="0 0 32 32">
<title>comment</title>
<path d="M2.368 1.234c-1.090 0.311-1.932 1.15-2.243 2.214l-0.006 0.023c-0.115 0.409-0.119 0.885-0.119 10.451 0 8.797 0.011 10.068 0.098 10.399 0.313 1.106 1.162 1.962 2.241 2.279l0.023 0.006c0.392 0.102 1.258 0.109 11.812 0.113l11.392 0.004 1.959 1.949c1.415 1.408 2.039 1.988 2.245 2.080 0.177 0.080 0.385 0.127 0.603 0.127 0.245 0 0.476-0.059 0.681-0.164l-0.008 0.004c0.424-0.198 0.609-0.359 0.791-0.699l0.138-0.257 0.017-12.866c0.019-14.336 0.048-13.383-0.421-14.174-0.324-0.512-0.754-0.93-1.262-1.229l-0.017-0.009c-0.705-0.38-0.002-0.363-14.353-0.361-12.167 0.002-13.187 0.012-13.571 0.111zM28.805 14.832v10.512l-0.914-0.91-0.912-0.912h-23.78v-19.204h25.606v10.514zM7.553 7.578c-1.198 0.367-1.552 1.918-0.624 2.733 0.499 0.44-0.123 0.413 9.17 0.394l8.386-0.017 0.255-0.138c0.572-0.309 0.83-0.753 0.83-1.431s-0.257-1.122-0.83-1.429l-0.255-0.138-8.386-0.011c-4.613-0.006-8.457 0.011-8.546 0.038zM7.553 12.379c-1.198 0.367-1.552 1.918-0.624 2.733 0.499 0.44-0.123 0.413 9.17 0.394l8.386-0.017 0.255-0.138c0.572-0.309 0.83-0.753 0.83-1.431s-0.257-1.121-0.83-1.429l-0.255-0.138-8.386-0.011c-4.613-0.006-8.457 0.011-8.546 0.038zM7.553 17.18c-1.198 0.367-1.552 1.918-0.624 2.733 0.499 0.44-0.123 0.413 9.17 0.394l8.386-0.017 0.255-0.138c0.572-0.309 0.83-0.753 0.83-1.431s-0.257-1.122-0.83-1.429l-0.255-0.138-8.386-0.012c-4.613-0.006-8.457 0.012-8.546 0.038z"></path>
</svg>
