<!-- Generated by IcoMoon.io -->
<svg version="1.1" xmlns="http://www.w3.org/2000/svg" width="32" height="32" viewBox="0 0 32 32">
<title>contract-sign</title>
<path d="M1.717 0.111c-0.122 0.082-0.226 0.181-0.31 0.295l-0.002 0.003-0.137 0.191-0.029 30.642 0.131 0.252c0.093 0.178 0.203 0.288 0.383 0.379l0.252 0.128 23.937-0.029 0.156-0.117c0.103-0.081 0.194-0.172 0.273-0.272l0.003-0.003c0.117-0.156 0.119-0.198 0.133-6.131 0.007-3.285 0.007-5.975 0-5.975-0.009 0-0.156 0.058-0.329 0.126-0.243 0.097-0.435 0.126-0.868 0.128l-0.554 0.004v10.277l-21.722-0.029-0.029-27.984h21.749l0.014 2.469 0.016 2.469 0.484-0.539c0.266-0.297 0.656-0.712 0.868-0.922l0.383-0.383v-4.421l-0.14-0.239c-0.273-0.466 0.922-0.426-12.507-0.426-11.66 0.002-11.982 0.004-12.155 0.11zM6.649 7.004v0.798h14.461v-1.595h-14.461v0.797zM27.985 6.517c-0.156 0.061-0.291 0.136-0.413 0.228l0.004-0.003c-0.108 0.081-2.778 3.004-5.933 6.496l-5.739 6.347-0.385 1.582c-0.212 0.868-0.372 1.638-0.358 1.708 0.020 0.092 0.070 0.129 0.173 0.129 0.223 0 2.83-0.798 2.951-0.903 0.058-0.052 2.452-2.69 5.319-5.86l5.214-5.766 0.245 0.271c0.268 0.297 0.343 0.48 0.268 0.638-0.027 0.056-1.061 1.221-2.298 2.587-1.235 1.366-2.28 2.542-2.318 2.612-0.111 0.2-0.092 0.671 0.036 0.863 0.12 0.191 0.33 0.317 0.569 0.317 0.148 0 0.284-0.048 0.395-0.129l-0.002 0.001c0.097-0.070 1.203-1.266 2.456-2.657 1.652-1.832 2.323-2.616 2.436-2.846 0.138-0.282 0.156-0.381 0.156-0.886 0-0.496-0.020-0.611-0.149-0.883-0.139-0.256-0.296-0.477-0.476-0.677l0.003 0.003c-0.178-0.2-0.315-0.379-0.304-0.399 0.333-0.617 0.399-1.12 0.223-1.697-0.223-0.735-0.77-1.162-1.487-1.156-0.209 0.001-0.411 0.030-0.602 0.083l0.016-0.004zM6.649 10.99v0.797h12.457l0.529-0.583c0.326-0.361 0.565-0.621 0.804-0.879l-0.074 0.081 0.2-0.212h-13.915v0.797zM6.649 14.975v0.798h7.347l-0.014-0.782-0.016-0.784-7.316-0.029v0.797zM8.385 19.61c-0.372 0.162-0.53 0.372-1.086 1.446-0.302 0.586-1.151 2.188-1.886 3.56s-1.35 2.578-1.366 2.681c-0.036 0.225 0.085 0.485 0.307 0.662 0.201 0.158 0.543 0.126 0.732-0.068 0.113-0.119 1.131-1.983 2.821-5.18 0.325-0.615 0.599-1.113 0.606-1.104 0.009 0.007-0.241 1.118-0.554 2.47-0.753 3.254-0.728 3.112-0.583 3.441 0.131 0.295 0.396 0.496 0.658 0.496 0.336 0 0.538-0.167 1.187-0.989 1.494-1.892 1.94-2.427 2.016-2.427 0.115 0 0.099 0.099-0.056 0.365-0.202 0.375-0.321 0.82-0.321 1.293 0 0.21 0.023 0.415 0.068 0.611l-0.004-0.018c0.079 0.311 0.432 0.654 0.895 0.872l0.324 0.151 3.999 0.016c4.4 0.018 4.241 0.029 4.427-0.327 0.052-0.106 0.082-0.231 0.082-0.362 0-0.14-0.034-0.272-0.095-0.389l0.002 0.005c-0.205-0.345-0.104-0.338-4.173-0.338h-3.711l-0.165-0.165c-0.227-0.227-0.227-0.561 0-1.077 0.343-0.786 0.361-1.206 0.067-1.672-0.203-0.32-0.485-0.46-0.991-0.491-0.725-0.043-1.027 0.158-1.96 1.313-0.298 0.37-0.55 0.665-0.559 0.656 0.223-1.123 0.386-1.834 0.561-2.541l-0.090 0.43c0.473-2.026 0.485-2.105 0.419-2.4-0.135-0.604-0.583-1-1.127-0.996-0.159 0.002-0.311 0.030-0.452 0.080l0.010-0.003z"></path>
</svg>
