<!-- Generated by IcoMoon.io -->
<svg version="1.1" xmlns="http://www.w3.org/2000/svg" width="32" height="32" viewBox="0 0 32 32">
<title>diploma</title>
<path d="M6.867 0.041c-1.122 0.050-1.47 0.085-2.187 0.215-1.684 0.305-2.934 1.188-3.578 2.527-0.333 0.695-0.542 1.45-0.667 2.42-0.113 0.868-0.168 12.304-0.068 13.95 0.155 2.568 0.533 3.71 1.576 4.751 1.079 1.077 2.228 1.437 5.045 1.583l1.591 0.083 0.159 0.345c0.087 0.191 0.3 0.553 0.473 0.805 0.222 0.324 0.327 0.556 0.358 0.787 0.065 0.495 0.283 1.187 0.49 1.563 0.269 0.488 0.956 1.137 1.472 1.391 0.245 0.12 0.74 0.277 1.119 0.353 0.604 0.123 0.741 0.179 1.227 0.51 0.783 0.532 1.204 0.668 2.086 0.676 0.835 0.006 1.273-0.105 1.846-0.467 0.892-0.565 1.052-0.644 1.399-0.687 0.793-0.088 1.494-0.423 2.040-0.925l-0.002 0.002c0.652-0.597 1.006-1.277 1.181-2.273 0.079-0.449 0.147-0.606 0.465-1.070 0.205-0.299 0.408-0.65 0.45-0.779l0.078-0.237 1.143-0.046c3.047-0.123 4.284-0.465 5.379-1.487 0.806-0.754 1.215-1.529 1.47-2.784 0.242-1.19 0.276-2.243 0.276-8.487s-0.033-7.297-0.276-8.488c-0.253-1.242-0.659-2.020-1.447-2.763-0.832-0.785-1.877-1.191-3.61-1.402-0.756-0.092-17.632-0.149-19.486-0.065zM24.849 2.229c0.809 0.035 1.732 0.113 2.051 0.173 1.405 0.269 2.078 0.918 2.363 2.283 0.19 0.909 0.233 2.437 0.233 8.074 0 5.635-0.044 7.164-0.233 8.074-0.281 1.342-0.945 1.999-2.309 2.278-0.492 0.101-2.301 0.244-3.116 0.245h-0.36l-0.131-0.303c-0.167-0.332-0.337-0.614-0.525-0.881l0.015 0.022c-0.209-0.305-0.381-0.623-0.382-0.705 0-0.082-0.045-0.359-0.099-0.614-0.311-1.467-1.45-2.555-2.946-2.816-0.663-0.115-0.833-0.177-1.093-0.395-0.319-0.268-0.919-0.577-1.359-0.704-0.309-0.088-0.576-0.108-1.128-0.083-0.835 0.037-1.36 0.214-1.946 0.656-0.494 0.37-0.554 0.396-1.214 0.51-0.847 0.146-1.422 0.441-2.013 1.033-0.599 0.6-0.873 1.132-1.041 2.023-0.112 0.585-0.162 0.706-0.505 1.206-0.21 0.306-0.419 0.673-0.467 0.813l-0.083 0.256-1.102-0.047c-2.447-0.104-3.334-0.319-3.975-0.959-0.465-0.467-0.717-1.149-0.858-2.328-0.112-0.931-0.165-10.902-0.071-13.025 0.078-1.761 0.167-2.447 0.387-3.009 0.497-1.268 1.402-1.663 4.063-1.776 1.706-0.073 16.165-0.074 17.845-0.003zM11.107 5.98c-0.356 0.191-0.501 0.429-0.533 0.881-0.033 0.49 0.145 0.797 0.599 1.027l0.304 0.154 4.482-0.001c2.818 0 4.573-0.026 4.73-0.069 0.34-0.095 0.714-0.519 0.774-0.881 0.062-0.364-0.171-0.861-0.505-1.083l-0.232-0.154h-4.691c-4.436 0-4.705 0.006-4.928 0.127zM8.464 10.977c-0.479 0.107-0.832 0.529-0.832 1.033 0 0.041 0.002 0.082 0.007 0.121v-0.005c0.038 0.347 0.199 0.596 0.527 0.819l0.226 0.154h7.587c6.857 0 7.608-0.010 7.82-0.11 0.344-0.164 0.527-0.463 0.558-0.91 0.032-0.447-0.136-0.759-0.532-0.992-0.237-0.14-0.306-0.141-7.692-0.151-4.098-0.006-7.549 0.013-7.667 0.041zM16.597 19.161c0.12 0.062 0.331 0.2 0.468 0.308 0.396 0.311 1.072 0.592 1.667 0.695 0.624 0.108 0.795 0.182 1.111 0.481 0.218 0.208 0.426 0.714 0.426 1.042 0 0.355 0.299 1.087 0.663 1.62 0.638 0.937 0.646 1.279 0.055 2.169-0.422 0.633-0.61 1.088-0.724 1.755-0.15 0.878-0.483 1.267-1.2 1.4-0.732 0.137-1.286 0.324-1.665 0.564l-0.67 0.422c-0.547 0.341-1.101 0.296-1.668-0.136-0.591-0.451-1.213-0.699-2.083-0.828-0.629-0.094-1.082-0.582-1.192-1.286-0.095-0.658-0.327-1.247-0.666-1.759l0.010 0.016c-0.454-0.674-0.499-0.786-0.499-1.229 0-0.378 0.026-0.444 0.399-1.011 0.472-0.717 0.582-0.979 0.723-1.727 0.059-0.306 0.15-0.642 0.204-0.745 0.215-0.415 0.619-0.647 1.272-0.735 0.555-0.073 1.061-0.281 1.675-0.685 0.301-0.197 0.594-0.376 0.65-0.396 0.224-0.079 0.836-0.042 1.046 0.065zM17.848 21.953c-0.146 0.051-0.392 0.214-0.547 0.36l-1.254 1.176-0.974 0.91-0.313-0.287c-0.405-0.373-0.728-0.509-1.083-0.451-0.354 0.071-0.648 0.285-0.824 0.579l-0.003 0.006c-0.131 0.251-0.132 0.703-0.003 0.951 0.138 0.269 1.528 1.576 1.795 1.69 0.268 0.114 0.604 0.115 0.858 0.005 0.296-0.129 3.569-3.218 3.698-3.489 0.149-0.313 0.142-0.558-0.023-0.896-0.177-0.365-0.546-0.613-0.972-0.613-0.127 0-0.249 0.022-0.363 0.063l0.008-0.002z"></path>
</svg>
