<!-- Generated by IcoMoon.io -->
<svg version="1.1" xmlns="http://www.w3.org/2000/svg" width="30" height="32" viewBox="0 0 30 32">
<title>document-info</title>
<path d="M15.234 19.2c-0.424 0-0.831 0.169-1.131 0.469s-0.469 0.707-0.469 1.131v3.2c0 0.424 0.169 0.831 0.469 1.131s0.707 0.468 1.131 0.468 0.831-0.169 1.131-0.468c0.3-0.3 0.468-0.707 0.468-1.131v-3.2c0-0.424-0.169-0.831-0.468-1.131s-0.707-0.469-1.131-0.469zM15.842 14.528c-0.29-0.134-0.613-0.179-0.928-0.128l-0.288 0.096-0.288 0.144-0.24 0.192c-0.152 0.153-0.272 0.336-0.351 0.537s-0.118 0.416-0.113 0.631c-0.001 0.211 0.039 0.419 0.119 0.614s0.197 0.372 0.345 0.522c0.152 0.146 0.332 0.26 0.528 0.336 0.19 0.090 0.398 0.133 0.608 0.128 0.211 0.001 0.419-0.039 0.614-0.119s0.372-0.197 0.522-0.345c0.148-0.15 0.266-0.327 0.345-0.522s0.12-0.404 0.119-0.614c0.001-0.21-0.039-0.419-0.119-0.614s-0.197-0.372-0.345-0.522c-0.156-0.141-0.334-0.255-0.528-0.336zM28.034 11.104c-0.017-0.147-0.049-0.292-0.096-0.432v-0.144c-0.077-0.165-0.18-0.316-0.304-0.448l-9.6-9.6c-0.132-0.124-0.283-0.227-0.448-0.304h-0.16c-0.156-0.083-0.323-0.143-0.496-0.176h-9.696c-1.273 0-2.494 0.506-3.394 1.406s-1.406 2.121-1.406 3.394v22.4c0 1.273 0.506 2.494 1.406 3.394s2.121 1.406 3.394 1.406h16c1.273 0 2.494-0.506 3.394-1.406s1.406-2.121 1.406-3.394v-16c0 0 0 0 0-0.096zM18.434 5.456l4.144 4.144h-2.544c-0.424 0-0.831-0.169-1.131-0.469s-0.469-0.707-0.469-1.131v-2.544zM24.834 27.2c0 0.424-0.169 0.831-0.469 1.131s-0.707 0.469-1.131 0.469h-16c-0.424 0-0.831-0.169-1.131-0.469s-0.469-0.707-0.469-1.131v-22.4c0-0.424 0.169-0.831 0.469-1.131s0.707-0.469 1.131-0.469h8v4.8c0 1.273 0.506 2.494 1.406 3.394s2.121 1.406 3.394 1.406h4.8v14.4z"></path>
</svg>
