<!-- Generated by IcoMoon.io -->
<svg version="1.1" xmlns="http://www.w3.org/2000/svg" width="32" height="32" viewBox="0 0 32 32">
<title>edit-alt</title>
<path d="M4.803 25.602h6.782c0.21 0.001 0.419-0.039 0.614-0.119s0.372-0.197 0.522-0.345l11.069-11.085 4.543-4.447c0.15-0.149 0.269-0.326 0.35-0.521s0.123-0.404 0.123-0.615c0-0.211-0.042-0.42-0.123-0.615s-0.2-0.372-0.35-0.521l-6.782-6.862c-0.149-0.15-0.326-0.269-0.52-0.35s-0.404-0.123-0.615-0.123-0.42 0.042-0.615 0.123c-0.195 0.081-0.372 0.2-0.52 0.35l-4.511 4.527-11.101 11.085c-0.148 0.15-0.266 0.327-0.345 0.522s-0.12 0.404-0.119 0.614v6.782c0 0.424 0.168 0.831 0.469 1.131s0.707 0.468 1.131 0.468zM20.415 3.864l4.527 4.527-2.271 2.271-4.527-4.527 2.271-2.271zM6.403 17.876l9.485-9.485 4.527 4.527-9.485 9.485h-4.527v-4.527zM30.396 28.801h-28.792c-0.424 0-0.831 0.169-1.131 0.468s-0.469 0.707-0.469 1.131c0 0.424 0.169 0.831 0.469 1.131s0.707 0.468 1.131 0.468h28.792c0.424 0 0.831-0.168 1.131-0.468s0.468-0.707 0.468-1.131c0-0.424-0.169-0.831-0.468-1.131s-0.707-0.468-1.131-0.468z"></path>
</svg>
