<!-- Generated by IcoMoon.io -->
<svg version="1.1" xmlns="http://www.w3.org/2000/svg" width="32" height="32" viewBox="0 0 32 32">
<title>edit</title>
<path d="M30.391 16.005c-0.424 0-0.831 0.169-1.131 0.468s-0.468 0.707-0.468 1.131v9.597c0 0.424-0.169 0.831-0.469 1.131s-0.707 0.469-1.131 0.469h-22.393c-0.424 0-0.831-0.169-1.131-0.469s-0.469-0.707-0.469-1.131v-22.393c0-0.424 0.168-0.831 0.469-1.131s0.707-0.469 1.131-0.469h9.597c0.424 0 0.831-0.168 1.131-0.469s0.469-0.707 0.469-1.131c0-0.424-0.168-0.831-0.469-1.131s-0.707-0.469-1.131-0.469h-9.597c-1.273 0-2.493 0.506-3.393 1.405s-1.405 2.12-1.405 3.393v22.393c0 1.273 0.506 2.493 1.405 3.393s2.12 1.405 3.393 1.405h22.393c1.273 0 2.493-0.506 3.393-1.405s1.405-2.12 1.405-3.393v-9.597c0-0.424-0.169-0.831-0.469-1.131s-0.707-0.468-1.131-0.468zM6.398 17.22v6.782c0 0.424 0.168 0.831 0.468 1.131s0.707 0.468 1.131 0.468h6.782c0.21 0.001 0.419-0.039 0.614-0.119s0.372-0.197 0.522-0.345l11.069-11.085 4.543-4.447c0.15-0.149 0.269-0.326 0.35-0.521s0.123-0.404 0.123-0.615-0.042-0.42-0.123-0.615c-0.081-0.195-0.2-0.372-0.35-0.521l-6.782-6.862c-0.149-0.15-0.326-0.269-0.521-0.35s-0.404-0.123-0.615-0.123c-0.211 0-0.42 0.042-0.615 0.123s-0.372 0.2-0.521 0.35l-4.511 4.527-11.101 11.085c-0.148 0.149-0.266 0.327-0.345 0.522s-0.12 0.404-0.119 0.614zM23.609 3.864l4.526 4.527-2.271 2.271-4.527-4.527 2.271-2.271zM9.597 17.876l9.485-9.485 4.527 4.527-9.485 9.485h-4.527v-4.527z"></path>
</svg>
