<!-- Generated by IcoMoon.io -->
<svg version="1.1" xmlns="http://www.w3.org/2000/svg" width="32" height="32" viewBox="0 0 32 32">
<title>eye-slash</title>
<path d="M14.304 6.531c0.561-0.086 1.128-0.129 1.695-0.128 5.085 0 9.867 3.662 12.65 9.595-0.426 0.903-0.906 1.779-1.439 2.623-0.169 0.262-0.258 0.568-0.256 0.88 0.004 0.349 0.121 0.687 0.335 0.963s0.512 0.474 0.849 0.565c0.337 0.091 0.695 0.068 1.018-0.063s0.595-0.365 0.773-0.665c0.745-1.171 1.392-2.401 1.935-3.678 0.086-0.199 0.13-0.414 0.13-0.632s-0.044-0.432-0.13-0.632c-3.23-7.5-9.307-12.154-15.864-12.154-0.751-0.004-1.5 0.060-2.239 0.192-0.21 0.036-0.411 0.112-0.591 0.226s-0.337 0.261-0.46 0.435-0.211 0.37-0.258 0.578-0.053 0.423-0.018 0.633c0.036 0.21 0.112 0.411 0.226 0.591s0.261 0.337 0.435 0.46c0.174 0.123 0.37 0.211 0.578 0.258s0.423 0.053 0.633 0.018v-0.064zM2.741 0.47c-0.149-0.149-0.326-0.267-0.521-0.348s-0.404-0.122-0.615-0.122c-0.211 0-0.42 0.042-0.615 0.122s-0.372 0.199-0.521 0.348c-0.301 0.301-0.47 0.71-0.47 1.135s0.169 0.834 0.47 1.135l4.958 4.942c-2.262 2.177-4.062 4.788-5.293 7.676-0.088 0.202-0.134 0.42-0.134 0.64s0.045 0.438 0.134 0.64c3.23 7.5 9.307 12.154 15.864 12.154 2.874-0.020 5.68-0.876 8.076-2.463l5.181 5.197c0.149 0.15 0.326 0.269 0.52 0.35s0.404 0.123 0.615 0.123 0.42-0.042 0.615-0.123c0.195-0.081 0.372-0.2 0.52-0.35 0.15-0.149 0.269-0.325 0.35-0.52s0.123-0.404 0.123-0.615c0-0.211-0.042-0.42-0.123-0.615s-0.2-0.372-0.35-0.521l-28.786-28.786zM12.912 15.167l3.918 3.918c-0.27 0.078-0.55 0.115-0.832 0.112-0.848 0-1.662-0.337-2.262-0.937s-0.937-1.413-0.937-2.262c-0.003-0.281 0.034-0.561 0.112-0.832zM15.999 25.594c-5.085 0-9.867-3.662-12.634-9.595 1.033-2.281 2.5-4.339 4.318-6.061l2.831 2.863c-0.665 1.213-0.918 2.61-0.722 3.98s0.831 2.639 1.809 3.617c0.978 0.978 2.248 1.613 3.617 1.809s2.766-0.058 3.98-0.723l2.543 2.511c-1.741 1.025-3.721 1.576-5.741 1.599z"></path>
</svg>
