<!-- Generated by IcoMoon.io -->
<svg version="1.1" xmlns="http://www.w3.org/2000/svg" width="32" height="32" viewBox="0 0 32 32">
<title>galaxy</title>
<path d="M5.818 2.909c0 1.607-1.302 2.909-2.909 2.909s-2.909-1.302-2.909-2.909c0-1.607 1.302-2.909 2.909-2.909s2.909 1.302 2.909 2.909z"></path>
<path d="M5.818 16c0 1.607-1.302 2.909-2.909 2.909s-2.909-1.302-2.909-2.909c0-1.607 1.302-2.909 2.909-2.909s2.909 1.302 2.909 2.909z"></path>
<path d="M5.818 29.091c0 1.607-1.302 2.909-2.909 2.909s-2.909-1.302-2.909-2.909c0-1.607 1.302-2.909 2.909-2.909s2.909 1.302 2.909 2.909z"></path>
<path d="M32 2.909c0 1.607-1.302 2.909-2.909 2.909s-2.909-1.302-2.909-2.909c0-1.607 1.302-2.909 2.909-2.909s2.909 1.302 2.909 2.909z"></path>
<path d="M32 16c0 1.607-1.302 2.909-2.909 2.909s-2.909-1.302-2.909-2.909c0-1.607 1.302-2.909 2.909-2.909s2.909 1.302 2.909 2.909z"></path>
<path d="M32 29.091c0 1.607-1.302 2.909-2.909 2.909s-2.909-1.302-2.909-2.909c0-1.607 1.302-2.909 2.909-2.909s2.909 1.302 2.909 2.909z"></path>
<path d="M18.909 2.909c0 1.607-1.302 2.909-2.909 2.909s-2.909-1.302-2.909-2.909c0-1.607 1.302-2.909 2.909-2.909s2.909 1.302 2.909 2.909z"></path>
<path d="M18.909 16c0 1.607-1.302 2.909-2.909 2.909s-2.909-1.302-2.909-2.909c0-1.607 1.302-2.909 2.909-2.909s2.909 1.302 2.909 2.909z"></path>
<path d="M18.909 29.091c0 1.607-1.302 2.909-2.909 2.909s-2.909-1.302-2.909-2.909c0-1.607 1.302-2.909 2.909-2.909s2.909 1.302 2.909 2.909z"></path>
</svg>
