<!-- Generated by IcoMoon.io -->
<svg version="1.1" xmlns="http://www.w3.org/2000/svg" width="32" height="32" viewBox="0 0 32 32">
<title>jigsaw</title>
<path d="M24.096 32h-19.276c-1.278 0-2.504-0.508-3.408-1.412s-1.411-2.13-1.411-3.408v-16.064c0-1.278 0.508-2.504 1.411-3.408s2.13-1.411 3.408-1.411h1.606c0.027-1.361 0.486-2.679 1.31-3.762s1.971-1.877 3.276-2.267c1.304-0.39 2.699-0.355 3.982 0.1s2.389 1.304 3.158 2.428c0.72 1.027 1.112 2.248 1.124 3.502h4.819c0.426 0 0.835 0.169 1.136 0.471s0.471 0.71 0.471 1.136v4.819c1.361 0.027 2.679 0.486 3.762 1.31s1.878 1.971 2.267 3.276c0.39 1.305 0.355 2.699-0.1 3.982s-1.304 2.389-2.428 3.158c-1.027 0.72-2.248 1.112-3.502 1.124v4.819c0 0.426-0.169 0.835-0.471 1.136s-0.71 0.471-1.136 0.471zM4.819 9.511c-0.426 0-0.835 0.169-1.136 0.47s-0.47 0.71-0.47 1.136v16.064c0 0.426 0.169 0.835 0.47 1.136s0.71 0.471 1.136 0.471h17.67v-5.108c-0.001-0.257 0.059-0.512 0.177-0.741s0.288-0.427 0.498-0.576c0.209-0.149 0.451-0.246 0.706-0.282s0.514-0.011 0.756 0.074c0.458 0.187 0.956 0.251 1.447 0.186s0.955-0.256 1.349-0.556c0.392-0.239 0.728-0.559 0.985-0.938s0.431-0.81 0.509-1.262c0.062-0.456 0.025-0.92-0.108-1.361s-0.359-0.848-0.663-1.193c-0.411-0.499-0.971-0.854-1.598-1.013s-1.288-0.114-1.888 0.13c-0.243 0.085-0.502 0.11-0.756 0.074s-0.496-0.133-0.706-0.282c-0.21-0.149-0.381-0.347-0.498-0.576s-0.178-0.483-0.177-0.741v-5.108h-5.14c-0.264 0.015-0.528-0.036-0.768-0.147s-0.448-0.28-0.607-0.492c-0.159-0.211-0.263-0.459-0.303-0.72s-0.016-0.529 0.072-0.778c0.187-0.458 0.251-0.956 0.186-1.447s-0.256-0.955-0.556-1.349c-0.237-0.403-0.562-0.747-0.95-1.008s-0.83-0.43-1.293-0.496c-0.463-0.066-0.935-0.028-1.381 0.113s-0.854 0.38-1.195 0.7c-0.316 0.314-0.564 0.69-0.727 1.105s-0.238 0.859-0.22 1.304c0.004 0.368 0.074 0.733 0.209 1.076 0.085 0.243 0.11 0.503 0.074 0.757s-0.133 0.497-0.283 0.706c-0.15 0.209-0.347 0.38-0.576 0.497s-0.483 0.177-0.74 0.176h-3.502z"></path>
</svg>
