<!-- Generated by IcoMoon.io -->
<svg version="1.1" xmlns="http://www.w3.org/2000/svg" width="32" height="32" viewBox="0 0 32 32">
<title>left-arrow-from-left</title>
<path d="M23.998 14.4h-18.549l3.681-3.665c0.149-0.149 0.268-0.326 0.348-0.521s0.122-0.404 0.122-0.615c0-0.211-0.042-0.42-0.122-0.615s-0.199-0.372-0.348-0.521c-0.149-0.149-0.326-0.268-0.521-0.348s-0.404-0.122-0.615-0.122c-0.211 0-0.42 0.042-0.615 0.122s-0.372 0.199-0.521 0.348l-6.402 6.402c-0.146 0.152-0.26 0.332-0.336 0.528-0.16 0.39-0.16 0.827 0 1.216 0.076 0.197 0.19 0.376 0.336 0.528l6.402 6.402c0.149 0.15 0.326 0.269 0.521 0.35s0.404 0.123 0.615 0.123c0.211 0 0.42-0.042 0.615-0.123s0.372-0.2 0.521-0.35c0.15-0.149 0.269-0.326 0.35-0.521s0.123-0.404 0.123-0.616-0.042-0.42-0.123-0.616c-0.081-0.195-0.2-0.372-0.35-0.521l-3.681-3.665h18.549c0.424 0 0.832-0.169 1.132-0.469s0.469-0.707 0.469-1.132c0-0.424-0.169-0.832-0.469-1.132s-0.707-0.469-1.132-0.469zM30.4 3.197c-0.424 0-0.832 0.169-1.132 0.469s-0.469 0.707-0.469 1.132v22.405c0 0.424 0.169 0.832 0.469 1.132s0.707 0.469 1.132 0.469 0.832-0.169 1.132-0.469c0.3-0.3 0.469-0.707 0.469-1.132v-22.405c0-0.424-0.169-0.832-0.469-1.132s-0.707-0.469-1.132-0.469z"></path>
</svg>
