<!-- Generated by IcoMoon.io -->
<svg version="1.1" xmlns="http://www.w3.org/2000/svg" width="32" height="32" viewBox="0 0 32 32">
<title>left-arrow-to-left</title>
<path d="M30.4 14.4h-18.544l3.68-3.664c0.149-0.149 0.268-0.326 0.348-0.521s0.122-0.404 0.122-0.615-0.042-0.42-0.122-0.615c-0.081-0.195-0.199-0.372-0.348-0.521s-0.326-0.268-0.521-0.348c-0.195-0.081-0.404-0.122-0.615-0.122s-0.42 0.042-0.615 0.122c-0.195 0.081-0.372 0.199-0.521 0.348l-6.4 6.4c-0.146 0.152-0.26 0.332-0.336 0.528-0.16 0.39-0.16 0.826 0 1.216 0.076 0.196 0.19 0.376 0.336 0.528l6.4 6.4c0.149 0.15 0.326 0.269 0.521 0.35s0.404 0.123 0.615 0.123 0.42-0.042 0.615-0.123c0.195-0.081 0.372-0.2 0.521-0.35 0.15-0.149 0.269-0.326 0.35-0.521s0.123-0.404 0.123-0.615-0.042-0.42-0.123-0.615c-0.081-0.195-0.2-0.372-0.35-0.521l-3.68-3.664h18.544c0.424 0 0.831-0.169 1.131-0.469s0.469-0.707 0.469-1.131c0-0.424-0.169-0.831-0.469-1.131s-0.707-0.469-1.131-0.469zM1.6 1.6c-0.424 0-0.831 0.169-1.131 0.469s-0.469 0.707-0.469 1.131v25.6c0 0.424 0.169 0.831 0.469 1.131s0.707 0.469 1.131 0.469c0.424 0 0.831-0.169 1.131-0.469s0.469-0.707 0.469-1.131v-25.6c0-0.424-0.169-0.831-0.469-1.131s-0.707-0.469-1.131-0.469z"></path>
</svg>
