<!-- Generated by IcoMoon.io -->
<svg version="1.1" xmlns="http://www.w3.org/2000/svg" width="32" height="32" viewBox="0 0 32 32">
<title>lock</title>
<path d="M24 11.2v-3.2c0-2.122-0.843-4.157-2.343-5.657s-3.535-2.343-5.657-2.343-4.157 0.843-5.657 2.343c-1.5 1.5-2.343 3.535-2.343 5.657v3.2c-1.273 0-2.494 0.506-3.394 1.406s-1.406 2.121-1.406 3.394v11.2c0 1.273 0.506 2.494 1.406 3.394s2.121 1.406 3.394 1.406h16c1.273 0 2.494-0.506 3.394-1.406s1.406-2.121 1.406-3.394v-11.2c0-1.273-0.506-2.494-1.406-3.394s-2.121-1.406-3.394-1.406zM11.2 8c0-1.273 0.506-2.494 1.406-3.394s2.121-1.406 3.394-1.406c1.273 0 2.494 0.506 3.394 1.406s1.406 2.121 1.406 3.394v3.2h-9.6v-3.2zM25.6 27.2c0 0.424-0.169 0.831-0.469 1.131s-0.707 0.469-1.131 0.469h-16c-0.424 0-0.831-0.169-1.131-0.469s-0.469-0.707-0.469-1.131v-11.2c0-0.424 0.169-0.831 0.469-1.131s0.707-0.469 1.131-0.469h16c0.424 0 0.831 0.169 1.131 0.469s0.469 0.707 0.469 1.131v11.2z"></path>
</svg>
