<!-- Generated by IcoMoon.io -->
<svg version="1.1" xmlns="http://www.w3.org/2000/svg" width="31" height="32" viewBox="0 0 31 32">
<title>notebooks</title>
<path d="M29.183 6.784c-0.407 0-0.798 0.162-1.086 0.45s-0.45 0.679-0.45 1.086v15.36c0 1.222-0.485 2.394-1.35 3.258s-2.036 1.35-3.258 1.35h-15.36c-0.407 0-0.798 0.162-1.086 0.45s-0.45 0.679-0.45 1.086c0 0.407 0.162 0.798 0.45 1.086s0.679 0.45 1.086 0.45h15.36c2.037 0 3.99-0.809 5.43-2.249s2.249-3.394 2.249-5.43v-15.36c0-0.407-0.162-0.798-0.45-1.086s-0.679-0.45-1.086-0.45zM24.575 20.608v-15.36c0-1.222-0.485-2.394-1.35-3.258s-2.036-1.35-3.258-1.35h-15.36c-1.222 0-2.394 0.485-3.258 1.35s-1.35 2.036-1.35 3.258v15.36c0 1.222 0.485 2.394 1.35 3.258s2.036 1.35 3.258 1.35h15.36c1.222 0 2.394-0.485 3.258-1.35s1.35-2.036 1.35-3.258zM12.287 3.712h3.072v7.465l-0.553-0.461c-0.276-0.23-0.624-0.356-0.983-0.356s-0.707 0.126-0.983 0.356l-0.553 0.461v-7.465zM3.072 20.608v-15.36c0-0.407 0.162-0.798 0.45-1.086s0.679-0.45 1.086-0.45h4.608v10.752c0 0.293 0.084 0.581 0.242 0.828s0.384 0.444 0.651 0.567c0.267 0.123 0.563 0.167 0.854 0.126s0.564-0.163 0.787-0.354l2.074-1.736 2.074 1.736c0.278 0.238 0.632 0.369 0.998 0.369 0.222-0.002 0.442-0.049 0.645-0.138 0.267-0.123 0.492-0.321 0.65-0.568s0.241-0.536 0.241-0.829v-10.752h1.536c0.407 0 0.798 0.162 1.086 0.45s0.45 0.679 0.45 1.086v15.36c0 0.407-0.162 0.798-0.45 1.086s-0.679 0.45-1.086 0.45h-15.36c-0.407 0-0.798-0.162-1.086-0.45s-0.45-0.679-0.45-1.086z"></path>
</svg>
