<!-- Generated by IcoMoon.io -->
<svg version="1.1" xmlns="http://www.w3.org/2000/svg" width="32" height="32" viewBox="0 0 32 32">
<title>paperclip</title>
<path d="M26.883 16.936l-10.066 10.082c-1.32 1.173-3.037 1.797-4.802 1.745s-3.443-0.776-4.691-2.025c-1.248-1.248-1.973-2.927-2.025-4.691s0.572-3.483 1.745-4.802l13.030-13.030c0.778-0.739 1.81-1.151 2.883-1.151s2.105 0.412 2.883 1.151c0.758 0.768 1.183 1.804 1.183 2.883s-0.425 2.115-1.183 2.883l-11.239 11.223c-0.111 0.12-0.245 0.216-0.393 0.285s-0.309 0.106-0.473 0.112c-0.163 0.006-0.326-0.020-0.48-0.077s-0.294-0.143-0.414-0.255-0.216-0.245-0.285-0.393c-0.068-0.149-0.106-0.309-0.112-0.473s0.020-0.326 0.077-0.48c0.057-0.153 0.143-0.294 0.255-0.414l8.356-8.34c0.307-0.307 0.479-0.723 0.479-1.156s-0.172-0.85-0.479-1.156c-0.307-0.307-0.723-0.479-1.156-0.479s-0.85 0.172-1.156 0.479l-8.356 8.372c-0.418 0.415-0.75 0.908-0.976 1.452s-0.343 1.127-0.343 1.716c0 0.589 0.117 1.172 0.343 1.716s0.558 1.037 0.976 1.452c0.854 0.814 1.988 1.267 3.168 1.267s2.314-0.454 3.168-1.267l11.223-11.239c1.295-1.389 2-3.227 1.966-5.126s-0.803-3.711-2.146-5.054c-1.343-1.343-3.155-2.112-5.054-2.146s-3.736 0.671-5.126 1.966l-13.030 13.030c-1.757 1.946-2.696 4.495-2.62 7.116s1.16 5.112 3.026 6.953c1.867 1.841 4.372 2.892 6.994 2.932s5.158-0.933 7.080-2.716l10.082-10.066c0.152-0.152 0.272-0.332 0.355-0.531s0.124-0.411 0.124-0.626-0.042-0.427-0.124-0.626c-0.082-0.198-0.203-0.379-0.355-0.531s-0.332-0.272-0.531-0.355c-0.199-0.082-0.411-0.124-0.626-0.124s-0.427 0.042-0.626 0.124c-0.199 0.082-0.379 0.203-0.531 0.355v0.033z"></path>
</svg>
