<!-- Generated by IcoMoon.io -->
<svg version="1.1" xmlns="http://www.w3.org/2000/svg" width="32" height="32" viewBox="0 0 32 32">
<title>phone</title>
<path d="M30.459 21.513l-7.558-3.387c-0.391-0.167-0.818-0.235-1.242-0.195s-0.831 0.183-1.185 0.419c-0.042 0.028-0.082 0.057-0.12 0.090l-3.894 3.32c-2.467-1.198-5.014-3.726-6.213-6.162l3.325-3.954c0.032-0.040 0.062-0.080 0.091-0.123 0.231-0.353 0.371-0.758 0.408-1.178s-0.031-0.843-0.197-1.231v-0.019l-3.387-7.55c-0.22-0.507-0.597-0.929-1.076-1.203s-1.034-0.387-1.583-0.32c-2.168 0.285-4.158 1.35-5.599 2.995s-2.233 3.759-2.229 5.945c0 12.704 10.336 23.040 23.040 23.040 2.187 0.004 4.3-0.788 5.946-2.229s2.71-3.43 2.995-5.599c0.067-0.548-0.045-1.103-0.319-1.582s-0.696-0.857-1.203-1.077zM23.040 29.44c-5.43-0.006-10.636-2.166-14.475-6.005s-5.999-9.045-6.005-14.475c-0.006-1.562 0.557-3.074 1.584-4.251s2.447-1.942 3.996-2.149c-0.001 0.006-0.001 0.013 0 0.019l3.36 7.52-3.307 3.958c-0.034 0.039-0.064 0.080-0.091 0.123-0.241 0.37-0.382 0.795-0.41 1.235s0.058 0.88 0.25 1.277c1.45 2.965 4.437 5.93 7.434 7.378 0.4 0.19 0.842 0.273 1.284 0.241s0.868-0.178 1.236-0.424c0.041-0.028 0.081-0.058 0.118-0.090l3.89-3.318 7.52 3.368h0.017c-0.205 1.551-0.967 2.974-2.145 4.003s-2.691 1.594-4.255 1.589z"></path>
</svg>
