<!-- Generated by IcoMoon.io -->
<svg version="1.1" xmlns="http://www.w3.org/2000/svg" width="32" height="32" viewBox="0 0 32 32">
<title>pin</title>
<path d="M29.453 12.224c-0.223-2.323-1.044-4.55-2.383-6.461s-3.15-3.444-5.258-4.448-4.439-1.445-6.767-1.281c-2.328 0.165-4.574 0.929-6.52 2.22-1.671 1.117-3.074 2.591-4.108 4.315s-1.673 3.656-1.872 5.656c-0.195 1.987 0.055 3.993 0.732 5.872s1.763 3.583 3.18 4.99l8.428 8.444c0.148 0.149 0.324 0.267 0.517 0.348s0.402 0.122 0.612 0.122 0.418-0.042 0.612-0.122c0.194-0.081 0.37-0.199 0.517-0.348l8.396-8.444c1.417-1.407 2.503-3.111 3.18-4.99s0.927-3.884 0.732-5.872zM23.315 20.843l-7.315 7.315-7.315-7.315c-1.078-1.078-1.904-2.382-2.418-3.817s-0.704-2.967-0.556-4.484c0.149-1.541 0.639-3.029 1.434-4.357s1.875-2.464 3.162-3.323c1.687-1.121 3.668-1.719 5.693-1.719s4.006 0.598 5.693 1.719c1.283 0.857 2.361 1.987 3.156 3.309s1.286 2.805 1.44 4.34c0.153 1.523-0.034 3.060-0.549 4.501s-1.343 2.75-2.425 3.832zM16 6.451c-1.415 0-2.799 0.42-3.976 1.206s-2.094 1.904-2.636 3.212-0.683 2.746-0.407 4.135c0.276 1.388 0.958 2.663 1.958 3.664s2.276 1.682 3.664 1.958c1.388 0.276 2.827 0.135 4.135-0.407s2.425-1.459 3.211-2.636c0.786-1.177 1.206-2.56 1.206-3.976-0.004-1.897-0.759-3.714-2.101-5.055s-3.159-2.096-5.056-2.101zM16 17.583c-0.786 0-1.555-0.233-2.209-0.67s-1.163-1.058-1.464-1.784c-0.301-0.726-0.38-1.526-0.226-2.297s0.532-1.48 1.088-2.036c0.556-0.556 1.264-0.935 2.036-1.088s1.571-0.075 2.297 0.226 1.347 0.81 1.784 1.464c0.437 0.654 0.67 1.422 0.67 2.209 0 1.054-0.419 2.066-1.164 2.811s-1.757 1.164-2.811 1.164z"></path>
</svg>
