<!-- Generated by IcoMoon.io -->
<svg version="1.1" xmlns="http://www.w3.org/2000/svg" width="31" height="32" viewBox="0 0 31 32">
<title>plus-circle</title>
<path d="M15.359 0.64c-3.038 0-6.007 0.901-8.533 2.589s-4.495 4.087-5.657 6.893c-1.163 2.807-1.467 5.895-0.874 8.874s2.055 5.716 4.204 7.864c2.148 2.148 4.885 3.611 7.864 4.204s6.068 0.288 8.874-0.874c2.807-1.163 5.206-3.131 6.893-5.657s2.589-5.495 2.589-8.533c0-2.017-0.397-4.014-1.169-5.878s-1.903-3.557-3.329-4.983-3.12-2.558-4.983-3.33c-1.863-0.772-3.861-1.169-5.878-1.169zM15.359 28.288c-2.43 0-4.806-0.721-6.827-2.071s-3.596-3.269-4.526-5.515-1.173-4.716-0.699-7.099c0.474-2.384 1.644-4.573 3.363-6.291s3.908-2.889 6.291-3.363c2.383-0.474 4.854-0.231 7.099 0.699s4.164 2.505 5.515 4.526c1.35 2.021 2.071 4.396 2.071 6.827 0 3.259-1.294 6.384-3.599 8.689s-5.43 3.599-8.689 3.599zM21.503 14.464h-4.608v-4.608c0-0.407-0.162-0.798-0.45-1.086s-0.679-0.45-1.086-0.45c-0.407 0-0.798 0.162-1.086 0.45s-0.45 0.679-0.45 1.086v4.608h-4.608c-0.407 0-0.798 0.162-1.086 0.45s-0.45 0.679-0.45 1.086c0 0.407 0.162 0.798 0.45 1.086s0.679 0.45 1.086 0.45h4.608v4.608c0 0.407 0.162 0.798 0.45 1.086s0.679 0.45 1.086 0.45 0.798-0.162 1.086-0.45c0.288-0.288 0.45-0.679 0.45-1.086v-4.608h4.608c0.407 0 0.798-0.162 1.086-0.45s0.45-0.679 0.45-1.086-0.162-0.798-0.45-1.086c-0.288-0.288-0.679-0.45-1.086-0.45z"></path>
</svg>
