<!-- Generated by IcoMoon.io -->
<svg version="1.1" xmlns="http://www.w3.org/2000/svg" width="32" height="32" viewBox="0 0 32 32">
<title>pricetag-alt</title>
<path d="M8 6.408c-0.316 0-0.626 0.094-0.889 0.27s-0.468 0.426-0.589 0.718c-0.121 0.292-0.153 0.614-0.091 0.924s0.214 0.595 0.438 0.819 0.509 0.376 0.819 0.438c0.31 0.062 0.632 0.030 0.924-0.091s0.542-0.326 0.718-0.589c0.176-0.263 0.27-0.572 0.27-0.889 0-0.424-0.169-0.831-0.469-1.131s-0.707-0.469-1.131-0.469zM31.536 15.656l-15.168-15.136c-0.149-0.161-0.33-0.289-0.531-0.377s-0.418-0.134-0.637-0.135h-9.6c-0.211-0.001-0.419 0.039-0.614 0.119s-0.372 0.197-0.522 0.345l-4 3.984c-0.148 0.149-0.266 0.327-0.345 0.522s-0.12 0.404-0.119 0.614v9.6c0.006 0.424 0.172 0.829 0.464 1.136l15.184 15.2c0.307 0.292 0.712 0.458 1.136 0.464 0.211 0.001 0.419-0.039 0.614-0.119s0.372-0.197 0.522-0.345l13.616-13.616c0.148-0.149 0.266-0.327 0.345-0.522s0.12-0.404 0.119-0.614c-0.010-0.418-0.175-0.818-0.464-1.12zM16.784 28.152l-13.584-13.6v-8.304l3.040-3.040h8.288l13.6 13.584-11.344 11.36z"></path>
</svg>
