<!-- Generated by IcoMoon.io -->
<svg version="1.1" xmlns="http://www.w3.org/2000/svg" width="32" height="32" viewBox="0 0 32 32">
<title>scaling-left</title>
<path d="M30.4 22.4c-0.424 0-0.831 0.169-1.131 0.469s-0.469 0.707-0.469 1.131v2.544l-10.544-10.544 3.408-3.392c0.301-0.301 0.471-0.71 0.471-1.136s-0.169-0.835-0.471-1.136c-0.301-0.301-0.71-0.471-1.136-0.471s-0.835 0.169-1.136 0.471l-3.392 3.408-10.544-10.544h2.544c0.424 0 0.831-0.169 1.131-0.469s0.469-0.707 0.469-1.131c0-0.424-0.169-0.831-0.469-1.131s-0.707-0.469-1.131-0.469h-6.4c-0.209 0.003-0.416 0.046-0.608 0.128-0.391 0.162-0.702 0.473-0.864 0.864-0.082 0.192-0.125 0.399-0.128 0.608v6.4c0 0.424 0.169 0.831 0.469 1.131s0.707 0.469 1.131 0.469c0.424 0 0.831-0.169 1.131-0.469s0.469-0.707 0.469-1.131v-2.544l10.544 10.544-3.408 3.392c-0.15 0.149-0.269 0.326-0.35 0.521s-0.123 0.404-0.123 0.615 0.042 0.42 0.123 0.615c0.081 0.195 0.2 0.372 0.35 0.521s0.327 0.266 0.522 0.345c0.195 0.080 0.404 0.12 0.614 0.119 0.211 0.001 0.419-0.039 0.614-0.119s0.372-0.197 0.522-0.345l3.392-3.408 10.544 10.544h-2.544c-0.424 0-0.831 0.169-1.131 0.469s-0.469 0.707-0.469 1.131c0 0.424 0.169 0.831 0.469 1.131s0.707 0.469 1.131 0.469h6.4c0.209-0.003 0.416-0.046 0.608-0.128 0.391-0.162 0.702-0.473 0.864-0.864 0.082-0.192 0.125-0.399 0.128-0.608v-6.4c0-0.424-0.169-0.831-0.469-1.131s-0.707-0.469-1.131-0.469z"></path>
</svg>
