<!-- Generated by IcoMoon.io -->
<svg version="1.1" xmlns="http://www.w3.org/2000/svg" width="32" height="32" viewBox="0 0 32 32">
<title>trash</title>
<path d="M3.2 6.4h6.4v-1.6c0-1.273 0.506-2.494 1.406-3.394s2.121-1.406 3.394-1.406h3.2c1.273 0 2.494 0.506 3.394 1.406s1.406 2.121 1.406 3.394v1.6h6.4c0.424 0 0.831 0.169 1.131 0.469s0.469 0.707 0.469 1.131c0 0.424-0.169 0.831-0.469 1.131s-0.707 0.469-1.131 0.469h-1.6v17.6c0 1.273-0.506 2.494-1.406 3.394s-2.121 1.406-3.394 1.406h-12.8c-1.273 0-2.494-0.506-3.394-1.406s-1.406-2.121-1.406-3.394v-17.6h-1.6c-0.424 0-0.831-0.169-1.131-0.469s-0.469-0.707-0.469-1.131c0-0.424 0.169-0.831 0.469-1.131s0.707-0.469 1.131-0.469zM19.2 4.8c0-0.424-0.169-0.831-0.469-1.131s-0.707-0.469-1.131-0.469h-3.2c-0.424 0-0.831 0.169-1.131 0.469s-0.469 0.707-0.469 1.131v1.6h6.4v-1.6zM8 27.2c0 0.424 0.169 0.831 0.469 1.131s0.707 0.469 1.131 0.469h12.8c0.424 0 0.831-0.169 1.131-0.469s0.469-0.707 0.469-1.131v-17.6h-16v17.6z"></path>
</svg>
