<!-- Generated by IcoMoon.io -->
<svg version="1.1" xmlns="http://www.w3.org/2000/svg" width="25" height="32" viewBox="0 0 25 32">
<title>unlock</title>
<path d="M2.531 13.728h0.945v-5.827c0-4.365 3.998-7.901 8.929-7.901 4.933 0 8.929 3.538 8.929 7.901l-0.015 1.432h-2.915v-1.432c0-2.587-2.684-4.683-5.999-4.683-3.312 0-5.999 2.096-5.999 4.683v5.827h15.688c0.833 0 1.513 0.714 1.513 1.587v15.099c0 0.873-0.679 1.587-1.513 1.587h-19.563c-0.832 0-1.513-0.714-1.513-1.587v-15.099c0-0.873 0.681-1.587 1.513-1.587z"></path>
</svg>
