<!-- Generated by IcoMoon.io -->
<svg version="1.1" xmlns="http://www.w3.org/2000/svg" width="32" height="32" viewBox="0 0 32 32">
<title>user-circle</title>
<path d="M16 0c-3.106 0.006-6.144 0.915-8.743 2.617s-4.647 4.122-5.895 6.967c-1.248 2.845-1.641 5.991-1.132 9.056s1.898 5.915 3.998 8.204c1.5 1.626 3.32 2.923 5.346 3.811s4.214 1.346 6.426 1.346c2.212 0 4.4-0.458 6.426-1.346s3.847-2.185 5.346-3.811c2.1-2.289 3.489-5.14 3.998-8.204s0.115-6.211-1.132-9.056c-1.248-2.845-3.296-5.266-5.894-6.967s-5.637-2.611-8.743-2.617zM16 28.83c-3.318-0.005-6.505-1.297-8.889-3.604 0.724-1.763 1.956-3.27 3.538-4.331s3.445-1.627 5.351-1.627c1.905 0 3.768 0.567 5.351 1.627s2.814 2.568 3.539 4.331c-2.385 2.307-5.571 3.599-8.889 3.604zM12.797 12.813c0-0.634 0.188-1.253 0.54-1.78s0.852-0.937 1.438-1.18c0.585-0.242 1.229-0.306 1.851-0.182s1.192 0.429 1.64 0.877 0.753 1.019 0.877 1.64c0.123 0.621 0.060 1.265-0.182 1.851s-0.653 1.086-1.18 1.437c-0.527 0.352-1.146 0.54-1.78 0.54-0.85 0-1.664-0.337-2.265-0.938s-0.938-1.416-0.938-2.265zM27.067 22.423c-1.431-2.448-3.634-4.352-6.262-5.414 0.816-0.925 1.347-2.065 1.53-3.284s0.011-2.465-0.496-3.589c-0.507-1.124-1.328-2.077-2.364-2.746s-2.242-1.025-3.475-1.025c-1.233 0-2.44 0.356-3.475 1.025s-1.857 1.622-2.364 2.746-0.68 2.37-0.496 3.589c0.183 1.219 0.715 2.36 1.53 3.284-2.629 1.062-4.831 2.966-6.263 5.414-1.14-1.943-1.743-4.154-1.746-6.407 0-3.398 1.35-6.657 3.753-9.060s5.662-3.753 9.060-3.753c3.398 0 6.657 1.35 9.060 3.753s3.753 5.662 3.753 9.060c-0.003 2.253-0.605 4.464-1.746 6.407z"></path>
</svg>
