<!-- Generated by IcoMoon.io -->
<svg version="1.1" xmlns="http://www.w3.org/2000/svg" width="31" height="32" viewBox="0 0 31 32">
<title>user</title>
<path d="M21.063 17.095c1.513-1.191 2.618-2.823 3.16-4.671s0.495-3.818-0.135-5.638-1.811-3.397-3.38-4.514c-1.569-1.117-3.446-1.717-5.372-1.717s-3.803 0.6-5.372 1.717-2.75 2.695-3.38 4.514c-0.63 1.82-0.677 3.79-0.135 5.638s1.647 3.48 3.16 4.671c-2.593 1.039-4.856 2.762-6.546 4.985s-2.746 4.864-3.054 7.641c-0.022 0.203-0.004 0.408 0.052 0.604s0.152 0.378 0.28 0.538c0.258 0.321 0.632 0.527 1.042 0.572s0.82-0.074 1.141-0.332 0.527-0.632 0.572-1.042c0.339-3.017 1.778-5.804 4.041-7.828s5.194-3.142 8.23-3.142c3.036 0 5.966 1.119 8.23 3.142s3.702 4.81 4.041 7.828c0.042 0.379 0.223 0.73 0.508 0.983s0.654 0.393 1.036 0.391h0.17c0.405-0.046 0.774-0.251 1.029-0.569s0.373-0.724 0.329-1.129c-0.309-2.784-1.371-5.432-3.070-7.659s-3.973-3.949-6.577-4.983zM15.336 16c-1.221 0-2.415-0.362-3.43-1.040s-1.807-1.643-2.274-2.771c-0.467-1.128-0.59-2.37-0.351-3.567s0.826-2.298 1.69-3.161c0.863-0.863 1.964-1.452 3.161-1.69s2.439-0.116 3.567 0.351 2.092 1.259 2.771 2.274c0.678 1.015 1.041 2.209 1.041 3.43 0 1.637-0.65 3.208-1.808 4.366s-2.728 1.808-4.366 1.808z"></path>
</svg>
