<!-- Generated by IcoMoon.io -->
<svg version="1.1" xmlns="http://www.w3.org/2000/svg" width="20" height="32" viewBox="0 0 20 32">
<title>walk</title>
<path d="M11.010 0.021c-0.63 0.1-1.198 0.41-1.688 0.924-0.494 0.498-0.799 1.183-0.799 1.94 0 0.029 0 0.058 0.001 0.086v-0.004c0 0.424 0.060 0.752 0.202 1.11 0.31 0.772 1.044 1.46 1.824 1.71 0.974 0.312 1.994 0.134 2.765-0.482 0.498-0.398 0.854-0.918 1.032-1.502 0.082-0.27 0.092-0.352 0.094-0.816 0.002-0.040 0.002-0.087 0.002-0.134 0-0.2-0.016-0.396-0.047-0.588l0.003 0.021c-0.28-1.070-1.095-1.9-2.135-2.197l-0.022-0.005c-0.247-0.054-0.53-0.085-0.821-0.085-0.145 0-0.288 0.008-0.429 0.023l0.018-0.002zM8.516 6.707c-0.215 0.046-0.399 0.102-0.577 0.169l0.027-0.009c-0.472 0.184-6.709 2.855-6.881 2.947-0.232 0.144-0.425 0.329-0.572 0.548l-0.004 0.007c-0.184 0.314-0.184 0.328-0.184 3.005 0 2.627 0 2.629 0.164 2.947 0.175 0.309 0.441 0.548 0.762 0.686l0.010 0.004c0.79 0.278 1.636-0.078 1.94-0.818 0.074-0.182 0.074-0.206 0.090-2.164l0.018-1.982 1.312-0.51c0.724-0.282 1.322-0.504 1.33-0.494 0.010 0.008-0.842 4.355-1.892 9.658-1.778 8.982-1.908 9.66-1.894 9.912 0.032 0.62 0.492 1.172 1.112 1.332 0.12 0.031 0.257 0.049 0.399 0.049 0.276 0 0.537-0.068 0.766-0.187l-0.009 0.004c0.273-0.16 0.493-0.386 0.642-0.655l0.004-0.009c0.078-0.168 0.83-3.485 2.231-9.818 0.16-0.724 0.302-1.328 0.314-1.342s0.712 0.5 1.554 1.14l1.532 1.168 0.016 4.243c0.016 3.991 0.022 4.253 0.078 4.425 0.132 0.37 0.384 0.67 0.709 0.86l0.008 0.004c0.204 0.111 0.447 0.176 0.705 0.176 0.719 0 1.319-0.505 1.466-1.18l0.002-0.010c0.024-0.112 0.032-1.728 0.026-4.917l-0.008-4.751-0.080-0.2c-0.055-0.132-0.114-0.243-0.181-0.349l0.005 0.009c-0.478-0.496-0.96-0.968-1.455-1.425l-0.023-0.021c-1.142-1.078-1.38-1.318-1.366-1.376l0.45-2.204 0.448-2.204c0.014-0.062 0.104 0.014 0.592 0.5 1.668 1.658 3.365 2.597 5.477 3.025 0.8 0.164 1.15 0.132 1.524-0.136 0.726-0.52 0.772-1.65 0.090-2.283-0.27-0.248-0.524-0.372-0.974-0.472-1.21-0.266-2.156-0.69-3.041-1.36-0.699-0.565-1.298-1.214-1.794-1.94l-0.020-0.031c-0.092-0.117-0.424-0.633-0.751-1.152l-0.253-0.43c-0.836-1.342-0.99-1.538-1.428-1.834-0.313-0.201-0.672-0.377-1.052-0.509l-0.036-0.011c-0.227-0.044-0.489-0.069-0.756-0.069-0.201 0-0.399 0.014-0.592 0.042l0.022-0.003z"></path>
</svg>
